SplineFontDB: 3.0
FontName: Roboto-Regular
FullName: Roboto
FamilyName: Roboto
Weight: Book
Copyright: Copyright 2011 Google Inc. All Rights Reserved.
Version: 2.137; 2017
ItalicAngle: 0
UnderlinePosition: -200
UnderlineWidth: 100
Ascent: 1536
Descent: 512
InvalidEm: 0
sfntRevision: 0x00022312
woffMajor: 1
woffMinor: 1
LayerCount: 2
Layer: 0 1 "Back" 1
Layer: 1 1 "Fore" 0
XUID: [1021 924 1676162366 11493186]
StyleMap: 0x0040
FSType: 0
OS2Version: 3
OS2_WeightWidthSlopeOnly: 0
OS2_UseTypoMetrics: 0
CreationTime: 1221222574
ModificationTime: 1490788980
PfmFamily: 17
TTFWeight: 400
TTFWidth: 5
LineGap: 0
VLineGap: 0
Panose: 2 0 0 0 0 0 0 0 0 0
OS2TypoAscent: 1536
OS2TypoAOffset: 0
OS2TypoDescent: -512
OS2TypoDOffset: 0
OS2TypoLinegap: 102
OS2WinAscent: 1946
OS2WinAOffset: 0
OS2WinDescent: 512
OS2WinDOffset: 0
HheadAscent: 1900
HheadAOffset: 0
HheadDescent: -500
HheadDOffset: 0
OS2SubXSize: 1434
OS2SubYSize: 1331
OS2SubXOff: 0
OS2SubYOff: 287
OS2SupXSize: 1434
OS2SupYSize: 1331
OS2SupXOff: 0
OS2SupYOff: 977
OS2StrikeYSize: 102
OS2StrikeYPos: 512
OS2CapHeight: 1456
OS2XHeight: 1082
OS2Vendor: 'GOOG'
OS2CodePages: 2000019f.00000000
OS2UnicodeRanges: 80000027.0000004b.00000020.00000000
Lookup: 1 0 0 "'locl' Localized Forms in Latin lookup 0" { "'locl' Localized Forms in Latin lookup 0 subtable"  } ['locl' ('latn' <'FRA ' > ) ]
Lookup: 4 0 1 "'liga' Standard Ligatures in Latin lookup 1" { "'liga' Standard Ligatures in Latin lookup 1 subtable"  } ['liga' ('latn' <'FRA ' 'MOL ' 'NAV ' 'ROM ' 'dflt' > ) ]
Lookup: 4 0 1 "'liga' Standard Ligatures in Latin lookup 2" { "'liga' Standard Ligatures in Latin lookup 2 subtable"  } ['liga' ('latn' <'AZE ' 'CRT ' 'FRA ' 'MOL ' 'NAV ' 'ROM ' 'TRK ' 'dflt' > ) ]
Lookup: 1 0 0 "'frac' Diagonal Fractions lookup 3" { "'frac' Diagonal Fractions lookup 3 subtable"  } ['frac' ('DFLT' <'dflt' > 'cyrl' <'dflt' > 'grek' <'dflt' > 'latn' <'AZE ' 'CRT ' 'FRA ' 'MOL ' 'NAV ' 'ROM ' 'TRK ' 'dflt' > ) ]

StartChar: .notdef
Encoding: 1114112 -1 0
Width: 908
Flags: W
LayerCount: 2
Fore
SplineSet
808 0 m 1,0,-1
 100 0 l 1,1,-1
 100 1456 l 1,2,-1
 808 1456 l 1,3,-1
 808 0 l 1,0,-1
754 84 m 1,4,-1
 754 1371 l 1,5,-1
 480 728 l 1,6,-1
 754 84 l 1,4,-1
154 1359 m 1,7,-1
 154 96 l 1,8,-1
 422 728 l 1,9,-1
 154 1359 l 1,7,-1
194 54 m 1,10,-1
 709 54 l 1,11,-1
 451 660 l 1,12,-1
 194 54 l 1,10,-1
451 796 m 1,13,-1
 709 1402 l 1,14,-1
 194 1402 l 1,15,-1
 451 796 l 1,13,-1
EndSplineSet
EndChar

StartChar: exclam
Encoding: 33 33 5
Width: 527
Flags: W
LayerCount: 2
Fore
SplineSet
347 411 m 1,0,-1
 180 411 l 1,1,-1
 167 1456 l 1,2,-1
 361 1456 l 1,3,-1
 347 411 l 1,0,-1
160 93 m 256,4,5
 160 138 160 138 187.5 168.5 c 128,-1,6
 215 199 215 199 269 199 c 128,-1,7
 323 199 323 199 351 168.5 c 128,-1,8
 379 138 379 138 379 93 c 128,-1,9
 379 48 379 48 351 18.5 c 128,-1,10
 323 -11 323 -11 269 -11 c 128,-1,11
 215 -11 215 -11 187.5 18.5 c 128,-1,12
 160 48 160 48 160 93 c 256,4,5
EndSplineSet
EndChar

StartChar: quotedbl
Encoding: 34 34 6
Width: 655
Flags: W
LayerCount: 2
Fore
SplineSet
277 1400 m 1,0,-1
 247 1042 l 1,1,-1
 136 1042 l 1,2,-1
 137 1536 l 1,3,-1
 277 1536 l 1,4,-1
 277 1400 l 1,0,-1
547 1400 m 1,5,-1
 517 1042 l 1,6,-1
 406 1042 l 1,7,-1
 407 1536 l 1,8,-1
 547 1536 l 1,9,-1
 547 1400 l 1,5,-1
EndSplineSet
EndChar

StartChar: numbersign
Encoding: 35 35 7
Width: 1261
Flags: W
LayerCount: 2
Fore
SplineSet
765 410 m 1,0,-1
 501 410 l 1,1,-1
 421 0 l 1,2,-1
 278 0 l 1,3,-1
 358 410 l 1,4,-1
 119 410 l 1,5,-1
 119 547 l 1,6,-1
 384 547 l 1,7,-1
 453 901 l 1,8,-1
 195 901 l 1,9,-1
 195 1040 l 1,10,-1
 480 1040 l 1,11,-1
 562 1456 l 1,12,-1
 705 1456 l 1,13,-1
 623 1040 l 1,14,-1
 887 1040 l 1,15,-1
 969 1456 l 1,16,-1
 1113 1456 l 1,17,-1
 1031 1040 l 1,18,-1
 1235 1040 l 1,19,-1
 1235 901 l 1,20,-1
 1004 901 l 1,21,-1
 935 547 l 1,22,-1
 1160 547 l 1,23,-1
 1160 410 l 1,24,-1
 909 410 l 1,25,-1
 829 0 l 1,26,-1
 685 0 l 1,27,-1
 765 410 l 1,0,-1
527 547 m 1,28,-1
 791 547 l 1,29,-1
 860 901 l 1,30,-1
 596 901 l 1,31,-1
 527 547 l 1,28,-1
EndSplineSet
EndChar

StartChar: dollar
Encoding: 36 36 8
Width: 1150
Flags: W
LayerCount: 2
Fore
SplineSet
856 375 m 0,0,1
 856 467 856 467 791.5 530 c 128,-1,2
 727 593 727 593 574 644 c 1,3,4
 361 709 361 709 263.5 813.5 c 128,-1,5
 166 918 166 918 166 1079 c 0,6,7
 166 1243 166 1243 261.5 1348 c 128,-1,8
 357 1453 357 1453 524 1473 c 1,9,-1
 524 1692 l 1,10,-1
 673 1692 l 1,11,-1
 673 1472 l 1,12,13
 841 1449 841 1449 934.5 1331 c 128,-1,14
 1028 1213 1028 1213 1028 1008 c 1,15,-1
 844 1008 l 1,16,17
 844 1149 844 1149 777 1232 c 128,-1,18
 710 1315 710 1315 596 1315 c 0,19,20
 477 1315 477 1315 414 1253.5 c 128,-1,21
 351 1192 351 1192 351 1082 c 0,22,23
 351 980 351 980 417.5 919.5 c 128,-1,24
 484 859 484 859 636.5 809.5 c 128,-1,25
 789 760 789 760 874.5 700.5 c 128,-1,26
 960 641 960 641 1000.5 562 c 128,-1,27
 1041 483 1041 483 1041 377 c 0,28,29
 1041 208 1041 208 939.5 105 c 128,-1,30
 838 2 838 2 655 -17 c 1,31,-1
 655 -208 l 1,32,-1
 507 -208 l 1,33,-1
 507 -17 l 1,34,35
 321 0 321 0 215.5 115.5 c 128,-1,36
 110 231 110 231 110 429 c 1,37,-1
 295 429 l 1,38,39
 295 290 295 290 368 215 c 128,-1,40
 441 140 441 140 575 140 c 0,41,42
 706 140 706 140 781 203 c 128,-1,43
 856 266 856 266 856 375 c 0,0,1
EndSplineSet
EndChar

StartChar: percent
Encoding: 37 37 9
Width: 1500
Flags: W
LayerCount: 2
Fore
SplineSet
105 1176 m 2,0,1
 105 1307 105 1307 188.5 1392 c 128,-1,2
 272 1477 272 1477 403 1477 c 0,3,4
 536 1477 536 1477 618.5 1391.5 c 128,-1,5
 701 1306 701 1306 701 1170 c 2,6,-1
 701 1099 l 2,7,8
 701 967 701 967 617.5 883.5 c 128,-1,9
 534 800 534 800 405 800 c 0,10,11
 275 800 275 800 190 883.5 c 128,-1,12
 105 967 105 967 105 1106 c 2,13,-1
 105 1176 l 2,0,1
243 1099 m 2,14,15
 243 1021 243 1021 287 970.5 c 128,-1,16
 331 920 331 920 405 920 c 0,17,18
 476 920 476 920 519.5 969 c 128,-1,19
 563 1018 563 1018 563 1103 c 2,20,-1
 563 1176 l 2,21,22
 563 1254 563 1254 520 1305 c 128,-1,23
 477 1356 477 1356 403 1356 c 128,-1,24
 329 1356 329 1356 286 1305 c 128,-1,25
 243 1254 243 1254 243 1172 c 2,26,-1
 243 1099 l 2,14,15
814 357 m 2,27,28
 814 488 814 488 897.5 572.5 c 128,-1,29
 981 657 981 657 1112 657 c 128,-1,30
 1243 657 1243 657 1327 573 c 128,-1,31
 1411 489 1411 489 1411 350 c 2,32,-1
 1411 279 l 2,33,34
 1411 148 1411 148 1327.5 63.5 c 128,-1,35
 1244 -21 1244 -21 1114 -21 c 128,-1,36
 984 -21 984 -21 899 62.5 c 128,-1,37
 814 146 814 146 814 285 c 2,38,-1
 814 357 l 2,27,28
952 279 m 2,39,40
 952 200 952 200 996 149.5 c 128,-1,41
 1040 99 1040 99 1114 99 c 0,42,43
 1186 99 1186 99 1229 148.5 c 128,-1,44
 1272 198 1272 198 1272 283 c 2,45,-1
 1272 357 l 2,46,47
 1272 436 1272 436 1228.5 486 c 128,-1,48
 1185 536 1185 536 1112 536 c 0,49,50
 1041 536 1041 536 996.5 486.5 c 128,-1,51
 952 437 952 437 952 353 c 2,52,-1
 952 279 l 2,39,40
447 110 m 1,53,-1
 342 176 l 1,54,-1
 1053 1314 l 1,55,-1
 1158 1248 l 1,56,-1
 447 110 l 1,53,-1
EndSplineSet
EndChar

StartChar: ampersand
Encoding: 38 38 10
Width: 1273
Flags: W
LayerCount: 2
Fore
SplineSet
101 391 m 0,0,1
 101 496 101 496 159.5 584 c 128,-1,2
 218 672 218 672 383 789 c 1,3,4
 286 907 286 907 253 979 c 128,-1,5
 220 1051 220 1051 220 1122 c 0,6,7
 220 1288 220 1288 318 1382 c 128,-1,8
 416 1476 416 1476 584 1476 c 0,9,10
 734 1476 734 1476 832 1388.5 c 128,-1,11
 930 1301 930 1301 930 1168 c 0,12,13
 930 1080 930 1080 885.5 1005.5 c 128,-1,14
 841 931 841 931 730 849 c 2,15,-1
 623 770 l 1,16,-1
 947 383 l 1,17,18
 1015 513 1015 513 1015 672 c 1,19,-1
 1182 672 l 1,20,21
 1182 417 1182 417 1059 249 c 1,22,-1
 1267 0 l 1,23,-1
 1045 0 l 1,24,-1
 948 115 l 1,25,26
 874 49 874 49 774.5 14.5 c 128,-1,27
 675 -20 675 -20 572 -20 c 0,28,29
 359 -20 359 -20 230 93 c 128,-1,30
 101 206 101 206 101 391 c 0,0,1
572 131 m 0,31,32
 719 131 719 131 841 243 c 1,33,-1
 486 668 l 1,34,-1
 453 644 l 2,35,36
 286 521 286 521 286 391 c 0,37,38
 286 273 286 273 362.5 202 c 128,-1,39
 439 131 439 131 572 131 c 0,31,32
405 1128 m 0,40,41
 405 1032 405 1032 523 888 c 1,42,-1
 641 971 l 2,43,44
 709 1019 709 1019 734 1062.5 c 128,-1,45
 759 1106 759 1106 759 1168 c 0,46,47
 759 1235 759 1235 709 1279.5 c 128,-1,48
 659 1324 659 1324 583 1324 c 0,49,50
 501 1324 501 1324 453 1268.5 c 128,-1,51
 405 1213 405 1213 405 1128 c 0,40,41
EndSplineSet
EndChar

StartChar: quotesingle
Encoding: 39 39 11
Width: 357
Flags: W
LayerCount: 2
Fore
SplineSet
253 1425 m 1,0,-1
 232 1057 l 1,1,-1
 103 1057 l 1,2,-1
 104 1536 l 1,3,-1
 253 1536 l 1,4,-1
 253 1425 l 1,0,-1
EndSplineSet
EndChar

StartChar: parenleft
Encoding: 40 40 12
Width: 700
Flags: W
LayerCount: 2
Fore
SplineSet
133 591 m 0,0,1
 133 817 133 817 193.5 1025 c 128,-1,2
 254 1233 254 1233 374 1403 c 128,-1,3
 494 1573 494 1573 623 1643 c 1,4,-1
 661 1521 l 1,5,6
 515 1409 515 1409 421.5 1179 c 128,-1,7
 328 949 328 949 319 664 c 1,8,-1
 318 579 l 1,9,10
 318 193 318 193 459 -91 c 0,11,12
 544 -261 544 -261 661 -357 c 1,13,-1
 623 -470 l 1,14,15
 490 -396 490 -396 369 -222 c 0,16,17
 133 118 133 118 133 591 c 0,0,1
EndSplineSet
EndChar

StartChar: parenright
Encoding: 41 41 13
Width: 712
Flags: W
LayerCount: 2
Fore
SplineSet
567 581 m 0,0,1
 567 358 567 358 508.5 153.5 c 128,-1,2
 450 -51 450 -51 329.5 -224 c 128,-1,3
 209 -397 209 -397 77 -470 c 1,4,-1
 38 -357 l 1,5,6
 192 -239 192 -239 285.5 9.5 c 128,-1,7
 379 258 379 258 381 561 c 2,8,-1
 381 593 l 2,9,10
 381 803 381 803 337 983.5 c 128,-1,11
 293 1164 293 1164 214.5 1307 c 128,-1,12
 136 1450 136 1450 38 1530 c 1,13,-1
 77 1643 l 1,14,15
 209 1570 209 1570 328.5 1399 c 128,-1,16
 448 1228 448 1228 507.5 1022 c 128,-1,17
 567 816 567 816 567 581 c 0,0,1
EndSplineSet
EndChar

StartChar: asterisk
Encoding: 42 42 14
Width: 882
Flags: W
LayerCount: 2
Fore
SplineSet
330 983 m 1,0,-1
 28 1073 l 1,1,-1
 74 1224 l 1,2,-1
 376 1112 l 1,3,-1
 367 1456 l 1,4,-1
 520 1456 l 1,5,-1
 510 1107 l 1,6,-1
 807 1217 l 1,7,-1
 853 1065 l 1,8,-1
 546 974 l 1,9,-1
 744 703 l 1,10,-1
 620 609 l 1,11,-1
 434 897 l 1,12,-1
 254 616 l 1,13,-1
 129 707 l 1,14,-1
 330 983 l 1,0,-1
EndSplineSet
EndChar

StartChar: plus
Encoding: 43 43 15
Width: 1161
Flags: W
LayerCount: 2
Fore
SplineSet
670 781 m 1,0,-1
 1076 781 l 1,1,-1
 1076 606 l 1,2,-1
 670 606 l 1,3,-1
 670 146 l 1,4,-1
 484 146 l 1,5,-1
 484 606 l 1,6,-1
 78 606 l 1,7,-1
 78 781 l 1,8,-1
 484 781 l 1,9,-1
 484 1206 l 1,10,-1
 670 1206 l 1,11,-1
 670 781 l 1,0,-1
EndSplineSet
EndChar

StartChar: comma
Encoding: 44 44 16
Width: 402
Flags: W
LayerCount: 2
Fore
SplineSet
134 -290 m 1,0,-1
 29 -218 l 1,1,2
 123 -87 123 -87 127 52 c 1,3,-1
 127 219 l 1,4,-1
 308 219 l 1,5,-1
 308 74 l 2,6,7
 308 -27 308 -27 258.5 -128 c 128,-1,8
 209 -229 209 -229 134 -290 c 1,0,-1
EndSplineSet
EndChar

StartChar: hyphen
Encoding: 45 45 17
Width: 565
Flags: W
LayerCount: 2
Fore
SplineSet
525 543 m 1,0,-1
 37 543 l 1,1,-1
 37 694 l 1,2,-1
 525 694 l 1,3,-1
 525 543 l 1,0,-1
EndSplineSet
EndChar

StartChar: period
Encoding: 46 46 18
Width: 539
Flags: W
LayerCount: 2
Fore
SplineSet
144 97 m 0,0,1
 144 145 144 145 172.5 177 c 128,-1,2
 201 209 201 209 258 209 c 128,-1,3
 315 209 315 209 344.5 177 c 128,-1,4
 374 145 374 145 374 97 c 0,5,6
 374 51 374 51 344.5 20 c 128,-1,7
 315 -11 315 -11 258 -11 c 128,-1,8
 201 -11 201 -11 172.5 20 c 128,-1,9
 144 51 144 51 144 97 c 0,0,1
EndSplineSet
EndChar

StartChar: slash
Encoding: 47 47 19
Width: 844
Flags: W
LayerCount: 2
Fore
SplineSet
177 -125 m 1,0,-1
 18 -125 l 1,1,-1
 626 1456 l 1,2,-1
 784 1456 l 1,3,-1
 177 -125 l 1,0,-1
EndSplineSet
Substitution2: "'frac' Diagonal Fractions lookup 3 subtable" fraction
EndChar

StartChar: zero
Encoding: 48 48 20
Width: 1150
Flags: W
LayerCount: 2
Fore
SplineSet
1034 621 m 2,0,1
 1034 296 1034 296 923 138 c 128,-1,2
 812 -20 812 -20 576 -20 c 0,3,4
 343 -20 343 -20 231 134.5 c 128,-1,5
 119 289 119 289 115 596 c 1,6,-1
 115 843 l 2,7,8
 115 1164 115 1164 226 1320 c 128,-1,9
 337 1476 337 1476 574 1476 c 0,10,11
 809 1476 809 1476 920 1325.5 c 128,-1,12
 1031 1175 1031 1175 1034 861 c 2,13,-1
 1034 621 l 2,0,1
849 874 m 2,14,15
 849 1109 849 1109 783 1216.5 c 128,-1,16
 717 1324 717 1324 574 1324 c 0,17,18
 432 1324 432 1324 367 1217 c 128,-1,19
 302 1110 302 1110 300 888 c 2,20,-1
 300 592 l 2,21,22
 300 356 300 356 368.5 243.5 c 128,-1,23
 437 131 437 131 576 131 c 0,24,25
 713 131 713 131 779.5 237 c 128,-1,26
 846 343 846 343 849 571 c 2,27,-1
 849 874 l 2,14,15
EndSplineSet
Substitution2: "'numr' Numerators lookup 6 subtable" zero.numr
Substitution2: "'dnom' Denominators lookup 5 subtable" zero.dnom
EndChar

StartChar: one
Encoding: 49 49 21
Width: 1150
Flags: W
LayerCount: 2
Fore
SplineSet
729 0 m 1,0,-1
 543 0 l 1,1,-1
 543 1233 l 1,2,-1
 170 1096 l 1,3,-1
 170 1264 l 1,4,-1
 700 1463 l 1,5,-1
 729 1463 l 1,6,-1
 729 0 l 1,0,-1
EndSplineSet
Substitution2: "'numr' Numerators lookup 6 subtable" uni00B9
Substitution2: "'dnom' Denominators lookup 5 subtable" one.dnom
EndChar

StartChar: two
Encoding: 50 50 22
Width: 1150
Flags: W
LayerCount: 2
Fore
SplineSet
1075 0 m 1,0,-1
 121 0 l 1,1,-1
 121 133 l 1,2,-1
 625 693 l 2,3,4
 737 820 737 820 779.5 899.5 c 128,-1,5
 822 979 822 979 822 1064 c 0,6,7
 822 1178 822 1178 753 1251 c 128,-1,8
 684 1324 684 1324 569 1324 c 0,9,10
 431 1324 431 1324 354.5 1245.5 c 128,-1,11
 278 1167 278 1167 278 1027 c 1,12,-1
 93 1027 l 1,13,14
 93 1228 93 1228 222.5 1352 c 128,-1,15
 352 1476 352 1476 569 1476 c 0,16,17
 772 1476 772 1476 890 1369.5 c 128,-1,18
 1008 1263 1008 1263 1008 1086 c 0,19,20
 1008 871 1008 871 734 574 c 2,21,-1
 344 151 l 1,22,-1
 1075 151 l 1,23,-1
 1075 0 l 1,0,-1
EndSplineSet
Substitution2: "'numr' Numerators lookup 6 subtable" uni00B2
Substitution2: "'dnom' Denominators lookup 5 subtable" two.dnom
EndChar

StartChar: three
Encoding: 51 51 23
Width: 1150
Flags: W
LayerCount: 2
Fore
SplineSet
390 818 m 1,0,-1
 529 818 l 2,1,2
 660 820 660 820 735 887 c 128,-1,3
 810 954 810 954 810 1068 c 0,4,5
 810 1324 810 1324 555 1324 c 0,6,7
 435 1324 435 1324 363.5 1255.5 c 128,-1,8
 292 1187 292 1187 292 1074 c 1,9,-1
 107 1074 l 1,10,11
 107 1247 107 1247 233.5 1361.5 c 128,-1,12
 360 1476 360 1476 555 1476 c 0,13,14
 761 1476 761 1476 878 1367 c 128,-1,15
 995 1258 995 1258 995 1064 c 0,16,17
 995 969 995 969 933.5 880 c 128,-1,18
 872 791 872 791 766 747 c 1,19,20
 886 709 886 709 951.5 621 c 128,-1,21
 1017 533 1017 533 1017 406 c 0,22,23
 1017 210 1017 210 889 95 c 128,-1,24
 761 -20 761 -20 556 -20 c 128,-1,25
 351 -20 351 -20 222.5 91 c 128,-1,26
 94 202 94 202 94 384 c 1,27,-1
 280 384 l 1,28,29
 280 269 280 269 355 200 c 128,-1,30
 430 131 430 131 556 131 c 0,31,32
 690 131 690 131 761 201 c 128,-1,33
 832 271 832 271 832 402 c 0,34,35
 832 529 832 529 754 597 c 128,-1,36
 676 665 676 665 529 667 c 2,37,-1
 390 667 l 1,38,-1
 390 818 l 1,0,-1
EndSplineSet
Substitution2: "'numr' Numerators lookup 6 subtable" uni00B3
Substitution2: "'dnom' Denominators lookup 5 subtable" three.dnom
EndChar

StartChar: four
Encoding: 52 52 24
Width: 1150
Flags: W
LayerCount: 2
Fore
SplineSet
902 489 m 1,0,-1
 1104 489 l 1,1,-1
 1104 338 l 1,2,-1
 902 338 l 1,3,-1
 902 0 l 1,4,-1
 716 0 l 1,5,-1
 716 338 l 1,6,-1
 53 338 l 1,7,-1
 53 447 l 1,8,-1
 705 1456 l 1,9,-1
 902 1456 l 1,10,-1
 902 489 l 1,0,-1
263 489 m 1,11,-1
 716 489 l 1,12,-1
 716 1203 l 1,13,-1
 694 1163 l 1,14,-1
 263 489 l 1,11,-1
EndSplineSet
Substitution2: "'numr' Numerators lookup 6 subtable" four.numr
Substitution2: "'dnom' Denominators lookup 5 subtable" four.dnom
EndChar

StartChar: five
Encoding: 53 53 25
Width: 1150
Flags: W
LayerCount: 2
Fore
SplineSet
206 730 m 1,0,-1
 280 1456 l 1,1,-1
 1026 1456 l 1,2,-1
 1026 1285 l 1,3,-1
 437 1285 l 1,4,-1
 393 888 l 1,5,6
 500 951 500 951 636 951 c 0,7,8
 835 951 835 951 952 819.5 c 128,-1,9
 1069 688 1069 688 1069 464 c 0,10,11
 1069 239 1069 239 947.5 109.5 c 128,-1,12
 826 -20 826 -20 608 -20 c 0,13,14
 415 -20 415 -20 293 87 c 128,-1,15
 171 194 171 194 154 383 c 1,16,-1
 329 383 l 1,17,18
 346 258 346 258 418 194.5 c 128,-1,19
 490 131 490 131 608 131 c 0,20,21
 737 131 737 131 810.5 219 c 128,-1,22
 884 307 884 307 884 462 c 0,23,24
 884 608 884 608 804.5 696.5 c 128,-1,25
 725 785 725 785 593 785 c 0,26,27
 472 785 472 785 403 732 c 2,28,-1
 354 692 l 1,29,-1
 206 730 l 1,0,-1
EndSplineSet
Substitution2: "'numr' Numerators lookup 6 subtable" five.numr
Substitution2: "'dnom' Denominators lookup 5 subtable" five.dnom
EndChar

StartChar: six
Encoding: 54 54 26
Width: 1150
Flags: W
LayerCount: 2
Fore
SplineSet
847 1457 m 1,0,-1
 847 1300 l 1,1,-1
 813 1300 l 1,2,3
 597 1296 597 1296 469 1172 c 128,-1,4
 341 1048 341 1048 321 823 c 1,5,6
 436 955 436 955 635 955 c 0,7,8
 825 955 825 955 938.5 821 c 128,-1,9
 1052 687 1052 687 1052 475 c 0,10,11
 1052 250 1052 250 929.5 115 c 128,-1,12
 807 -20 807 -20 601 -20 c 0,13,14
 392 -20 392 -20 262 140.5 c 128,-1,15
 132 301 132 301 132 554 c 2,16,-1
 132 625 l 2,17,18
 132 1027 132 1027 303.5 1239.5 c 128,-1,19
 475 1452 475 1452 814 1457 c 1,20,-1
 847 1457 l 1,0,-1
604 801 m 0,21,22
 509 801 509 801 429 744 c 128,-1,23
 349 687 349 687 318 601 c 1,24,-1
 318 533 l 2,25,26
 318 353 318 353 399 243 c 128,-1,27
 480 133 480 133 601 133 c 0,28,29
 726 133 726 133 797.5 225 c 128,-1,30
 869 317 869 317 869 466 c 0,31,32
 869 616 869 616 796.5 708.5 c 128,-1,33
 724 801 724 801 604 801 c 0,21,22
EndSplineSet
Substitution2: "'numr' Numerators lookup 6 subtable" six.numr
Substitution2: "'dnom' Denominators lookup 5 subtable" six.dnom
EndChar

StartChar: seven
Encoding: 55 55 27
Width: 1150
Flags: W
LayerCount: 2
Fore
SplineSet
1061 1352 m 1,0,-1
 458 0 l 1,1,-1
 264 0 l 1,2,-1
 865 1304 l 1,3,-1
 77 1304 l 1,4,-1
 77 1456 l 1,5,-1
 1061 1456 l 1,6,-1
 1061 1352 l 1,0,-1
EndSplineSet
Substitution2: "'numr' Numerators lookup 6 subtable" seven.numr
Substitution2: "'dnom' Denominators lookup 5 subtable" seven.dnom
EndChar

StartChar: eight
Encoding: 56 56 28
Width: 1150
Flags: W
LayerCount: 2
Fore
SplineSet
1004 1076 m 0,0,1
 1004 967 1004 967 946.5 882 c 128,-1,2
 889 797 889 797 791 749 c 1,3,4
 905 700 905 700 971.5 606 c 128,-1,5
 1038 512 1038 512 1038 393 c 0,6,7
 1038 204 1038 204 910.5 92 c 128,-1,8
 783 -20 783 -20 575 -20 c 0,9,10
 365 -20 365 -20 238.5 92.5 c 128,-1,11
 112 205 112 205 112 393 c 0,12,13
 112 511 112 511 176.5 606 c 128,-1,14
 241 701 241 701 355 750 c 1,15,16
 258 798 258 798 202 883 c 128,-1,17
 146 968 146 968 146 1076 c 0,18,19
 146 1260 146 1260 264 1368 c 128,-1,20
 382 1476 382 1476 575 1476 c 0,21,22
 767 1476 767 1476 885.5 1368 c 128,-1,23
 1004 1260 1004 1260 1004 1076 c 0,0,1
853 397 m 0,24,25
 853 519 853 519 775.5 596 c 128,-1,26
 698 673 698 673 573 673 c 128,-1,27
 448 673 448 673 372.5 597 c 128,-1,28
 297 521 297 521 297 397 c 128,-1,29
 297 273 297 273 370.5 202 c 128,-1,30
 444 131 444 131 575 131 c 0,31,32
 705 131 705 131 779 202.5 c 128,-1,33
 853 274 853 274 853 397 c 0,24,25
575 1324 m 0,34,35
 466 1324 466 1324 398.5 1256.5 c 128,-1,36
 331 1189 331 1189 331 1073 c 0,37,38
 331 962 331 962 397.5 893.5 c 128,-1,39
 464 825 464 825 575 825 c 128,-1,40
 686 825 686 825 752.5 893.5 c 128,-1,41
 819 962 819 962 819 1073 c 128,-1,42
 819 1184 819 1184 750 1254 c 128,-1,43
 681 1324 681 1324 575 1324 c 0,34,35
EndSplineSet
Substitution2: "'numr' Numerators lookup 6 subtable" eight.numr
Substitution2: "'dnom' Denominators lookup 5 subtable" eight.dnom
EndChar

StartChar: nine
Encoding: 57 57 29
Width: 1150
Flags: W
LayerCount: 2
Fore
SplineSet
830 640 m 1,0,1
 772 571 772 571 691.5 529 c 128,-1,2
 611 487 611 487 515 487 c 0,3,4
 389 487 389 487 295.5 549 c 128,-1,5
 202 611 202 611 151 723.5 c 128,-1,6
 100 836 100 836 100 972 c 0,7,8
 100 1118 100 1118 155.5 1235 c 128,-1,9
 211 1352 211 1352 313 1414 c 128,-1,10
 415 1476 415 1476 551 1476 c 0,11,12
 767 1476 767 1476 891.5 1314.5 c 128,-1,13
 1016 1153 1016 1153 1016 874 c 2,14,-1
 1016 820 l 2,15,16
 1016 395 1016 395 848 199.5 c 128,-1,17
 680 4 680 4 341 -1 c 1,18,-1
 305 -1 l 1,19,-1
 305 155 l 1,20,-1
 344 155 l 1,21,22
 573 159 573 159 696 274.5 c 128,-1,23
 819 390 819 390 830 640 c 1,0,1
545 640 m 0,24,25
 638 640 638 640 716.5 697 c 128,-1,26
 795 754 795 754 831 838 c 1,27,-1
 831 912 l 2,28,29
 831 1094 831 1094 752 1208 c 128,-1,30
 673 1322 673 1322 552 1322 c 0,31,32
 430 1322 430 1322 356 1228.5 c 128,-1,33
 282 1135 282 1135 282 982 c 0,34,35
 282 833 282 833 353.5 736.5 c 128,-1,36
 425 640 425 640 545 640 c 0,24,25
EndSplineSet
Substitution2: "'numr' Numerators lookup 6 subtable" nine.numr
Substitution2: "'dnom' Denominators lookup 5 subtable" nine.dnom
EndChar

StartChar: less
Encoding: 60 60 32
Width: 1041
Flags: W
LayerCount: 2
Fore
SplineSet
264 644 m 1,0,-1
 890 391 l 1,1,-1
 890 195 l 1,2,-1
 72 574 l 1,3,-1
 72 720 l 1,4,-1
 890 1098 l 1,5,-1
 890 902 l 1,6,-1
 264 644 l 1,0,-1
EndSplineSet
EndChar

StartChar: equal
Encoding: 61 61 33
Width: 1124
Flags: W
LayerCount: 2
Fore
SplineSet
986 814 m 1,0,-1
 152 814 l 1,1,-1
 152 975 l 1,2,-1
 986 975 l 1,3,-1
 986 814 l 1,0,-1
986 399 m 1,4,-1
 152 399 l 1,5,-1
 152 559 l 1,6,-1
 986 559 l 1,7,-1
 986 399 l 1,4,-1
EndSplineSet
EndChar

StartChar: greater
Encoding: 62 62 34
Width: 1070
Flags: W
LayerCount: 2
Fore
SplineSet
795 650 m 1,0,-1
 134 909 l 1,1,-1
 134 1099 l 1,2,-1
 988 721 l 1,3,-1
 988 575 l 1,4,-1
 134 196 l 1,5,-1
 134 388 l 1,6,-1
 795 650 l 1,0,-1
EndSplineSet
EndChar

StartChar: question
Encoding: 63 63 35
Width: 967
Flags: W
LayerCount: 2
Fore
SplineSet
357 410 m 1,0,1
 359 529 359 529 384 598 c 128,-1,2
 409 667 409 667 486 751 c 2,3,-1
 617 886 l 1,4,5
 701 981 701 981 701 1090 c 0,6,7
 701 1195 701 1195 646 1254.5 c 128,-1,8
 591 1314 591 1314 486 1314 c 0,9,10
 384 1314 384 1314 322 1260 c 128,-1,11
 260 1206 260 1206 260 1115 c 1,12,-1
 75 1115 l 1,13,14
 77 1277 77 1277 190.5 1376.5 c 128,-1,15
 304 1476 304 1476 486 1476 c 0,16,17
 675 1476 675 1476 780.5 1374.5 c 128,-1,18
 886 1273 886 1273 886 1096 c 0,19,20
 886 921 886 921 724 751 c 1,21,-1
 615 643 l 1,22,23
 542 562 542 562 542 410 c 1,24,-1
 357 410 l 1,0,1
349 93 m 256,25,26
 349 138 349 138 376.5 168.5 c 128,-1,27
 404 199 404 199 458 199 c 128,-1,28
 512 199 512 199 540 168.5 c 128,-1,29
 568 138 568 138 568 93 c 128,-1,30
 568 48 568 48 540 18.5 c 128,-1,31
 512 -11 512 -11 458 -11 c 128,-1,32
 404 -11 404 -11 376.5 18.5 c 128,-1,33
 349 48 349 48 349 93 c 256,25,26
EndSplineSet
EndChar

StartChar: at
Encoding: 64 64 36
Width: 1839
Flags: W
LayerCount: 2
Fore
SplineSet
1738 502 m 0,0,1
 1726 260 1726 260 1618 120 c 128,-1,2
 1510 -20 1510 -20 1329 -20 c 0,3,4
 1142 -20 1142 -20 1089 148 c 1,5,6
 1035 63 1035 63 965.5 21.5 c 128,-1,7
 896 -20 896 -20 822 -20 c 0,8,9
 680 -20 680 -20 607 96 c 128,-1,10
 534 212 534 212 553 417 c 0,11,12
 568 582 568 582 628.5 711.5 c 128,-1,13
 689 841 689 841 784.5 915 c 128,-1,14
 880 989 880 989 985 989 c 0,15,16
 1066 989 1066 989 1130 967.5 c 128,-1,17
 1194 946 1194 946 1274 883 c 1,18,-1
 1222 329 l 2,19,20
 1203 98 1203 98 1350 98 c 0,21,22
 1463 98 1463 98 1533 210 c 128,-1,23
 1603 322 1603 322 1609 502 c 0,24,25
 1628 891 1628 891 1464.5 1095 c 128,-1,26
 1301 1299 1301 1299 967 1299 c 0,27,28
 766 1299 766 1299 610 1199.5 c 128,-1,29
 454 1100 454 1100 364 912 c 128,-1,30
 274 724 274 724 263 478 c 0,31,32
 251 230 251 230 323 47.5 c 128,-1,33
 395 -135 395 -135 542.5 -231.5 c 128,-1,34
 690 -328 690 -328 899 -328 c 0,35,36
 989 -328 989 -328 1079.5 -306 c 128,-1,37
 1170 -284 1170 -284 1230 -249 c 1,38,-1
 1267 -364 l 1,39,40
 1205 -403 1205 -403 1102.5 -428 c 128,-1,41
 1000 -453 1000 -453 895 -453 c 0,42,43
 645 -453 645 -453 465 -340.5 c 128,-1,44
 285 -228 285 -228 195.5 -16.5 c 128,-1,45
 106 195 106 195 118 478 c 0,46,47
 130 753 130 753 241 972.5 c 128,-1,48
 352 1192 352 1192 542 1311.5 c 128,-1,49
 732 1431 732 1431 971 1431 c 0,50,51
 1220 1431 1220 1431 1398 1319 c 128,-1,52
 1576 1207 1576 1207 1663 996 c 128,-1,53
 1750 785 1750 785 1738 502 c 0,0,1
712 417 m 0,54,55
 698 275 698 275 738.5 199 c 128,-1,56
 779 123 779 123 867 123 c 0,57,58
 927 123 927 123 982.5 174 c 128,-1,59
 1038 225 1038 225 1074 320 c 1,60,-1
 1075 329 l 1,61,-1
 1121 832 l 1,62,63
 1065 861 1065 861 1001 861 c 0,64,65
 884 861 884 861 807.5 742 c 128,-1,66
 731 623 731 623 712 417 c 0,54,55
EndSplineSet
EndChar

StartChar: A
Encoding: 65 65 37
Width: 1336
GlyphClass: 2
Flags: W
LayerCount: 2
Fore
SplineSet
973 380 m 1,0,-1
 363 380 l 1,1,-1
 226 0 l 1,2,-1
 28 0 l 1,3,-1
 584 1456 l 1,4,-1
 752 1456 l 1,5,-1
 1309 0 l 1,6,-1
 1112 0 l 1,7,-1
 973 380 l 1,0,-1
421 538 m 1,8,-1
 916 538 l 1,9,-1
 668 1219 l 1,10,-1
 421 538 l 1,8,-1
EndSplineSet
EndChar

StartChar: B
Encoding: 66 66 38
Width: 1275
GlyphClass: 2
Flags: W
LayerCount: 2
Fore
SplineSet
169 0 m 1,0,-1
 169 1456 l 1,1,-1
 645 1456 l 2,2,3
 882 1456 882 1456 1001.5 1358 c 128,-1,4
 1121 1260 1121 1260 1121 1068 c 0,5,6
 1121 966 1121 966 1063 887.5 c 128,-1,7
 1005 809 1005 809 905 766 c 1,8,9
 1023 733 1023 733 1091.5 640.5 c 128,-1,10
 1160 548 1160 548 1160 420 c 0,11,12
 1160 224 1160 224 1033 112 c 128,-1,13
 906 0 906 0 674 0 c 2,14,-1
 169 0 l 1,0,-1
361 681 m 1,15,-1
 361 157 l 1,16,-1
 678 157 l 2,17,18
 812 157 812 157 889.5 226.5 c 128,-1,19
 967 296 967 296 967 418 c 0,20,21
 967 681 967 681 681 681 c 2,22,-1
 361 681 l 1,15,-1
361 835 m 1,23,-1
 651 835 l 2,24,25
 777 835 777 835 852.5 898 c 128,-1,26
 928 961 928 961 928 1069 c 0,27,28
 928 1189 928 1189 858 1243.5 c 128,-1,29
 788 1298 788 1298 645 1298 c 2,30,-1
 361 1298 l 1,31,-1
 361 835 l 1,23,-1
EndSplineSet
EndChar

StartChar: C
Encoding: 67 67 39
Width: 1333
GlyphClass: 2
Flags: W
LayerCount: 2
Fore
SplineSet
1240 462 m 1,0,1
 1213 231 1213 231 1069.5 105.5 c 128,-1,2
 926 -20 926 -20 688 -20 c 0,3,4
 430 -20 430 -20 274.5 165 c 128,-1,5
 119 350 119 350 119 660 c 2,6,-1
 119 800 l 2,7,8
 119 1003 119 1003 191.5 1157 c 128,-1,9
 264 1311 264 1311 397 1393.5 c 128,-1,10
 530 1476 530 1476 705 1476 c 0,11,12
 937 1476 937 1476 1077 1346.5 c 128,-1,13
 1217 1217 1217 1217 1240 988 c 1,14,-1
 1047 988 l 1,15,16
 1022 1162 1022 1162 938.5 1240 c 128,-1,17
 855 1318 855 1318 705 1318 c 0,18,19
 521 1318 521 1318 416.5 1182 c 128,-1,20
 312 1046 312 1046 312 795 c 2,21,-1
 312 654 l 2,22,23
 312 417 312 417 411 277 c 128,-1,24
 510 137 510 137 688 137 c 0,25,26
 848 137 848 137 933.5 209.5 c 128,-1,27
 1019 282 1019 282 1047 462 c 1,28,-1
 1240 462 l 1,0,1
EndSplineSet
EndChar

StartChar: D
Encoding: 68 68 40
Width: 1343
GlyphClass: 2
Flags: W
LayerCount: 2
Fore
SplineSet
169 0 m 1,0,-1
 169 1456 l 1,1,-1
 580 1456 l 2,2,3
 770 1456 770 1456 916 1372 c 128,-1,4
 1062 1288 1062 1288 1141.5 1133 c 128,-1,5
 1221 978 1221 978 1222 777 c 2,6,-1
 1222 684 l 2,7,8
 1222 478 1222 478 1142.5 323 c 128,-1,9
 1063 168 1063 168 915.5 85 c 128,-1,10
 768 2 768 2 572 0 c 2,11,-1
 169 0 l 1,0,-1
361 1298 m 1,12,-1
 361 157 l 1,13,-1
 563 157 l 2,14,15
 785 157 785 157 908.5 295 c 128,-1,16
 1032 433 1032 433 1032 688 c 2,17,-1
 1032 773 l 2,18,19
 1032 1021 1032 1021 915.5 1158.5 c 128,-1,20
 799 1296 799 1296 585 1298 c 2,21,-1
 361 1298 l 1,12,-1
EndSplineSet
EndChar

StartChar: E
Encoding: 69 69 41
Width: 1164
GlyphClass: 2
Flags: W
LayerCount: 2
Fore
SplineSet
992 673 m 1,0,-1
 361 673 l 1,1,-1
 361 157 l 1,2,-1
 1094 157 l 1,3,-1
 1094 0 l 1,4,-1
 169 0 l 1,5,-1
 169 1456 l 1,6,-1
 1084 1456 l 1,7,-1
 1084 1298 l 1,8,-1
 361 1298 l 1,9,-1
 361 830 l 1,10,-1
 992 830 l 1,11,-1
 992 673 l 1,0,-1
EndSplineSet
EndChar

StartChar: F
Encoding: 70 70 42
Width: 1132
GlyphClass: 2
Flags: W
LayerCount: 2
Fore
SplineSet
972 643 m 1,0,-1
 361 643 l 1,1,-1
 361 0 l 1,2,-1
 169 0 l 1,3,-1
 169 1456 l 1,4,-1
 1071 1456 l 1,5,-1
 1071 1298 l 1,6,-1
 361 1298 l 1,7,-1
 361 800 l 1,8,-1
 972 800 l 1,9,-1
 972 643 l 1,0,-1
EndSplineSet
EndChar

StartChar: G
Encoding: 71 71 43
Width: 1395
GlyphClass: 2
Flags: W
LayerCount: 2
Fore
SplineSet
1244 191 m 1,0,1
 1170 85 1170 85 1037.5 32.5 c 128,-1,2
 905 -20 905 -20 729 -20 c 0,3,4
 551 -20 551 -20 413 63.5 c 128,-1,5
 275 147 275 147 199.5 301 c 128,-1,6
 124 455 124 455 122 658 c 2,7,-1
 122 785 l 2,8,9
 122 1114 122 1114 275.5 1295 c 128,-1,10
 429 1476 429 1476 707 1476 c 0,11,12
 935 1476 935 1476 1074 1359.5 c 128,-1,13
 1213 1243 1213 1243 1244 1029 c 1,14,-1
 1052 1029 l 1,15,16
 998 1318 998 1318 708 1318 c 0,17,18
 515 1318 515 1318 415.5 1182.5 c 128,-1,19
 316 1047 316 1047 315 790 c 2,20,-1
 315 671 l 2,21,22
 315 426 315 426 427 281.5 c 128,-1,23
 539 137 539 137 730 137 c 0,24,25
 838 137 838 137 919 161 c 128,-1,26
 1000 185 1000 185 1053 242 c 1,27,-1
 1053 569 l 1,28,-1
 716 569 l 1,29,-1
 716 725 l 1,30,-1
 1244 725 l 1,31,-1
 1244 191 l 1,0,1
EndSplineSet
EndChar

StartChar: H
Encoding: 72 72 44
Width: 1460
GlyphClass: 2
Flags: W
LayerCount: 2
Fore
SplineSet
1288 0 m 1,0,-1
 1095 0 l 1,1,-1
 1095 673 l 1,2,-1
 361 673 l 1,3,-1
 361 0 l 1,4,-1
 169 0 l 1,5,-1
 169 1456 l 1,6,-1
 361 1456 l 1,7,-1
 361 830 l 1,8,-1
 1095 830 l 1,9,-1
 1095 1456 l 1,10,-1
 1288 1456 l 1,11,-1
 1288 0 l 1,0,-1
EndSplineSet
EndChar

StartChar: I
Encoding: 73 73 45
Width: 557
GlyphClass: 2
Flags: W
LayerCount: 2
Fore
SplineSet
375 0 m 1,0,-1
 183 0 l 1,1,-1
 183 1456 l 1,2,-1
 375 1456 l 1,3,-1
 375 0 l 1,0,-1
EndSplineSet
EndChar

StartChar: J
Encoding: 74 74 46
Width: 1130
GlyphClass: 2
Flags: W
LayerCount: 2
Fore
SplineSet
779 1456 m 1,0,-1
 972 1456 l 1,1,-1
 972 425 l 2,2,3
 972 216 972 216 846.5 98 c 128,-1,4
 721 -20 721 -20 512 -20 c 0,5,6
 295 -20 295 -20 174 91 c 128,-1,7
 53 202 53 202 53 402 c 1,8,-1
 245 402 l 1,9,10
 245 277 245 277 313.5 207 c 128,-1,11
 382 137 382 137 512 137 c 0,12,13
 631 137 631 137 704.5 212 c 128,-1,14
 778 287 778 287 779 422 c 2,15,-1
 779 1456 l 1,0,-1
EndSplineSet
EndChar

StartChar: K
Encoding: 75 75 47
Width: 1284
GlyphClass: 2
Flags: W
LayerCount: 2
Fore
SplineSet
539 677 m 1,0,-1
 361 492 l 1,1,-1
 361 0 l 1,2,-1
 169 0 l 1,3,-1
 169 1456 l 1,4,-1
 361 1456 l 1,5,-1
 361 736 l 1,6,-1
 1008 1456 l 1,7,-1
 1240 1456 l 1,8,-1
 667 813 l 1,9,-1
 1285 0 l 1,10,-1
 1055 0 l 1,11,-1
 539 677 l 1,0,-1
EndSplineSet
EndChar

StartChar: L
Encoding: 76 76 48
Width: 1102
GlyphClass: 2
Flags: W
LayerCount: 2
Fore
SplineSet
362 157 m 1,0,-1
 1052 157 l 1,1,-1
 1052 0 l 1,2,-1
 169 0 l 1,3,-1
 169 1456 l 1,4,-1
 362 1456 l 1,5,-1
 362 157 l 1,0,-1
EndSplineSet
EndChar

StartChar: M
Encoding: 77 77 49
Width: 1788
GlyphClass: 2
Flags: W
LayerCount: 2
Fore
SplineSet
417 1456 m 1,0,-1
 893 268 l 1,1,-1
 1369 1456 l 1,2,-1
 1618 1456 l 1,3,-1
 1618 0 l 1,4,-1
 1426 0 l 1,5,-1
 1426 567 l 1,6,-1
 1444 1179 l 1,7,-1
 966 0 l 1,8,-1
 819 0 l 1,9,-1
 342 1176 l 1,10,-1
 361 567 l 1,11,-1
 361 0 l 1,12,-1
 169 0 l 1,13,-1
 169 1456 l 1,14,-1
 417 1456 l 1,0,-1
EndSplineSet
EndChar

StartChar: N
Encoding: 78 78 50
Width: 1460
GlyphClass: 2
Flags: W
LayerCount: 2
Fore
SplineSet
1288 0 m 1,0,-1
 1095 0 l 1,1,-1
 362 1122 l 1,2,-1
 362 0 l 1,3,-1
 169 0 l 1,4,-1
 169 1456 l 1,5,-1
 362 1456 l 1,6,-1
 1097 329 l 1,7,-1
 1097 1456 l 1,8,-1
 1288 1456 l 1,9,-1
 1288 0 l 1,0,-1
EndSplineSet
EndChar

StartChar: O
Encoding: 79 79 51
Width: 1408
GlyphClass: 2
Flags: W
LayerCount: 2
Fore
SplineSet
1289 681 m 2,0,1
 1289 467 1289 467 1217 307.5 c 128,-1,2
 1145 148 1145 148 1013 64 c 128,-1,3
 881 -20 881 -20 705 -20 c 0,4,5
 533 -20 533 -20 400 64.5 c 128,-1,6
 267 149 267 149 193.5 305.5 c 128,-1,7
 120 462 120 462 118 668 c 2,8,-1
 118 773 l 2,9,10
 118 983 118 983 191 1144 c 128,-1,11
 264 1305 264 1305 397.5 1390.5 c 128,-1,12
 531 1476 531 1476 703 1476 c 0,13,14
 878 1476 878 1476 1011.5 1391.5 c 128,-1,15
 1145 1307 1145 1307 1217 1146.5 c 128,-1,16
 1289 986 1289 986 1289 773 c 2,17,-1
 1289 681 l 2,0,1
1098 775 m 2,18,19
 1098 1034 1098 1034 994 1172.5 c 128,-1,20
 890 1311 890 1311 703 1311 c 0,21,22
 521 1311 521 1311 416.5 1172.5 c 128,-1,23
 312 1034 312 1034 309 788 c 2,24,-1
 309 681 l 2,25,26
 309 430 309 430 414.5 286.5 c 128,-1,27
 520 143 520 143 705 143 c 0,28,29
 891 143 891 143 993 278.5 c 128,-1,30
 1095 414 1095 414 1098 667 c 2,31,-1
 1098 775 l 2,18,19
EndSplineSet
EndChar

StartChar: P
Encoding: 80 80 52
Width: 1292
GlyphClass: 2
Flags: W
LayerCount: 2
Fore
SplineSet
361 570 m 1,0,-1
 361 0 l 1,1,-1
 169 0 l 1,2,-1
 169 1456 l 1,3,-1
 706 1456 l 2,4,5
 945 1456 945 1456 1080.5 1334 c 128,-1,6
 1216 1212 1216 1212 1216 1011 c 0,7,8
 1216 799 1216 799 1083.5 684.5 c 128,-1,9
 951 570 951 570 704 570 c 2,10,-1
 361 570 l 1,0,-1
361 727 m 1,11,-1
 706 727 l 2,12,13
 860 727 860 727 942 799.5 c 128,-1,14
 1024 872 1024 872 1024 1009 c 0,15,16
 1024 1139 1024 1139 942 1217 c 128,-1,17
 860 1295 860 1295 717 1298 c 2,18,-1
 361 1298 l 1,19,-1
 361 727 l 1,11,-1
EndSplineSet
EndChar

StartChar: Q
Encoding: 81 81 53
Width: 1408
GlyphClass: 2
Flags: W
LayerCount: 2
Fore
SplineSet
1281 681 m 2,0,1
 1281 470 1281 470 1214 317.5 c 128,-1,2
 1147 165 1147 165 1026 79 c 1,3,-1
 1286 -125 l 1,4,-1
 1155 -246 l 1,5,-1
 848 -2 l 1,6,7
 776 -20 776 -20 696 -20 c 0,8,9
 524 -20 524 -20 391 64.5 c 128,-1,10
 258 149 258 149 184.5 305.5 c 128,-1,11
 111 462 111 462 109 668 c 2,12,-1
 109 773 l 2,13,14
 109 983 109 983 182 1144 c 128,-1,15
 255 1305 255 1305 388.5 1390.5 c 128,-1,16
 522 1476 522 1476 694 1476 c 0,17,18
 870 1476 870 1476 1003.5 1391 c 128,-1,19
 1137 1306 1137 1306 1209 1146.5 c 128,-1,20
 1281 987 1281 987 1281 774 c 2,21,-1
 1281 681 l 2,0,1
1089 775 m 2,22,23
 1089 1032 1089 1032 986.5 1171.5 c 128,-1,24
 884 1311 884 1311 694 1311 c 0,25,26
 513 1311 513 1311 408.5 1172.5 c 128,-1,27
 304 1034 304 1034 301 788 c 2,28,-1
 301 681 l 2,29,30
 301 431 301 431 405.5 287 c 128,-1,31
 510 143 510 143 696 143 c 128,-1,32
 882 143 882 143 984 278.5 c 128,-1,33
 1086 414 1086 414 1089 667 c 2,34,-1
 1089 775 l 2,22,23
EndSplineSet
EndChar

StartChar: R
Encoding: 82 82 54
Width: 1261
GlyphClass: 2
Flags: W
LayerCount: 2
Fore
SplineSet
703 589 m 1,0,-1
 361 589 l 1,1,-1
 361 0 l 1,2,-1
 168 0 l 1,3,-1
 168 1456 l 1,4,-1
 650 1456 l 2,5,6
 896 1456 896 1456 1028.5 1344 c 128,-1,7
 1161 1232 1161 1232 1161 1018 c 0,8,9
 1161 882 1161 882 1087.5 781 c 128,-1,10
 1014 680 1014 680 883 630 c 1,11,-1
 1225 12 l 1,12,-1
 1225 0 l 1,13,-1
 1019 0 l 1,14,-1
 703 589 l 1,0,-1
361 746 m 1,15,-1
 656 746 l 2,16,17
 799 746 799 746 883.5 820 c 128,-1,18
 968 894 968 894 968 1018 c 0,19,20
 968 1153 968 1153 887.5 1225 c 128,-1,21
 807 1297 807 1297 655 1298 c 2,22,-1
 361 1298 l 1,23,-1
 361 746 l 1,15,-1
EndSplineSet
EndChar

StartChar: S
Encoding: 83 83 55
Width: 1215
GlyphClass: 2
Flags: W
LayerCount: 2
Fore
SplineSet
598 649 m 0,0,1
 351 720 351 720 238.5 823.5 c 128,-1,2
 126 927 126 927 126 1079 c 0,3,4
 126 1251 126 1251 263.5 1363.5 c 128,-1,5
 401 1476 401 1476 621 1476 c 0,6,7
 771 1476 771 1476 888.5 1418 c 128,-1,8
 1006 1360 1006 1360 1070.5 1258 c 128,-1,9
 1135 1156 1135 1156 1135 1035 c 1,10,-1
 942 1035 l 1,11,12
 942 1167 942 1167 858 1242.5 c 128,-1,13
 774 1318 774 1318 621 1318 c 0,14,15
 479 1318 479 1318 399.5 1255.5 c 128,-1,16
 320 1193 320 1193 320 1082 c 0,17,18
 320 993 320 993 395.5 931.5 c 128,-1,19
 471 870 471 870 652.5 819 c 128,-1,20
 834 768 834 768 936.5 706.5 c 128,-1,21
 1039 645 1039 645 1088.5 563 c 128,-1,22
 1138 481 1138 481 1138 370 c 0,23,24
 1138 193 1138 193 1000 86.5 c 128,-1,25
 862 -20 862 -20 631 -20 c 0,26,27
 481 -20 481 -20 351 37.5 c 128,-1,28
 221 95 221 95 150.5 195 c 128,-1,29
 80 295 80 295 80 422 c 1,30,-1
 273 422 l 1,31,32
 273 290 273 290 370.5 213.5 c 128,-1,33
 468 137 468 137 631 137 c 0,34,35
 783 137 783 137 864 199 c 128,-1,36
 945 261 945 261 945 368 c 128,-1,37
 945 475 945 475 870 533.5 c 128,-1,38
 795 592 795 592 598 649 c 0,0,1
EndSplineSet
EndChar

StartChar: T
Encoding: 84 84 56
Width: 1222
GlyphClass: 2
Flags: W
LayerCount: 2
Fore
SplineSet
1175 1298 m 1,0,-1
 707 1298 l 1,1,-1
 707 0 l 1,2,-1
 516 0 l 1,3,-1
 516 1298 l 1,4,-1
 49 1298 l 1,5,-1
 49 1456 l 1,6,-1
 1175 1456 l 1,7,-1
 1175 1298 l 1,0,-1
EndSplineSet
EndChar

StartChar: U
Encoding: 85 85 57
Width: 1328
GlyphClass: 2
Flags: W
LayerCount: 2
Fore
SplineSet
1194 1456 m 1,0,-1
 1194 466 l 2,1,2
 1193 260 1193 260 1064.5 129 c 128,-1,3
 936 -2 936 -2 716 -18 c 1,4,-1
 665 -20 l 1,5,6
 426 -20 426 -20 284 109 c 128,-1,7
 142 238 142 238 140 464 c 2,8,-1
 140 1456 l 1,9,-1
 330 1456 l 1,10,-1
 330 470 l 2,11,12
 330 312 330 312 417 224.5 c 128,-1,13
 504 137 504 137 665 137 c 0,14,15
 828 137 828 137 914.5 224 c 128,-1,16
 1001 311 1001 311 1001 469 c 2,17,-1
 1001 1456 l 1,18,-1
 1194 1456 l 1,0,-1
EndSplineSet
EndChar

StartChar: V
Encoding: 86 86 58
Width: 1303
GlyphClass: 2
Flags: W
LayerCount: 2
Fore
SplineSet
651 255 m 1,0,-1
 1067 1456 l 1,1,-1
 1277 1456 l 1,2,-1
 737 0 l 1,3,-1
 567 0 l 1,4,-1
 28 1456 l 1,5,-1
 237 1456 l 1,6,-1
 651 255 l 1,0,-1
EndSplineSet
EndChar

StartChar: W
Encoding: 87 87 59
Width: 1817
GlyphClass: 2
Flags: W
LayerCount: 2
Fore
SplineSet
483 459 m 1,0,-1
 511 267 l 1,1,-1
 552 440 l 1,2,-1
 840 1456 l 1,3,-1
 1002 1456 l 1,4,-1
 1283 440 l 1,5,-1
 1323 264 l 1,6,-1
 1354 460 l 1,7,-1
 1580 1456 l 1,8,-1
 1773 1456 l 1,9,-1
 1420 0 l 1,10,-1
 1245 0 l 1,11,-1
 945 1061 l 1,12,-1
 922 1172 l 1,13,-1
 899 1061 l 1,14,-1
 588 0 l 1,15,-1
 413 0 l 1,16,-1
 61 1456 l 1,17,-1
 253 1456 l 1,18,-1
 483 459 l 1,0,-1
EndSplineSet
EndChar

StartChar: X
Encoding: 88 88 60
Width: 1284
GlyphClass: 2
Flags: W
LayerCount: 2
Fore
SplineSet
644 898 m 1,0,-1
 993 1456 l 1,1,-1
 1219 1456 l 1,2,-1
 759 734 l 1,3,-1
 1230 0 l 1,4,-1
 1002 0 l 1,5,-1
 644 568 l 1,6,-1
 284 0 l 1,7,-1
 57 0 l 1,8,-1
 529 734 l 1,9,-1
 68 1456 l 1,10,-1
 293 1456 l 1,11,-1
 644 898 l 1,0,-1
EndSplineSet
EndChar

StartChar: Y
Encoding: 89 89 61
Width: 1230
GlyphClass: 2
Flags: W
LayerCount: 2
Fore
SplineSet
613 725 m 1,0,-1
 993 1456 l 1,1,-1
 1211 1456 l 1,2,-1
 709 543 l 1,3,-1
 709 0 l 1,4,-1
 517 0 l 1,5,-1
 517 543 l 1,6,-1
 15 1456 l 1,7,-1
 235 1456 l 1,8,-1
 613 725 l 1,0,-1
EndSplineSet
EndChar

StartChar: Z
Encoding: 90 90 62
Width: 1226
GlyphClass: 2
Flags: W
LayerCount: 2
Fore
SplineSet
313 157 m 1,0,-1
 1146 157 l 1,1,-1
 1146 0 l 1,2,-1
 86 0 l 1,3,-1
 86 144 l 1,4,-1
 884 1298 l 1,5,-1
 99 1298 l 1,6,-1
 99 1456 l 1,7,-1
 1114 1456 l 1,8,-1
 1114 1315 l 1,9,-1
 313 157 l 1,0,-1
EndSplineSet
EndChar

StartChar: bracketleft
Encoding: 91 91 63
Width: 543
Flags: W
LayerCount: 2
Fore
SplineSet
523 1512 m 1,0,-1
 332 1512 l 1,1,-1
 332 -160 l 1,2,-1
 523 -160 l 1,3,-1
 523 -312 l 1,4,-1
 146 -312 l 1,5,-1
 146 1664 l 1,6,-1
 523 1664 l 1,7,-1
 523 1512 l 1,0,-1
EndSplineSet
EndChar

StartChar: backslash
Encoding: 92 92 64
Width: 840
Flags: W
LayerCount: 2
Fore
SplineSet
40 1456 m 1,0,-1
 216 1456 l 1,1,-1
 824 -125 l 1,2,-1
 648 -125 l 1,3,-1
 40 1456 l 1,0,-1
EndSplineSet
EndChar

StartChar: bracketright
Encoding: 93 93 65
Width: 543
Flags: W
LayerCount: 2
Fore
SplineSet
9 1664 m 1,0,-1
 387 1664 l 1,1,-1
 387 -312 l 1,2,-1
 9 -312 l 1,3,-1
 9 -160 l 1,4,-1
 202 -160 l 1,5,-1
 202 1512 l 1,6,-1
 9 1512 l 1,7,-1
 9 1664 l 1,0,-1
EndSplineSet
EndChar

StartChar: asciicircum
Encoding: 94 94 66
Width: 856
Flags: W
LayerCount: 2
Fore
SplineSet
426 1211 m 1,0,-1
 236 729 l 1,1,-1
 64 729 l 1,2,-1
 363 1456 l 1,3,-1
 490 1456 l 1,4,-1
 788 729 l 1,5,-1
 617 729 l 1,6,-1
 426 1211 l 1,0,-1
EndSplineSet
EndChar

StartChar: underscore
Encoding: 95 95 67
Width: 924
Flags: W
LayerCount: 2
Fore
SplineSet
920 -151 m 1,0,-1
 4 -151 l 1,1,-1
 4 0 l 1,2,-1
 920 0 l 1,3,-1
 920 -151 l 1,0,-1
EndSplineSet
EndChar

StartChar: grave
Encoding: 96 96 68
Width: 633
Flags: W
LayerCount: 2
Fore
SplineSet
474 1242 m 1,0,-1
 315 1242 l 1,1,-1
 57 1536 l 1,2,-1
 280 1536 l 1,3,-1
 474 1242 l 1,0,-1
EndSplineSet
EndChar

StartChar: a
Encoding: 97 97 69
Width: 1114
GlyphClass: 2
Flags: W
LayerCount: 2
Fore
SplineSet
808 0 m 1,0,1
 792 32 792 32 782 114 c 1,2,3
 653 -20 653 -20 474 -20 c 0,4,5
 314 -20 314 -20 211.5 70.5 c 128,-1,6
 109 161 109 161 109 300 c 0,7,8
 109 469 109 469 237.5 562.5 c 128,-1,9
 366 656 366 656 599 656 c 2,10,-1
 779 656 l 1,11,-1
 779 741 l 2,12,13
 779 838 779 838 721 895.5 c 128,-1,14
 663 953 663 953 550 953 c 0,15,16
 451 953 451 953 384 903 c 128,-1,17
 317 853 317 853 317 782 c 1,18,-1
 131 782 l 1,19,20
 131 863 131 863 188.5 938.5 c 128,-1,21
 246 1014 246 1014 344.5 1058 c 128,-1,22
 443 1102 443 1102 561 1102 c 0,23,24
 748 1102 748 1102 854 1008.5 c 128,-1,25
 960 915 960 915 964 751 c 1,26,-1
 964 253 l 2,27,28
 964 104 964 104 1002 16 c 1,29,-1
 1002 0 l 1,30,-1
 808 0 l 1,0,1
501 141 m 0,31,32
 588 141 588 141 666 186 c 128,-1,33
 744 231 744 231 779 303 c 1,34,-1
 779 525 l 1,35,-1
 634 525 l 2,36,37
 294 525 294 525 294 326 c 0,38,39
 294 239 294 239 352 190 c 128,-1,40
 410 141 410 141 501 141 c 0,31,32
EndSplineSet
EndChar

StartChar: b
Encoding: 98 98 70
Width: 1149
GlyphClass: 2
Flags: W
LayerCount: 2
Fore
SplineSet
1056 529 m 2,0,1
 1056 281 1056 281 942 130.5 c 128,-1,2
 828 -20 828 -20 636 -20 c 0,3,4
 431 -20 431 -20 319 125 c 1,5,-1
 310 0 l 1,6,-1
 140 0 l 1,7,-1
 140 1536 l 1,8,-1
 325 1536 l 1,9,-1
 325 963 l 1,10,11
 437 1102 437 1102 634 1102 c 128,-1,12
 831 1102 831 1102 943.5 953 c 128,-1,13
 1056 804 1056 804 1056 545 c 2,14,-1
 1056 529 l 2,0,1
871 550 m 0,15,16
 871 739 871 739 798 842 c 128,-1,17
 725 945 725 945 588 945 c 0,18,19
 405 945 405 945 325 775 c 1,20,-1
 325 307 l 1,21,22
 410 137 410 137 590 137 c 0,23,24
 723 137 723 137 797 240 c 128,-1,25
 871 343 871 343 871 550 c 0,15,16
EndSplineSet
EndChar

StartChar: c
Encoding: 99 99 71
Width: 1072
GlyphClass: 2
Flags: W
LayerCount: 2
Fore
SplineSet
574 131 m 0,0,1
 673 131 673 131 747 191 c 128,-1,2
 821 251 821 251 829 341 c 1,3,-1
 1004 341 l 1,4,5
 999 248 999 248 940 164 c 128,-1,6
 881 80 881 80 782.5 30 c 128,-1,7
 684 -20 684 -20 574 -20 c 0,8,9
 353 -20 353 -20 222.5 127.5 c 128,-1,10
 92 275 92 275 92 531 c 2,11,-1
 92 562 l 2,12,13
 92 720 92 720 150 843 c 128,-1,14
 208 966 208 966 316.5 1034 c 128,-1,15
 425 1102 425 1102 573 1102 c 0,16,17
 755 1102 755 1102 875.5 993 c 128,-1,18
 996 884 996 884 1004 710 c 1,19,-1
 829 710 l 1,20,21
 821 815 821 815 749.5 882.5 c 128,-1,22
 678 950 678 950 573 950 c 0,23,24
 432 950 432 950 354.5 848.5 c 128,-1,25
 277 747 277 747 277 555 c 2,26,-1
 277 520 l 2,27,28
 277 333 277 333 354 232 c 128,-1,29
 431 131 431 131 574 131 c 0,0,1
EndSplineSet
EndChar

StartChar: d
Encoding: 100 100 72
Width: 1155
GlyphClass: 2
Flags: W
LayerCount: 2
Fore
SplineSet
95 550 m 2,0,1
 95 799 95 799 213 950.5 c 128,-1,2
 331 1102 331 1102 522 1102 c 0,3,4
 712 1102 712 1102 823 972 c 1,5,-1
 823 1536 l 1,6,-1
 1008 1536 l 1,7,-1
 1008 0 l 1,8,-1
 838 0 l 1,9,-1
 829 116 l 1,10,11
 718 -20 718 -20 520 -20 c 0,12,13
 332 -20 332 -20 213.5 134 c 128,-1,14
 95 288 95 288 95 536 c 2,15,-1
 95 550 l 2,0,1
280 529 m 0,16,17
 280 345 280 345 356 241 c 128,-1,18
 432 137 432 137 566 137 c 0,19,20
 742 137 742 137 823 295 c 1,21,-1
 823 792 l 1,22,23
 740 945 740 945 568 945 c 0,24,25
 432 945 432 945 356 840 c 128,-1,26
 280 735 280 735 280 529 c 0,16,17
EndSplineSet
EndChar

StartChar: e
Encoding: 101 101 73
Width: 1085
GlyphClass: 2
Flags: W
LayerCount: 2
Fore
SplineSet
589 -20 m 0,0,1
 369 -20 369 -20 231 124.5 c 128,-1,2
 93 269 93 269 93 511 c 2,3,-1
 93 545 l 2,4,5
 93 706 93 706 154.5 832.5 c 128,-1,6
 216 959 216 959 326.5 1030.5 c 128,-1,7
 437 1102 437 1102 566 1102 c 0,8,9
 777 1102 777 1102 894 963 c 128,-1,10
 1011 824 1011 824 1011 565 c 2,11,-1
 1011 488 l 1,12,-1
 278 488 l 1,13,14
 282 328 282 328 371.5 229.5 c 128,-1,15
 461 131 461 131 599 131 c 0,16,17
 697 131 697 131 765 171 c 128,-1,18
 833 211 833 211 884 277 c 1,19,-1
 997 189 l 1,20,21
 861 -20 861 -20 589 -20 c 0,0,1
566 950 m 0,22,23
 454 950 454 950 378 868.5 c 128,-1,24
 302 787 302 787 284 640 c 1,25,-1
 826 640 l 1,26,-1
 826 654 l 1,27,28
 818 795 818 795 750 872.5 c 128,-1,29
 682 950 682 950 566 950 c 0,22,23
EndSplineSet
EndChar

StartChar: f
Encoding: 102 102 74
Width: 711
GlyphClass: 2
Flags: W
LayerCount: 2
Fore
SplineSet
231 0 m 1,0,-1
 231 939 l 1,1,-1
 60 939 l 1,2,-1
 60 1082 l 1,3,-1
 231 1082 l 1,4,-1
 231 1193 l 2,5,6
 231 1367 231 1367 324 1462 c 128,-1,7
 417 1557 417 1557 587 1557 c 0,8,9
 651 1557 651 1557 714 1540 c 1,10,-1
 704 1390 l 1,11,12
 657 1399 657 1399 604 1399 c 0,13,14
 514 1399 514 1399 465 1346.5 c 128,-1,15
 416 1294 416 1294 416 1196 c 2,16,-1
 416 1082 l 1,17,-1
 647 1082 l 1,18,-1
 647 939 l 1,19,-1
 416 939 l 1,20,-1
 416 0 l 1,21,-1
 231 0 l 1,0,-1
EndSplineSet
EndChar

StartChar: g
Encoding: 103 103 75
Width: 1149
GlyphClass: 2
Flags: W
LayerCount: 2
Fore
SplineSet
96 550 m 0,0,1
 96 803 96 803 213 952.5 c 128,-1,2
 330 1102 330 1102 523 1102 c 0,3,4
 721 1102 721 1102 832 962 c 1,5,-1
 841 1082 l 1,6,-1
 1010 1082 l 1,7,-1
 1010 26 l 2,8,9
 1010 -184 1010 -184 885.5 -305 c 128,-1,10
 761 -426 761 -426 551 -426 c 0,11,12
 434 -426 434 -426 322 -376 c 128,-1,13
 210 -326 210 -326 151 -239 c 1,14,-1
 247 -128 l 1,15,16
 366 -275 366 -275 538 -275 c 0,17,18
 673 -275 673 -275 748.5 -199 c 128,-1,19
 824 -123 824 -123 824 15 c 2,20,-1
 824 108 l 1,21,22
 713 -20 713 -20 521 -20 c 0,23,24
 331 -20 331 -20 213.5 133 c 128,-1,25
 96 286 96 286 96 550 c 0,0,1
282 529 m 0,26,27
 282 346 282 346 357 241.5 c 128,-1,28
 432 137 432 137 567 137 c 0,29,30
 742 137 742 137 824 296 c 1,31,-1
 824 790 l 1,32,33
 739 945 739 945 569 945 c 0,34,35
 434 945 434 945 358 840 c 128,-1,36
 282 735 282 735 282 529 c 0,26,27
EndSplineSet
EndChar

StartChar: h
Encoding: 104 104 76
Width: 1128
GlyphClass: 2
Flags: W
LayerCount: 2
Fore
SplineSet
325 951 m 1,0,1
 448 1102 448 1102 645 1102 c 0,2,3
 988 1102 988 1102 991 715 c 2,4,-1
 991 0 l 1,5,-1
 806 0 l 1,6,-1
 806 716 l 2,7,8
 805 833 805 833 752.5 889 c 128,-1,9
 700 945 700 945 589 945 c 0,10,11
 499 945 499 945 431 897 c 128,-1,12
 363 849 363 849 325 771 c 1,13,-1
 325 0 l 1,14,-1
 140 0 l 1,15,-1
 140 1536 l 1,16,-1
 325 1536 l 1,17,-1
 325 951 l 1,0,1
EndSplineSet
EndChar

StartChar: i
Encoding: 105 105 77
Width: 497
GlyphClass: 2
Flags: W
LayerCount: 2
Fore
SplineSet
341 0 m 1,0,-1
 156 0 l 1,1,-1
 156 1082 l 1,2,-1
 341 1082 l 1,3,-1
 341 0 l 1,0,-1
141 1369 m 256,4,5
 141 1414 141 1414 168.5 1445 c 128,-1,6
 196 1476 196 1476 250 1476 c 128,-1,7
 304 1476 304 1476 332 1445 c 128,-1,8
 360 1414 360 1414 360 1369 c 128,-1,9
 360 1324 360 1324 332 1294 c 128,-1,10
 304 1264 304 1264 250 1264 c 128,-1,11
 196 1264 196 1264 168.5 1294 c 128,-1,12
 141 1324 141 1324 141 1369 c 256,4,5
EndSplineSet
EndChar

StartChar: j
Encoding: 106 106 78
Width: 489
GlyphClass: 2
Flags: W
LayerCount: 2
Fore
SplineSet
331 1082 m 1,0,-1
 331 -125 l 2,1,2
 331 -437 331 -437 48 -437 c 0,3,4
 -13 -437 -13 -437 -65 -419 c 1,5,-1
 -65 -271 l 1,6,7
 -33 -279 -33 -279 19 -279 c 0,8,9
 81 -279 81 -279 113.5 -245.5 c 128,-1,10
 146 -212 146 -212 146 -129 c 2,11,-1
 146 1082 l 1,12,-1
 331 1082 l 1,0,-1
127 1369 m 0,13,14
 127 1413 127 1413 154.5 1444.5 c 128,-1,15
 182 1476 182 1476 235 1476 c 0,16,17
 289 1476 289 1476 317 1445 c 128,-1,18
 345 1414 345 1414 345 1369 c 128,-1,19
 345 1324 345 1324 317 1294 c 128,-1,20
 289 1264 289 1264 235 1264 c 128,-1,21
 181 1264 181 1264 154 1294 c 128,-1,22
 127 1324 127 1324 127 1369 c 0,13,14
EndSplineSet
EndChar

StartChar: k
Encoding: 107 107 79
Width: 1038
GlyphClass: 2
Flags: W
LayerCount: 2
Fore
SplineSet
442 501 m 1,0,-1
 326 380 l 1,1,-1
 326 0 l 1,2,-1
 141 0 l 1,3,-1
 141 1536 l 1,4,-1
 326 1536 l 1,5,-1
 326 607 l 1,6,-1
 425 726 l 1,7,-1
 762 1082 l 1,8,-1
 987 1082 l 1,9,-1
 566 630 l 1,10,-1
 1036 0 l 1,11,-1
 819 0 l 1,12,-1
 442 501 l 1,0,-1
EndSplineSet
EndChar

StartChar: l
Encoding: 108 108 80
Width: 497
GlyphClass: 2
Flags: W
LayerCount: 2
Fore
SplineSet
341 0 m 1,0,-1
 156 0 l 1,1,-1
 156 1536 l 1,2,-1
 341 1536 l 1,3,-1
 341 0 l 1,0,-1
EndSplineSet
EndChar

StartChar: m
Encoding: 109 109 81
Width: 1795
GlyphClass: 2
Flags: W
LayerCount: 2
Fore
SplineSet
314 1082 m 1,0,-1
 319 962 l 1,1,2
 438 1102 438 1102 640 1102 c 0,3,4
 867 1102 867 1102 949 928 c 1,5,6
 1003 1006 1003 1006 1089.5 1054 c 128,-1,7
 1176 1102 1176 1102 1294 1102 c 0,8,9
 1650 1102 1650 1102 1656 725 c 1,10,-1
 1656 0 l 1,11,-1
 1471 0 l 1,12,-1
 1471 714 l 2,13,14
 1471 830 1471 830 1418 887.5 c 128,-1,15
 1365 945 1365 945 1240 945 c 0,16,17
 1137 945 1137 945 1069 883.5 c 128,-1,18
 1001 822 1001 822 990 718 c 1,19,-1
 990 0 l 1,20,-1
 804 0 l 1,21,-1
 804 709 l 2,22,23
 804 945 804 945 573 945 c 0,24,25
 391 945 391 945 324 790 c 1,26,-1
 324 0 l 1,27,-1
 139 0 l 1,28,-1
 139 1082 l 1,29,-1
 314 1082 l 1,0,-1
EndSplineSet
EndChar

StartChar: n
Encoding: 110 110 82
Width: 1130
GlyphClass: 2
Flags: W
LayerCount: 2
Fore
SplineSet
315 1082 m 1,0,-1
 321 946 l 1,1,2
 445 1102 445 1102 645 1102 c 0,3,4
 988 1102 988 1102 991 715 c 2,5,-1
 991 0 l 1,6,-1
 806 0 l 1,7,-1
 806 716 l 2,8,9
 805 833 805 833 752.5 889 c 128,-1,10
 700 945 700 945 589 945 c 0,11,12
 499 945 499 945 431 897 c 128,-1,13
 363 849 363 849 325 771 c 1,14,-1
 325 0 l 1,15,-1
 140 0 l 1,16,-1
 140 1082 l 1,17,-1
 315 1082 l 1,0,-1
EndSplineSet
EndChar

StartChar: o
Encoding: 111 111 83
Width: 1168
GlyphClass: 2
Flags: W
LayerCount: 2
Fore
SplineSet
91 551 m 2,0,1
 91 710 91 710 153.5 837 c 128,-1,2
 216 964 216 964 327.5 1033 c 128,-1,3
 439 1102 439 1102 582 1102 c 0,4,5
 803 1102 803 1102 939.5 949 c 128,-1,6
 1076 796 1076 796 1076 542 c 2,7,-1
 1076 529 l 2,8,9
 1076 371 1076 371 1015.5 245.5 c 128,-1,10
 955 120 955 120 842.5 50 c 128,-1,11
 730 -20 730 -20 584 -20 c 0,12,13
 364 -20 364 -20 227.5 133 c 128,-1,14
 91 286 91 286 91 538 c 2,15,-1
 91 551 l 2,0,1
277 529 m 0,16,17
 277 349 277 349 360.5 240 c 128,-1,18
 444 131 444 131 584 131 c 0,19,20
 725 131 725 131 808 241.5 c 128,-1,21
 891 352 891 352 891 551 c 0,22,23
 891 729 891 729 806.5 839.5 c 128,-1,24
 722 950 722 950 582 950 c 0,25,26
 445 950 445 950 361 841 c 128,-1,27
 277 732 277 732 277 529 c 0,16,17
EndSplineSet
EndChar

StartChar: p
Encoding: 112 112 84
Width: 1149
GlyphClass: 2
Flags: W
LayerCount: 2
Fore
SplineSet
1054 529 m 2,0,1
 1054 282 1054 282 941 131 c 128,-1,2
 828 -20 828 -20 635 -20 c 0,3,4
 438 -20 438 -20 325 105 c 1,5,-1
 325 -416 l 1,6,-1
 140 -416 l 1,7,-1
 140 1082 l 1,8,-1
 309 1082 l 1,9,-1
 318 962 l 1,10,11
 431 1102 431 1102 632 1102 c 0,12,13
 827 1102 827 1102 940.5 955 c 128,-1,14
 1054 808 1054 808 1054 546 c 2,15,-1
 1054 529 l 2,0,1
869 550 m 0,16,17
 869 733 869 733 791 839 c 128,-1,18
 713 945 713 945 577 945 c 0,19,20
 409 945 409 945 325 796 c 1,21,-1
 325 279 l 1,22,23
 408 131 408 131 579 131 c 0,24,25
 712 131 712 131 790.5 236.5 c 128,-1,26
 869 342 869 342 869 550 c 0,16,17
EndSplineSet
EndChar

StartChar: q
Encoding: 113 113 85
Width: 1164
GlyphClass: 2
Flags: W
LayerCount: 2
Fore
SplineSet
95 550 m 2,0,1
 95 805 95 805 212 953.5 c 128,-1,2
 329 1102 329 1102 526 1102 c 0,3,4
 718 1102 718 1102 829 973 c 1,5,-1
 837 1082 l 1,6,-1
 1007 1082 l 1,7,-1
 1007 -416 l 1,8,-1
 822 -416 l 1,9,-1
 822 100 l 1,10,11
 710 -20 710 -20 524 -20 c 0,12,13
 328 -20 328 -20 211.5 132.5 c 128,-1,14
 95 285 95 285 95 537 c 2,15,-1
 95 550 l 2,0,1
280 529 m 0,16,17
 280 343 280 343 358.5 237 c 128,-1,18
 437 131 437 131 570 131 c 0,19,20
 735 131 735 131 822 277 c 1,21,-1
 822 807 l 1,22,23
 734 950 734 950 572 950 c 0,24,25
 438 950 438 950 359 843.5 c 128,-1,26
 280 737 280 737 280 529 c 0,16,17
EndSplineSet
EndChar

StartChar: r
Encoding: 114 114 86
Width: 693
GlyphClass: 2
Flags: W
LayerCount: 2
Fore
SplineSet
663 916 m 1,0,1
 621 923 621 923 572 923 c 0,2,3
 390 923 390 923 325 768 c 1,4,-1
 325 0 l 1,5,-1
 140 0 l 1,6,-1
 140 1082 l 1,7,-1
 320 1082 l 1,8,-1
 323 957 l 1,9,10
 414 1102 414 1102 581 1102 c 0,11,12
 635 1102 635 1102 663 1088 c 1,13,-1
 663 916 l 1,0,1
EndSplineSet
EndChar

StartChar: s
Encoding: 115 115 87
Width: 1056
GlyphClass: 2
Flags: W
LayerCount: 2
Fore
SplineSet
770 287 m 0,0,1
 770 362 770 362 713.5 403.5 c 128,-1,2
 657 445 657 445 516.5 475 c 128,-1,3
 376 505 376 505 293.5 547 c 128,-1,4
 211 589 211 589 171.5 647 c 128,-1,5
 132 705 132 705 132 785 c 0,6,7
 132 918 132 918 244.5 1010 c 128,-1,8
 357 1102 357 1102 532 1102 c 0,9,10
 716 1102 716 1102 830.5 1007 c 128,-1,11
 945 912 945 912 945 764 c 1,12,-1
 759 764 l 1,13,14
 759 840 759 840 694.5 895 c 128,-1,15
 630 950 630 950 532 950 c 0,16,17
 431 950 431 950 374 906 c 128,-1,18
 317 862 317 862 317 791 c 0,19,20
 317 724 317 724 370 690 c 128,-1,21
 423 656 423 656 561.5 625 c 128,-1,22
 700 594 700 594 786 551 c 128,-1,23
 872 508 872 508 913.5 447.5 c 128,-1,24
 955 387 955 387 955 300 c 0,25,26
 955 155 955 155 839 67.5 c 128,-1,27
 723 -20 723 -20 538 -20 c 0,28,29
 408 -20 408 -20 308 26 c 128,-1,30
 208 72 208 72 151.5 154.5 c 128,-1,31
 95 237 95 237 95 333 c 1,32,-1
 280 333 l 1,33,34
 285 240 285 240 354.5 185.5 c 128,-1,35
 424 131 424 131 538 131 c 0,36,37
 643 131 643 131 706.5 173.5 c 128,-1,38
 770 216 770 216 770 287 c 0,0,1
EndSplineSet
EndChar

StartChar: t
Encoding: 116 116 88
Width: 669
GlyphClass: 2
Flags: W
LayerCount: 2
Fore
SplineSet
391 1344 m 1,0,-1
 391 1082 l 1,1,-1
 593 1082 l 1,2,-1
 593 939 l 1,3,-1
 391 939 l 1,4,-1
 391 268 l 2,5,6
 391 203 391 203 418 170.5 c 128,-1,7
 445 138 445 138 510 138 c 0,8,9
 542 138 542 138 598 150 c 1,10,-1
 598 0 l 1,11,12
 525 -20 525 -20 456 -20 c 0,13,14
 332 -20 332 -20 269 55 c 128,-1,15
 206 130 206 130 206 268 c 2,16,-1
 206 939 l 1,17,-1
 9 939 l 1,18,-1
 9 1082 l 1,19,-1
 206 1082 l 1,20,-1
 206 1344 l 1,21,-1
 391 1344 l 1,0,-1
EndSplineSet
EndChar

StartChar: u
Encoding: 117 117 89
Width: 1129
GlyphClass: 2
Flags: W
LayerCount: 2
Fore
SplineSet
808 107 m 1,0,1
 700 -20 700 -20 491 -20 c 0,2,3
 318 -20 318 -20 227.5 80.5 c 128,-1,4
 137 181 137 181 136 378 c 2,5,-1
 136 1082 l 1,6,-1
 321 1082 l 1,7,-1
 321 383 l 2,8,9
 321 137 321 137 521 137 c 0,10,11
 733 137 733 137 803 295 c 1,12,-1
 803 1082 l 1,13,-1
 988 1082 l 1,14,-1
 988 0 l 1,15,-1
 812 0 l 1,16,-1
 808 107 l 1,0,1
EndSplineSet
EndChar

StartChar: v
Encoding: 118 118 90
Width: 992
GlyphClass: 2
Flags: W
LayerCount: 2
Fore
SplineSet
497 251 m 1,0,-1
 765 1082 l 1,1,-1
 954 1082 l 1,2,-1
 566 0 l 1,3,-1
 425 0 l 1,4,-1
 33 1082 l 1,5,-1
 222 1082 l 1,6,-1
 497 251 l 1,0,-1
EndSplineSet
EndChar

StartChar: w
Encoding: 119 119 91
Width: 1539
GlyphClass: 2
Flags: W
LayerCount: 2
Fore
SplineSet
1098 255 m 1,0,-1
 1306 1082 l 1,1,-1
 1491 1082 l 1,2,-1
 1176 0 l 1,3,-1
 1026 0 l 1,4,-1
 763 820 l 1,5,-1
 507 0 l 1,6,-1
 357 0 l 1,7,-1
 43 1082 l 1,8,-1
 227 1082 l 1,9,-1
 440 272 l 1,10,-1
 692 1082 l 1,11,-1
 841 1082 l 1,12,-1
 1098 255 l 1,0,-1
EndSplineSet
EndChar

StartChar: x
Encoding: 120 120 92
Width: 1015
GlyphClass: 2
Flags: W
LayerCount: 2
Fore
SplineSet
503 687 m 1,0,-1
 743 1082 l 1,1,-1
 959 1082 l 1,2,-1
 605 547 l 1,3,-1
 970 0 l 1,4,-1
 756 0 l 1,5,-1
 506 405 l 1,6,-1
 256 0 l 1,7,-1
 41 0 l 1,8,-1
 406 547 l 1,9,-1
 52 1082 l 1,10,-1
 266 1082 l 1,11,-1
 503 687 l 1,0,-1
EndSplineSet
EndChar

StartChar: y
Encoding: 121 121 93
Width: 969
GlyphClass: 2
Flags: W
LayerCount: 2
Fore
SplineSet
494 271 m 1,0,-1
 746 1082 l 1,1,-1
 944 1082 l 1,2,-1
 509 -167 l 1,3,4
 408 -437 408 -437 188 -437 c 1,5,-1
 153 -434 l 1,6,-1
 84 -421 l 1,7,-1
 84 -271 l 1,8,-1
 134 -275 l 1,9,10
 228 -275 228 -275 280.5 -237 c 128,-1,11
 333 -199 333 -199 367 -98 c 2,12,-1
 408 12 l 1,13,-1
 22 1082 l 1,14,-1
 224 1082 l 1,15,-1
 494 271 l 1,0,-1
EndSplineSet
EndChar

StartChar: z
Encoding: 122 122 94
Width: 1015
GlyphClass: 2
Flags: W
LayerCount: 2
Fore
SplineSet
314 151 m 1,0,-1
 947 151 l 1,1,-1
 947 0 l 1,2,-1
 88 0 l 1,3,-1
 88 136 l 1,4,-1
 685 929 l 1,5,-1
 97 929 l 1,6,-1
 97 1082 l 1,7,-1
 917 1082 l 1,8,-1
 917 951 l 1,9,-1
 314 151 l 1,0,-1
EndSplineSet
EndChar

StartChar: braceleft
Encoding: 123 123 95
Width: 693
Flags: W
LayerCount: 2
Fore
SplineSet
632 -366 m 1,0,1
 455 -316 455 -316 365.5 -201.5 c 128,-1,2
 276 -87 276 -87 276 101 c 2,3,-1
 276 300 l 2,4,5
 276 543 276 543 64 543 c 1,6,-1
 64 688 l 1,7,8
 276 688 276 688 276 930 c 2,9,-1
 276 1138 l 2,10,11
 278 1321 278 1321 365.5 1433.5 c 128,-1,12
 453 1546 453 1546 632 1597 c 1,13,-1
 670 1482 l 1,14,15
 461 1415 461 1415 461 1133 c 2,16,-1
 461 931 l 2,17,18
 461 704 461 704 294 615 c 1,19,20
 461 525 461 525 461 296 c 2,21,-1
 461 90 l 2,22,23
 464 -185 464 -185 670 -251 c 1,24,-1
 632 -366 l 1,0,1
EndSplineSet
EndChar

StartChar: bar
Encoding: 124 124 96
Width: 499
Flags: W
LayerCount: 2
Fore
SplineSet
324 -270 m 1,0,-1
 175 -270 l 1,1,-1
 175 1456 l 1,2,-1
 324 1456 l 1,3,-1
 324 -270 l 1,0,-1
EndSplineSet
EndChar

StartChar: braceright
Encoding: 125 125 97
Width: 693
Flags: W
LayerCount: 2
Fore
SplineSet
19 -251 m 1,0,1
 222 -186 222 -186 229 80 c 1,2,-1
 229 300 l 2,3,4
 229 531 229 531 410 615 c 1,5,6
 229 697 229 697 229 930 c 2,7,-1
 229 1133 l 2,8,9
 229 1415 229 1415 20 1482 c 1,10,-1
 58 1597 l 1,11,12
 235 1547 235 1547 324 1434.5 c 128,-1,13
 413 1322 413 1322 414 1137 c 2,14,-1
 414 927 l 2,15,16
 414 688 414 688 626 688 c 1,17,-1
 626 543 l 1,18,19
 414 543 414 543 414 300 c 2,20,-1
 414 98 l 2,21,22
 414 -90 414 -90 323.5 -203 c 128,-1,23
 233 -316 233 -316 58 -366 c 1,24,-1
 19 -251 l 1,0,1
EndSplineSet
EndChar

StartChar: asciitilde
Encoding: 126 126 98
Width: 1393
Flags: W
LayerCount: 2
Fore
SplineSet
1263 777 m 1,0,1
 1263 619 1263 619 1169.5 510.5 c 128,-1,2
 1076 402 1076 402 939 402 c 0,3,4
 867 402 867 402 803 428.5 c 128,-1,5
 739 455 739 455 654.5 529 c 128,-1,6
 570 603 570 603 533 621 c 128,-1,7
 496 639 496 639 454 639 c 0,8,9
 376 639 376 639 334 585.5 c 128,-1,10
 292 532 292 532 292 438 c 1,11,-1
 131 436 l 1,12,13
 131 596 131 596 223 699 c 128,-1,14
 315 802 315 802 454 802 c 0,15,16
 530 802 530 802 600 770 c 128,-1,17
 670 738 670 738 758 657.5 c 128,-1,18
 846 577 846 577 910 567 c 1,19,-1
 939 565 l 1,20,21
 1015 565 1015 565 1062.5 623 c 128,-1,22
 1110 681 1110 681 1110 776 c 1,23,-1
 1263 777 l 1,0,1
EndSplineSet
EndChar

StartChar: exclamdown
Encoding: 161 161 99
Width: 499
Flags: W
LayerCount: 2
Fore
SplineSet
170 684 m 1,0,-1
 338 684 l 1,1,-1
 351 -360 l 1,2,-1
 157 -360 l 1,3,-1
 170 684 l 1,0,-1
358 996 m 256,4,5
 358 951 358 951 330.5 920 c 128,-1,6
 303 889 303 889 249 889 c 128,-1,7
 195 889 195 889 167 920 c 128,-1,8
 139 951 139 951 139 996 c 128,-1,9
 139 1041 139 1041 167 1071 c 128,-1,10
 195 1101 195 1101 249 1101 c 128,-1,11
 303 1101 303 1101 330.5 1071 c 128,-1,12
 358 1041 358 1041 358 996 c 256,4,5
EndSplineSet
EndChar

StartChar: cent
Encoding: 162 162 100
Width: 1120
Flags: W
LayerCount: 2
Fore
SplineSet
586 131 m 0,0,1
 686 131 686 131 760 191.5 c 128,-1,2
 834 252 834 252 842 341 c 1,3,-1
 1017 341 l 1,4,5
 1011 215 1011 215 912 114.5 c 128,-1,6
 813 14 813 14 669 -12 c 1,7,-1
 669 -245 l 1,8,-1
 484 -245 l 1,9,-1
 484 -11 l 1,10,11
 305 23 305 23 205 165 c 128,-1,12
 105 307 105 307 105 527 c 2,13,-1
 105 562 l 2,14,15
 105 774 105 774 206 916.5 c 128,-1,16
 307 1059 307 1059 484 1092 c 1,17,-1
 484 1318 l 1,18,-1
 669 1318 l 1,19,-1
 669 1095 l 1,20,21
 819 1072 819 1072 915 966 c 128,-1,22
 1011 860 1011 860 1017 710 c 1,23,-1
 842 710 l 1,24,25
 834 815 834 815 762.5 882.5 c 128,-1,26
 691 950 691 950 586 950 c 0,27,28
 445 950 445 950 367.5 848.5 c 128,-1,29
 290 747 290 747 290 555 c 2,30,-1
 290 520 l 2,31,32
 290 333 290 333 367.5 232 c 128,-1,33
 445 131 445 131 586 131 c 0,0,1
EndSplineSet
EndChar

StartChar: sterling
Encoding: 163 163 101
Width: 1190
Flags: W
LayerCount: 2
Fore
SplineSet
449 622 m 1,0,-1
 457 402 l 1,1,2
 457 248 457 248 395 157 c 1,3,-1
 1128 157 l 1,4,-1
 1127 0 l 1,5,-1
 95 0 l 1,6,-1
 95 157 l 1,7,-1
 172 157 l 1,8,9
 212 166 212 166 237 231.5 c 128,-1,10
 262 297 262 297 264 393 c 2,11,-1
 264 401 l 1,12,-1
 256 622 l 1,13,-1
 91 622 l 1,14,-1
 91 779 l 1,15,-1
 251 779 l 1,16,-1
 242 1039 l 1,17,18
 242 1238 242 1238 364.5 1357 c 128,-1,19
 487 1476 487 1476 687 1476 c 0,20,21
 877 1476 877 1476 988 1370 c 128,-1,22
 1099 1264 1099 1264 1099 1087 c 1,23,-1
 908 1087 l 1,24,25
 908 1194 908 1194 844.5 1256 c 128,-1,26
 781 1318 781 1318 670 1318 c 0,27,28
 565 1318 565 1318 500 1241 c 128,-1,29
 435 1164 435 1164 435 1039 c 1,30,-1
 444 779 l 1,31,-1
 763 779 l 1,32,-1
 763 622 l 1,33,-1
 449 622 l 1,0,-1
EndSplineSet
EndChar

StartChar: currency
Encoding: 164 164 102
Width: 1460
Flags: W
LayerCount: 2
Fore
SplineSet
1103 112 m 1,0,1
 944 -20 944 -20 735 -20 c 0,2,3
 528 -20 528 -20 369 110 c 1,4,-1
 235 -26 l 1,5,-1
 105 109 l 1,6,-1
 244 250 l 1,7,8
 140 406 140 406 140 608 c 0,9,10
 140 814 140 814 252 977 c 1,11,-1
 105 1128 l 1,12,-1
 235 1264 l 1,13,-1
 382 1114 l 1,14,15
 540 1234 540 1234 735 1234 c 0,16,17
 931 1234 931 1234 1090 1113 c 1,18,-1
 1239 1265 l 1,19,-1
 1371 1128 l 1,20,-1
 1220 974 l 1,21,22
 1330 811 1330 811 1330 608 c 0,23,24
 1330 412 1330 412 1228 253 c 1,25,-1
 1371 109 l 1,26,-1
 1239 -27 l 1,27,-1
 1103 112 l 1,0,1
311 608 m 0,28,29
 311 485 311 485 368.5 379 c 128,-1,30
 426 273 426 273 524 212 c 128,-1,31
 622 151 622 151 735 151 c 128,-1,32
 848 151 848 151 946 212.5 c 128,-1,33
 1044 274 1044 274 1100.5 379.5 c 128,-1,34
 1157 485 1157 485 1157 608 c 0,35,36
 1157 730 1157 730 1100.5 835.5 c 128,-1,37
 1044 941 1044 941 945.5 1001.5 c 128,-1,38
 847 1062 847 1062 735 1062 c 0,39,40
 622 1062 622 1062 524 1002 c 128,-1,41
 426 942 426 942 368.5 836 c 128,-1,42
 311 730 311 730 311 608 c 0,28,29
EndSplineSet
EndChar

StartChar: yen
Encoding: 165 165 103
Width: 1075
Flags: W
LayerCount: 2
Fore
SplineSet
539 793 m 1,0,-1
 847 1456 l 1,1,-1
 1060 1456 l 1,2,-1
 693 736 l 1,3,-1
 954 736 l 1,4,-1
 954 611 l 1,5,-1
 630 611 l 1,6,-1
 630 446 l 1,7,-1
 954 446 l 1,8,-1
 954 322 l 1,9,-1
 630 322 l 1,10,-1
 630 0 l 1,11,-1
 437 0 l 1,12,-1
 437 322 l 1,13,-1
 119 322 l 1,14,-1
 119 446 l 1,15,-1
 437 446 l 1,16,-1
 437 611 l 1,17,-1
 119 611 l 1,18,-1
 119 736 l 1,19,-1
 382 736 l 1,20,-1
 15 1456 l 1,21,-1
 231 1456 l 1,22,-1
 539 793 l 1,0,-1
EndSplineSet
EndChar

StartChar: brokenbar
Encoding: 166 166 104
Width: 491
Flags: W
LayerCount: 2
Fore
SplineSet
147 -270 m 1,0,-1
 147 521 l 1,1,-1
 333 521 l 1,2,-1
 333 -270 l 1,3,-1
 147 -270 l 1,0,-1
333 698 m 1,4,-1
 147 698 l 1,5,-1
 147 1456 l 1,6,-1
 333 1456 l 1,7,-1
 333 698 l 1,4,-1
EndSplineSet
EndChar

StartChar: section
Encoding: 167 167 105
Width: 1256
Flags: W
LayerCount: 2
Fore
SplineSet
1145 431 m 0,0,1
 1145 242 1145 242 959 157 c 1,2,3
 1028 108 1028 108 1064 40 c 128,-1,4
 1100 -28 1100 -28 1100 -128 c 0,5,6
 1100 -296 1100 -296 970 -395.5 c 128,-1,7
 840 -495 840 -495 612 -495 c 0,8,9
 500 -495 500 -495 399.5 -467 c 128,-1,10
 299 -439 299 -439 229 -382 c 0,11,12
 90 -269 90 -269 90 -64 c 1,13,-1
 276 -62 l 1,14,15
 276 -192 276 -192 366 -267.5 c 128,-1,16
 456 -343 456 -343 612 -343 c 0,17,18
 748 -343 748 -343 831 -284.5 c 128,-1,19
 914 -226 914 -226 914 -130 c 0,20,21
 914 -41 914 -41 843 11.5 c 128,-1,22
 772 64 772 64 563 126 c 1,23,24
 381 174 381 174 285 229.5 c 128,-1,25
 189 285 189 285 142.5 362.5 c 128,-1,26
 96 440 96 440 96 551 c 0,27,28
 96 737 96 737 278 825 c 1,29,30
 212 874 212 874 176.5 942 c 128,-1,31
 141 1010 141 1010 141 1110 c 0,32,33
 141 1276 141 1276 274.5 1376 c 128,-1,34
 408 1476 408 1476 630 1476 c 0,35,36
 862 1476 862 1476 992 1363 c 128,-1,37
 1122 1250 1122 1250 1122 1045 c 1,38,-1
 937 1045 l 1,39,40
 937 1170 937 1170 853 1247.5 c 128,-1,41
 769 1325 769 1325 630 1325 c 0,42,43
 488 1325 488 1325 407.5 1267.5 c 128,-1,44
 327 1210 327 1210 327 1112 c 0,45,46
 327 1043 327 1043 355 1003 c 128,-1,47
 383 963 383 963 450.5 930.5 c 128,-1,48
 518 898 518 898 661.5 858 c 128,-1,49
 805 818 805 818 889.5 782 c 128,-1,50
 974 746 974 746 1030.5 697.5 c 128,-1,51
 1087 649 1087 649 1116 584.5 c 128,-1,52
 1145 520 1145 520 1145 431 c 0,0,1
602 691 m 0,53,54
 512 715 512 715 437 742 c 1,55,56
 357 723 357 723 319.5 672.5 c 128,-1,57
 282 622 282 622 282 553 c 0,58,59
 282 483 282 483 309 443 c 128,-1,60
 336 403 336 403 402.5 370 c 128,-1,61
 469 337 469 337 611 296 c 128,-1,62
 753 255 753 255 797 238 c 1,63,64
 875 258 875 258 917 308.5 c 128,-1,65
 959 359 959 359 959 428 c 0,66,67
 959 516 959 516 889.5 570.5 c 128,-1,68
 820 625 820 625 602 691 c 0,53,54
EndSplineSet
EndChar

StartChar: dieresis
Encoding: 168 168 106
Width: 856
Flags: W
LayerCount: 2
Fore
SplineSet
101 1371 m 256,0,1
 101 1416 101 1416 128.5 1446.5 c 128,-1,2
 156 1477 156 1477 210 1477 c 128,-1,3
 264 1477 264 1477 292 1446.5 c 128,-1,4
 320 1416 320 1416 320 1371 c 128,-1,5
 320 1326 320 1326 292 1296 c 128,-1,6
 264 1266 264 1266 210 1266 c 128,-1,7
 156 1266 156 1266 128.5 1296 c 128,-1,8
 101 1326 101 1326 101 1371 c 256,0,1
531 1369 m 256,9,10
 531 1414 531 1414 558.5 1445 c 128,-1,11
 586 1476 586 1476 640 1476 c 128,-1,12
 694 1476 694 1476 722 1445 c 128,-1,13
 750 1414 750 1414 750 1369 c 128,-1,14
 750 1324 750 1324 722 1294 c 128,-1,15
 694 1264 694 1264 640 1264 c 128,-1,16
 586 1264 586 1264 558.5 1294 c 128,-1,17
 531 1324 531 1324 531 1369 c 256,9,10
EndSplineSet
EndChar

StartChar: copyright
Encoding: 169 169 107
Width: 1609
Flags: W
LayerCount: 2
Fore
SplineSet
1119 597 m 1,0,1
 1119 444 1119 444 1032.5 363.5 c 128,-1,2
 946 283 946 283 788 283 c 0,3,4
 631 283 631 283 536.5 388.5 c 128,-1,5
 442 494 442 494 442 676 c 2,6,-1
 442 786 l 2,7,8
 442 962 442 962 537.5 1067.5 c 128,-1,9
 633 1173 633 1173 788 1173 c 0,10,11
 948 1173 948 1173 1034 1091 c 128,-1,12
 1120 1009 1120 1009 1120 860 c 1,13,-1
 974 860 l 1,14,15
 974 959 974 959 926.5 1001.5 c 128,-1,16
 879 1044 879 1044 788 1044 c 0,17,18
 694 1044 694 1044 640 975 c 128,-1,19
 586 906 586 906 586 783 c 2,20,-1
 586 670 l 2,21,22
 586 550 586 550 640 481 c 128,-1,23
 694 412 694 412 788 412 c 0,24,25
 880 412 880 412 926.5 454 c 128,-1,26
 973 496 973 496 973 597 c 1,27,-1
 1119 597 l 1,0,1
206 729 m 0,28,29
 206 557 206 557 286 410.5 c 128,-1,30
 366 264 366 264 503.5 181 c 128,-1,31
 641 98 641 98 801 98 c 128,-1,32
 961 98 961 98 1098 181 c 128,-1,33
 1235 264 1235 264 1315 410.5 c 128,-1,34
 1395 557 1395 557 1395 729 c 0,35,36
 1395 899 1395 899 1316 1044 c 128,-1,37
 1237 1189 1237 1189 1099.5 1272.5 c 128,-1,38
 962 1356 962 1356 801 1356 c 0,39,40
 641 1356 641 1356 503 1273.5 c 128,-1,41
 365 1191 365 1191 285.5 1045 c 128,-1,42
 206 899 206 899 206 729 c 0,28,29
91 729 m 0,43,44
 91 931 91 931 184.5 1104 c 128,-1,45
 278 1277 278 1277 443.5 1376.5 c 128,-1,46
 609 1476 609 1476 801 1476 c 128,-1,47
 993 1476 993 1476 1158 1376.5 c 128,-1,48
 1323 1277 1323 1277 1416.5 1104 c 128,-1,49
 1510 931 1510 931 1510 729 c 0,50,51
 1510 532 1510 532 1420 360 c 128,-1,52
 1330 188 1330 188 1164.5 83.5 c 128,-1,53
 999 -21 999 -21 801 -21 c 0,54,55
 604 -21 604 -21 438.5 82.5 c 128,-1,56
 273 186 273 186 182 358 c 128,-1,57
 91 530 91 530 91 729 c 0,43,44
EndSplineSet
EndChar

StartChar: ordfeminine
Encoding: 170 170 108
Width: 915
Flags: W
LayerCount: 2
Fore
SplineSet
618 705 m 1,0,1
 606 739 606 739 600 777 c 1,2,3
 524 691 524 691 396 691 c 0,4,5
 277 691 277 691 212 753 c 128,-1,6
 147 815 147 815 147 918 c 0,7,8
 147 1029 147 1029 230.5 1089 c 128,-1,9
 314 1149 314 1149 486 1149 c 2,10,-1
 594 1149 l 1,11,-1
 594 1201 l 2,12,13
 594 1336 594 1336 470 1336 c 0,14,15
 401 1336 401 1336 361.5 1309 c 128,-1,16
 322 1282 322 1282 322 1231 c 1,17,-1
 161 1243 l 1,18,19
 161 1346 161 1346 247 1411 c 128,-1,20
 333 1476 333 1476 470 1476 c 0,21,22
 603 1476 603 1476 680 1404.5 c 128,-1,23
 757 1333 757 1333 757 1199 c 2,24,-1
 757 883 l 2,25,26
 757 786 757 786 783 705 c 1,27,-1
 618 705 l 1,0,1
435 828 m 0,28,29
 478 828 478 828 522 848 c 128,-1,30
 566 868 566 868 594 895 c 1,31,-1
 594 1037 l 1,32,-1
 482 1037 l 2,33,34
 399 1036 399 1036 354.5 1004.5 c 128,-1,35
 310 973 310 973 310 922 c 0,36,37
 310 828 310 828 435 828 c 0,28,29
EndSplineSet
EndChar

StartChar: logicalnot
Encoding: 172 172 110
Width: 1134
Flags: W
LayerCount: 2
Fore
SplineSet
958 375 m 1,0,-1
 772 375 l 1,1,-1
 772 639 l 1,2,-1
 127 639 l 1,3,-1
 127 800 l 1,4,-1
 958 800 l 1,5,-1
 958 375 l 1,0,-1
EndSplineSet
EndChar

StartChar: registered
Encoding: 174 174 111
Width: 1610
Flags: W
LayerCount: 2
Fore
SplineSet
90 729 m 0,0,1
 90 931 90 931 183.5 1104 c 128,-1,2
 277 1277 277 1277 442.5 1376.5 c 128,-1,3
 608 1476 608 1476 800 1476 c 128,-1,4
 992 1476 992 1476 1157 1376.5 c 128,-1,5
 1322 1277 1322 1277 1415.5 1104 c 128,-1,6
 1509 931 1509 931 1509 729 c 0,7,8
 1509 532 1509 532 1419 360 c 128,-1,9
 1329 188 1329 188 1163.5 83.5 c 128,-1,10
 998 -21 998 -21 800 -21 c 0,11,12
 603 -21 603 -21 437.5 82.5 c 128,-1,13
 272 186 272 186 181 358 c 128,-1,14
 90 530 90 530 90 729 c 0,0,1
205 729 m 0,15,16
 205 557 205 557 285 410.5 c 128,-1,17
 365 264 365 264 502.5 181 c 128,-1,18
 640 98 640 98 800 98 c 0,19,20
 961 98 961 98 1099 182.5 c 128,-1,21
 1237 267 1237 267 1315.5 412 c 128,-1,22
 1394 557 1394 557 1394 729 c 0,23,24
 1394 900 1394 900 1315.5 1044.5 c 128,-1,25
 1237 1189 1237 1189 1099 1272.5 c 128,-1,26
 961 1356 961 1356 800 1356 c 0,27,28
 640 1356 640 1356 502 1273.5 c 128,-1,29
 364 1191 364 1191 284.5 1045 c 128,-1,30
 205 899 205 899 205 729 c 0,15,16
653 654 m 1,31,-1
 653 316 l 1,32,-1
 512 316 l 1,33,-1
 512 1165 l 1,34,-1
 788 1165 l 2,35,36
 941 1165 941 1165 1025.5 1099.5 c 128,-1,37
 1110 1034 1110 1034 1110 909 c 0,38,39
 1110 786 1110 786 982 721 c 1,40,41
 1104 671 1104 671 1105 517 c 2,42,-1
 1105 456 l 2,43,44
 1105 370 1105 370 1122 332 c 1,45,-1
 1122 316 l 1,46,-1
 977 316 l 1,47,48
 963 352 963 352 963 444.5 c 128,-1,49
 963 537 963 537 960 554 c 0,50,51
 944 650 944 650 829 654 c 1,52,-1
 653 654 l 1,31,-1
653 782 m 1,53,-1
 809 782 l 2,54,55
 881 784 881 784 925 817 c 128,-1,56
 969 850 969 850 969 904 c 0,57,58
 969 977 969 977 930 1007.5 c 128,-1,59
 891 1038 891 1038 791 1038 c 2,60,-1
 653 1038 l 1,61,-1
 653 782 l 1,53,-1
EndSplineSet
EndChar

StartChar: macron
Encoding: 175 175 112
Width: 938
Flags: W
LayerCount: 2
Fore
SplineSet
814 1302 m 1,0,-1
 142 1302 l 1,1,-1
 142 1445 l 1,2,-1
 814 1445 l 1,3,-1
 814 1302 l 1,0,-1
EndSplineSet
EndChar

StartChar: degree
Encoding: 176 176 113
Width: 765
Flags: W
LayerCount: 2
Fore
SplineSet
130 1216 m 0,0,1
 130 1320 130 1320 204.5 1398 c 128,-1,2
 279 1476 279 1476 385 1476 c 0,3,4
 489 1476 489 1476 562.5 1398.5 c 128,-1,5
 636 1321 636 1321 636 1216 c 0,6,7
 636 1110 636 1110 562.5 1035 c 128,-1,8
 489 960 489 960 385 960 c 0,9,10
 280 960 280 960 205 1035 c 128,-1,11
 130 1110 130 1110 130 1216 c 0,0,1
385 1088 m 0,12,13
 439 1088 439 1088 476 1123.5 c 128,-1,14
 513 1159 513 1159 513 1216 c 0,15,16
 513 1274 513 1274 476 1311.5 c 128,-1,17
 439 1349 439 1349 385 1349 c 0,18,19
 330 1349 330 1349 292.5 1309.5 c 128,-1,20
 255 1270 255 1270 255 1216 c 128,-1,21
 255 1162 255 1162 292.5 1125 c 128,-1,22
 330 1088 330 1088 385 1088 c 0,12,13
EndSplineSet
EndChar

StartChar: plusminus
Encoding: 177 177 114
Width: 1094
Flags: W
LayerCount: 2
Fore
SplineSet
649 854 m 1,0,-1
 1013 854 l 1,1,-1
 1013 703 l 1,2,-1
 649 703 l 1,3,-1
 649 289 l 1,4,-1
 482 289 l 1,5,-1
 482 703 l 1,6,-1
 97 703 l 1,7,-1
 97 854 l 1,8,-1
 482 854 l 1,9,-1
 482 1267 l 1,10,-1
 649 1267 l 1,11,-1
 649 854 l 1,0,-1
970 0 m 1,12,-1
 135 0 l 1,13,-1
 135 152 l 1,14,-1
 970 152 l 1,15,-1
 970 0 l 1,12,-1
EndSplineSet
EndChar

StartChar: uni00B2
Encoding: 178 178 115
Width: 751
Flags: W
LayerCount: 2
Fore
SplineSet
683 667 m 1,0,-1
 84 667 l 1,1,-1
 84 775 l 1,2,-1
 384 1057 l 2,3,4
 493 1159 493 1159 493 1228 c 0,5,6
 493 1277 493 1277 461 1307.5 c 128,-1,7
 429 1338 429 1338 369 1338 c 0,8,9
 294 1338 294 1338 258.5 1300 c 128,-1,10
 223 1262 223 1262 223 1205 c 1,11,-1
 66 1205 l 1,12,13
 66 1319 66 1319 149.5 1393 c 128,-1,14
 233 1467 233 1467 365 1467 c 128,-1,15
 497 1467 497 1467 574 1403.5 c 128,-1,16
 651 1340 651 1340 651 1230 c 0,17,18
 651 1126 651 1126 544 1019 c 1,19,-1
 460 940 l 1,20,-1
 284 795 l 1,21,-1
 683 795 l 1,22,-1
 683 667 l 1,0,-1
EndSplineSet
EndChar

StartChar: uni00B3
Encoding: 179 179 116
Width: 751
Flags: W
LayerCount: 2
Fore
SplineSet
265 1126 m 1,0,-1
 349 1126 l 2,1,2
 423 1126 423 1126 459 1156.5 c 128,-1,3
 495 1187 495 1187 495 1235 c 0,4,5
 495 1280 495 1280 463.5 1309 c 128,-1,6
 432 1338 432 1338 362 1338 c 0,7,8
 305 1338 305 1338 267.5 1312.5 c 128,-1,9
 230 1287 230 1287 230 1246 c 1,10,-1
 73 1246 l 1,11,12
 73 1344 73 1344 154.5 1405.5 c 128,-1,13
 236 1467 236 1467 360 1467 c 0,14,15
 497 1467 497 1467 575 1406.5 c 128,-1,16
 653 1346 653 1346 653 1242 c 0,17,18
 653 1187 653 1187 618 1141.5 c 128,-1,19
 583 1096 583 1096 517 1071 c 1,20,21
 666 1030 666 1030 666 887 c 0,22,23
 666 781 666 781 581 718.5 c 128,-1,24
 496 656 496 656 360 656 c 0,25,26
 228 656 228 656 145 719 c 128,-1,27
 62 782 62 782 62 889 c 1,28,-1
 220 889 l 1,29,30
 220 844 220 844 259.5 814 c 128,-1,31
 299 784 299 784 366 784 c 0,32,33
 436 784 436 784 472.5 814 c 128,-1,34
 509 844 509 844 509 895 c 0,35,36
 509 1008 509 1008 353 1010 c 2,37,-1
 265 1010 l 1,38,-1
 265 1126 l 1,0,-1
EndSplineSet
EndChar

StartChar: acute
Encoding: 180 180 117
Width: 642
Flags: W
LayerCount: 2
Fore
SplineSet
316 1536 m 1,0,-1
 540 1536 l 1,1,-1
 272 1242 l 1,2,-1
 123 1242 l 1,3,-1
 316 1536 l 1,0,-1
EndSplineSet
EndChar

StartChar: mu
Encoding: 181 181 118
Width: 1160
Flags: W
LayerCount: 2
Fore
SplineSet
339 1082 m 1,0,-1
 339 449 l 2,1,2
 340 286 340 286 391.5 208 c 128,-1,3
 443 130 443 130 559 130 c 0,4,5
 758 130 758 130 820 282 c 1,6,-1
 820 1082 l 1,7,-1
 1006 1082 l 1,8,-1
 1006 0 l 1,9,-1
 839 0 l 1,10,-1
 830 115 l 1,11,12
 737 -20 737 -20 567 -20 c 0,13,14
 420 -20 420 -20 339 53 c 1,15,-1
 339 -416 l 1,16,-1
 154 -416 l 1,17,-1
 154 1082 l 1,18,-1
 339 1082 l 1,0,-1
EndSplineSet
EndChar

StartChar: paragraph
Encoding: 182 182 119
Width: 1001
Flags: W
LayerCount: 2
Fore
SplineSet
646 0 m 1,0,-1
 646 520 l 1,1,-1
 562 520 l 2,2,3
 332 520 332 520 199.5 647 c 128,-1,4
 67 774 67 774 67 988 c 0,5,6
 67 1201 67 1201 200 1328.5 c 128,-1,7
 333 1456 333 1456 563 1456 c 2,8,-1
 832 1456 l 1,9,-1
 832 0 l 1,10,-1
 646 0 l 1,0,-1
EndSplineSet
EndChar

StartChar: periodcentered
Encoding: 183 183 120
Width: 534
Flags: W
LayerCount: 2
Fore
SplineSet
147 729 m 0,0,1
 147 777 147 777 175.5 809 c 128,-1,2
 204 841 204 841 261 841 c 128,-1,3
 318 841 318 841 347.5 809 c 128,-1,4
 377 777 377 777 377 729 c 0,5,6
 377 682 377 682 347.5 650.5 c 128,-1,7
 318 619 318 619 261 619 c 128,-1,8
 204 619 204 619 175.5 650.5 c 128,-1,9
 147 682 147 682 147 729 c 0,0,1
EndSplineSet
EndChar

StartChar: cedilla
Encoding: 184 184 121
Width: 507
GlyphClass: 2
Flags: W
LayerCount: 2
Fore
SplineSet
285 0 m 1,0,-1
 273 -52 l 1,1,2
 426 -79 426 -79 426 -225 c 0,3,4
 426 -322 426 -322 346 -378.5 c 128,-1,5
 266 -435 266 -435 123 -435 c 1,6,-1
 116 -328 l 1,7,8
 195 -328 195 -328 238.5 -302 c 128,-1,9
 282 -276 282 -276 282 -229 c 0,10,11
 282 -185 282 -185 250 -164 c 128,-1,12
 218 -143 218 -143 120 -134 c 1,13,-1
 152 0 l 1,14,-1
 285 0 l 1,0,-1
EndSplineSet
EndChar

StartChar: uni00B9
Encoding: 185 185 122
Width: 751
Flags: W
LayerCount: 2
Fore
SplineSet
495 667 m 1,0,-1
 338 667 l 1,1,-1
 338 1268 l 1,2,-1
 122 1211 l 1,3,-1
 122 1339 l 1,4,-1
 477 1456 l 1,5,-1
 495 1456 l 1,6,-1
 495 667 l 1,0,-1
EndSplineSet
EndChar

StartChar: ordmasculine
Encoding: 186 186 123
Width: 931
Flags: W
LayerCount: 2
Fore
SplineSet
122 1123 m 2,0,1
 122 1281 122 1281 216 1378.5 c 128,-1,2
 310 1476 310 1476 464 1476 c 0,3,4
 619 1476 619 1476 713 1379.5 c 128,-1,5
 807 1283 807 1283 807 1117 c 2,6,-1
 807 1043 l 2,7,8
 807 884 807 884 713.5 787 c 128,-1,9
 620 690 620 690 466 690 c 128,-1,10
 312 690 312 690 217 787 c 128,-1,11
 122 884 122 884 122 1049 c 2,12,-1
 122 1123 l 2,0,1
285 1043 m 2,13,14
 285 943 285 943 333.5 886 c 128,-1,15
 382 829 382 829 466 829 c 0,16,17
 549 829 549 829 596.5 886.5 c 128,-1,18
 644 944 644 944 644 1045 c 2,19,-1
 644 1123 l 2,20,21
 644 1222 644 1222 595.5 1279 c 128,-1,22
 547 1336 547 1336 464 1336 c 0,23,24
 383 1336 383 1336 335 1281 c 128,-1,25
 287 1226 287 1226 285 1129 c 2,26,-1
 285 1043 l 2,13,14
EndSplineSet
EndChar

StartChar: questiondown
Encoding: 191 191 128
Width: 969
Flags: W
LayerCount: 2
Fore
SplineSet
588 680 m 1,0,1
 587 574 587 574 566.5 510.5 c 128,-1,2
 546 447 546 447 498 388 c 128,-1,3
 450 329 450 329 358 232.5 c 128,-1,4
 266 136 266 136 255 37 c 1,5,-1
 253 0 l 1,6,7
 253 -109 253 -109 311 -166.5 c 128,-1,8
 369 -224 369 -224 478 -224 c 0,9,10
 578 -224 578 -224 640.5 -167.5 c 128,-1,11
 703 -111 703 -111 703 -20 c 1,12,-1
 888 -20 l 1,13,14
 886 -181 886 -181 773.5 -283 c 128,-1,15
 661 -385 661 -385 478 -385 c 0,16,17
 282 -385 282 -385 175 -284.5 c 128,-1,18
 68 -184 68 -184 68 -5 c 0,19,20
 68 168 68 168 228 343 c 1,21,-1
 337 456 l 1,22,23
 403 534 403 534 403 680 c 1,24,-1
 588 680 l 1,0,1
596 997 m 0,25,26
 596 952 596 952 568.5 921 c 128,-1,27
 541 890 541 890 487 890 c 128,-1,28
 433 890 433 890 405 921 c 128,-1,29
 377 952 377 952 377 997 c 0,30,31
 377 1041 377 1041 405 1071 c 128,-1,32
 433 1101 433 1101 487 1101 c 128,-1,33
 541 1101 541 1101 568.5 1071 c 128,-1,34
 596 1041 596 1041 596 997 c 0,25,26
EndSplineSet
EndChar

StartChar: AE
Encoding: 198 198 129
Width: 1914
GlyphClass: 2
Flags: W
LayerCount: 2
Fore
SplineSet
1879 0 m 1,0,-1
 996 0 l 1,1,-1
 981 353 l 1,2,-1
 417 353 l 1,3,-1
 212 0 l 1,4,-1
 -14 0 l 1,5,-1
 866 1456 l 1,6,-1
 1817 1456 l 1,7,-1
 1817 1304 l 1,8,-1
 1126 1304 l 1,9,-1
 1146 833 l 1,10,-1
 1736 833 l 1,11,-1
 1736 682 l 1,12,-1
 1152 682 l 1,13,-1
 1174 151 l 1,14,-1
 1879 151 l 1,15,-1
 1879 0 l 1,0,-1
518 527 m 1,16,-1
 974 527 l 1,17,-1
 943 1260 l 1,18,-1
 518 527 l 1,16,-1
EndSplineSet
EndChar

StartChar: multiply
Encoding: 215 215 130
Width: 1092
Flags: W
LayerCount: 2
Fore
SplineSet
89 329 m 1,0,-1
 419 665 l 1,1,-1
 91 1000 l 1,2,-1
 210 1123 l 1,3,-1
 539 788 l 1,4,-1
 868 1123 l 1,5,-1
 987 1000 l 1,6,-1
 659 665 l 1,7,-1
 989 329 l 1,8,-1
 870 206 l 1,9,-1
 539 543 l 1,10,-1
 208 206 l 1,11,-1
 89 329 l 1,0,-1
EndSplineSet
EndChar

StartChar: Oslash
Encoding: 216 216 131
Width: 1408
GlyphClass: 2
Flags: W
LayerCount: 2
Fore
SplineSet
1289 681 m 2,0,1
 1289 467 1289 467 1217 307.5 c 128,-1,2
 1145 148 1145 148 1013 64 c 128,-1,3
 881 -20 881 -20 705 -20 c 0,4,5
 534 -20 534 -20 403 62 c 1,6,-1
 306 -93 l 1,7,-1
 164 -93 l 1,8,-1
 308 138 l 1,9,10
 118 330 118 330 118 690 c 2,11,-1
 118 773 l 2,12,13
 118 983 118 983 191 1144 c 128,-1,14
 264 1305 264 1305 397.5 1390.5 c 128,-1,15
 531 1476 531 1476 703 1476 c 0,16,17
 917 1476 917 1476 1065 1351 c 1,18,-1
 1168 1516 l 1,19,-1
 1309 1516 l 1,20,-1
 1150 1261 l 1,21,22
 1287 1074 1287 1074 1289 780 c 2,23,-1
 1289 681 l 2,0,1
309 681 m 2,24,25
 309 437 309 437 407 296 c 1,26,-1
 971 1200 l 1,27,28
 869 1311 869 1311 703 1311 c 0,29,30
 521 1311 521 1311 416.5 1172.5 c 128,-1,31
 312 1034 312 1034 309 788 c 2,32,-1
 309 681 l 2,24,25
1098 775 m 2,33,34
 1098 957 1098 957 1042 1088 c 1,35,-1
 493 207 l 1,36,37
 584 143 584 143 705 143 c 0,38,39
 891 143 891 143 993 278.5 c 128,-1,40
 1095 414 1095 414 1098 667 c 2,41,-1
 1098 775 l 2,33,34
EndSplineSet
EndChar

StartChar: Thorn
Encoding: 222 222 132
Width: 1210
Flags: W
LayerCount: 2
Fore
SplineSet
352 1456 m 1,0,-1
 352 1163 l 1,1,-1
 631 1163 l 2,2,3
 778 1163 778 1163 888 1110.5 c 128,-1,4
 998 1058 998 1058 1057.5 961 c 128,-1,5
 1117 864 1117 864 1117 738 c 0,6,7
 1117 544 1117 544 985 428.5 c 128,-1,8
 853 313 853 313 626 313 c 2,9,-1
 352 313 l 1,10,-1
 352 0 l 1,11,-1
 166 0 l 1,12,-1
 166 1456 l 1,13,-1
 352 1456 l 1,0,-1
352 1011 m 1,14,-1
 352 465 l 1,15,-1
 629 465 l 2,16,17
 771 465 771 465 851 540.5 c 128,-1,18
 931 616 931 616 931 736 c 0,19,20
 931 859 931 859 851 934.5 c 128,-1,21
 771 1010 771 1010 635 1011 c 2,22,-1
 352 1011 l 1,14,-1
EndSplineSet
EndChar

StartChar: germandbls
Encoding: 223 223 133
Width: 1218
Flags: W
LayerCount: 2
Fore
SplineSet
324 0 m 1,0,-1
 139 0 l 1,1,-1
 139 1111 l 2,2,3
 139 1319 139 1319 242.5 1436.5 c 128,-1,4
 346 1554 346 1554 532 1554 c 0,5,6
 712 1554 712 1554 810.5 1464.5 c 128,-1,7
 909 1375 909 1375 909 1216 c 0,8,9
 909 1091 909 1091 845 989.5 c 128,-1,10
 781 888 781 888 781 819 c 0,11,12
 781 768 781 768 818.5 720.5 c 128,-1,13
 856 673 856 673 950 601 c 128,-1,14
 1044 529 1044 529 1087 461 c 128,-1,15
 1130 393 1130 393 1130 317 c 0,16,17
 1130 158 1130 158 1028.5 69 c 128,-1,18
 927 -20 927 -20 745 -20 c 0,19,20
 664 -20 664 -20 573.5 2 c 128,-1,21
 483 24 483 24 445 52 c 1,22,-1
 488 207 l 1,23,24
 537 175 537 175 604.5 153 c 128,-1,25
 672 131 672 131 725 131 c 0,26,27
 832 131 832 131 888.5 178 c 128,-1,28
 945 225 945 225 945 307 c 0,29,30
 945 359 945 359 908 407 c 128,-1,31
 871 455 871 455 776.5 528.5 c 128,-1,32
 682 602 682 602 638.5 671 c 128,-1,33
 595 740 595 740 595 821 c 0,34,35
 595 910 595 910 664.5 1013.5 c 128,-1,36
 734 1117 734 1117 734 1201 c 0,37,38
 734 1295 734 1295 682 1348.5 c 128,-1,39
 630 1402 630 1402 542 1402 c 0,40,41
 324 1402 324 1402 324 1109 c 2,42,-1
 324 0 l 1,0,-1
EndSplineSet
EndChar

StartChar: ae
Encoding: 230 230 134
Width: 1729
GlyphClass: 2
Flags: W
LayerCount: 2
Fore
SplineSet
1262 -20 m 0,0,1
 1001 -20 1001 -20 865 160 c 1,2,3
 800 74 800 74 687 27 c 128,-1,4
 574 -20 574 -20 433 -20 c 0,5,6
 266 -20 266 -20 172 66.5 c 128,-1,7
 78 153 78 153 78 304 c 0,8,9
 78 461 78 461 191.5 548 c 128,-1,10
 305 635 305 635 526 635 c 2,11,-1
 749 635 l 1,12,-1
 749 720 l 2,13,14
 749 827 749 827 694 888.5 c 128,-1,15
 639 950 639 950 535 950 c 0,16,17
 430 950 430 950 360 895 c 128,-1,18
 290 840 290 840 290 759 c 1,19,-1
 106 778 l 1,20,21
 106 921 106 921 227 1011.5 c 128,-1,22
 348 1102 348 1102 535 1102 c 0,23,24
 650 1102 650 1102 738 1060.5 c 128,-1,25
 826 1019 826 1019 876 936 c 1,26,27
 939 1015 939 1015 1026 1058.5 c 128,-1,28
 1113 1102 1113 1102 1218 1102 c 0,29,30
 1428 1102 1428 1102 1544 973.5 c 128,-1,31
 1660 845 1660 845 1660 612 c 2,32,-1
 1660 497 l 1,33,-1
 932 497 l 1,34,35
 939 321 939 321 1026 225.5 c 128,-1,36
 1113 130 1113 130 1262 130 c 0,37,38
 1410 130 1410 130 1531 206 c 2,39,-1
 1578 237 l 1,40,-1
 1642 101 l 1,41,42
 1484 -20 1484 -20 1262 -20 c 0,0,1
469 130 m 0,43,44
 541 130 541 130 620 167 c 128,-1,45
 699 204 699 204 749 258 c 1,46,-1
 749 495 l 1,47,-1
 521 495 l 2,48,49
 404 493 404 493 334 438 c 128,-1,50
 264 383 264 383 264 300 c 0,51,52
 264 223 264 223 317 176.5 c 128,-1,53
 370 130 370 130 469 130 c 0,43,44
1218 950 m 0,54,55
 1103 950 1103 950 1028.5 864.5 c 128,-1,56
 954 779 954 779 937 640 c 1,57,-1
 1475 640 l 1,58,-1
 1475 671 l 2,59,60
 1475 803 1475 803 1408 876.5 c 128,-1,61
 1341 950 1341 950 1218 950 c 0,54,55
EndSplineSet
EndChar

StartChar: eth
Encoding: 240 240 135
Width: 1200
Flags: W
LayerCount: 2
Fore
SplineSet
820 1301 m 1,0,1
 1069 1037 1069 1037 1069 628 c 2,2,-1
 1069 535 l 2,3,4
 1069 377 1069 377 1010.5 250.5 c 128,-1,5
 952 124 952 124 844 52 c 128,-1,6
 736 -20 736 -20 602 -20 c 0,7,8
 467 -20 467 -20 357 44.5 c 128,-1,9
 247 109 247 109 186.5 221 c 128,-1,10
 126 333 126 333 126 467 c 0,11,12
 126 614 126 614 182 730.5 c 128,-1,13
 238 847 238 847 341.5 912 c 128,-1,14
 445 977 445 977 574 977 c 0,15,16
 737 977 737 977 858 863 c 1,17,18
 810 1058 810 1058 669 1199 c 1,19,-1
 451 1051 l 1,20,-1
 378 1150 l 1,21,-1
 570 1281 l 1,22,23
 438 1372 438 1372 255 1421 c 1,24,-1
 312 1580 l 1,25,26
 551 1526 551 1526 726 1387 c 1,27,-1
 915 1516 l 1,28,-1
 988 1416 l 1,29,-1
 820 1301 l 1,0,1
884 635 m 1,30,-1
 882 691 l 1,31,32
 849 752 849 752 779.5 788.5 c 128,-1,33
 710 825 710 825 618 825 c 0,34,35
 473 825 473 825 392 729.5 c 128,-1,36
 311 634 311 634 311 467 c 0,37,38
 311 327 311 327 394.5 229 c 128,-1,39
 478 131 478 131 606 131 c 0,40,41
 731 131 731 131 807.5 244 c 128,-1,42
 884 357 884 357 884 541 c 2,43,-1
 884 635 l 1,30,-1
EndSplineSet
EndChar

StartChar: divide
Encoding: 247 247 136
Width: 1169
Flags: W
LayerCount: 2
Fore
SplineSet
1069 600 m 1,0,-1
 71 600 l 1,1,-1
 71 784 l 1,2,-1
 1069 784 l 1,3,-1
 1069 600 l 1,0,-1
461 1098 m 0,4,5
 461 1146 461 1146 489.5 1178 c 128,-1,6
 518 1210 518 1210 575 1210 c 128,-1,7
 632 1210 632 1210 661.5 1178 c 128,-1,8
 691 1146 691 1146 691 1098 c 0,9,10
 691 1051 691 1051 661.5 1020 c 128,-1,11
 632 989 632 989 575 989 c 128,-1,12
 518 989 518 989 489.5 1020 c 128,-1,13
 461 1051 461 1051 461 1098 c 0,4,5
461 281 m 0,14,15
 461 329 461 329 489.5 361 c 128,-1,16
 518 393 518 393 575 393 c 128,-1,17
 632 393 632 393 661.5 361 c 128,-1,18
 691 329 691 329 691 281 c 0,19,20
 691 235 691 235 661.5 203.5 c 128,-1,21
 632 172 632 172 575 172 c 128,-1,22
 518 172 518 172 489.5 203.5 c 128,-1,23
 461 235 461 235 461 281 c 0,14,15
EndSplineSet
EndChar

StartChar: oslash
Encoding: 248 248 137
Width: 1160
GlyphClass: 2
Flags: W
LayerCount: 2
Fore
SplineSet
91 551 m 0,0,1
 91 710 91 710 152.5 836.5 c 128,-1,2
 214 963 214 963 326.5 1032.5 c 128,-1,3
 439 1102 439 1102 582 1102 c 0,4,5
 692 1102 692 1102 786 1060 c 1,6,-1
 859 1208 l 1,7,-1
 983 1208 l 1,8,-1
 881 1003 l 1,9,10
 1076 849 1076 849 1076 529 c 0,11,12
 1076 371 1076 371 1014 244 c 128,-1,13
 952 117 952 117 840 48.5 c 128,-1,14
 728 -20 728 -20 584 -20 c 0,15,16
 480 -20 480 -20 394 15 c 1,17,-1
 320 -134 l 1,18,-1
 196 -134 l 1,19,-1
 296 69 l 1,20,21
 91 218 91 218 91 551 c 0,0,1
276 529 m 0,22,23
 276 335 276 335 373 224 c 1,24,-1
 716 918 l 1,25,26
 654 950 654 950 582 950 c 0,27,28
 444 950 444 950 360 841 c 128,-1,29
 276 732 276 732 276 529 c 0,22,23
890 551 m 2,30,31
 890 733 890 733 803 844 c 1,32,-1
 463 156 l 1,33,34
 518 131 518 131 584 131 c 0,35,36
 723 131 723 131 806.5 240.5 c 128,-1,37
 890 350 890 350 890 535 c 2,38,-1
 890 551 l 2,30,31
EndSplineSet
EndChar

StartChar: thorn
Encoding: 254 254 138
Width: 1180
Flags: W
LayerCount: 2
Fore
SplineSet
1063 529 m 2,0,1
 1063 282 1063 282 950 131 c 128,-1,2
 837 -20 837 -20 644 -20 c 0,3,4
 447 -20 447 -20 334 105 c 1,5,-1
 334 -416 l 1,6,-1
 149 -416 l 1,7,-1
 149 1536 l 1,8,-1
 334 1536 l 1,9,-1
 334 970 l 1,10,11
 447 1102 447 1102 641 1102 c 0,12,13
 836 1102 836 1102 949.5 955 c 128,-1,14
 1063 808 1063 808 1063 546 c 2,15,-1
 1063 529 l 2,0,1
878 550 m 0,16,17
 878 733 878 733 800 839 c 128,-1,18
 722 945 722 945 586 945 c 0,19,20
 418 945 418 945 334 796 c 1,21,-1
 334 279 l 1,22,23
 417 131 417 131 588 131 c 0,24,25
 721 131 721 131 799.5 236.5 c 128,-1,26
 878 342 878 342 878 550 c 0,16,17
EndSplineSet
EndChar

StartChar: dotlessi
Encoding: 305 305 139
Width: 506
GlyphClass: 2
Flags: W
LayerCount: 2
Fore
SplineSet
341 0 m 1,0,-1
 155 0 l 1,1,-1
 155 1082 l 1,2,-1
 341 1082 l 1,3,-1
 341 0 l 1,0,-1
EndSplineSet
EndChar

StartChar: OE
Encoding: 338 338 140
Width: 1953
GlyphClass: 2
Flags: W
LayerCount: 2
Fore
SplineSet
1801 0 m 1,0,-1
 953 0 l 1,1,2
 775 -21 775 -21 661 -21 c 0,3,4
 499 -21 499 -21 372 54 c 128,-1,5
 245 129 245 129 175 264.5 c 128,-1,6
 105 400 105 400 104 571 c 2,7,-1
 104 880 l 2,8,9
 104 1052 104 1052 173.5 1188.5 c 128,-1,10
 243 1325 243 1325 370 1400.5 c 128,-1,11
 497 1476 497 1476 659 1476 c 0,12,13
 783 1476 783 1476 953 1456 c 1,14,-1
 1791 1456 l 1,15,-1
 1791 1298 l 1,16,-1
 1068 1298 l 1,17,-1
 1068 830 l 1,18,-1
 1699 830 l 1,19,-1
 1699 673 l 1,20,-1
 1068 673 l 1,21,-1
 1068 157 l 1,22,-1
 1801 157 l 1,23,-1
 1801 0 l 1,0,-1
661 130 m 0,24,25
 774 130 774 130 876 144 c 1,26,-1
 876 1310 l 1,27,28
 767 1325 767 1325 659 1325 c 0,29,30
 486 1325 486 1325 389 1210.5 c 128,-1,31
 292 1096 292 1096 290 889 c 2,32,-1
 290 576 l 2,33,34
 290 365 290 365 387.5 247.5 c 128,-1,35
 485 130 485 130 661 130 c 0,24,25
EndSplineSet
EndChar

StartChar: oe
Encoding: 339 339 141
Width: 1860
GlyphClass: 2
Flags: W
LayerCount: 2
Fore
SplineSet
97 551 m 2,0,1
 97 711 97 711 157.5 838 c 128,-1,2
 218 965 218 965 327.5 1033.5 c 128,-1,3
 437 1102 437 1102 579 1102 c 0,4,5
 716 1102 716 1102 816.5 1043.5 c 128,-1,6
 917 985 917 985 978 885 c 1,7,8
 1043 987 1043 987 1141 1044.5 c 128,-1,9
 1239 1102 1239 1102 1351 1102 c 0,10,11
 1558 1102 1558 1102 1675 975 c 128,-1,12
 1792 848 1792 848 1792 613 c 2,13,-1
 1792 497 l 1,14,-1
 1074 497 l 1,15,16
 1081 327 1081 327 1163 228.5 c 128,-1,17
 1245 130 1245 130 1379 130 c 0,18,19
 1567 130 1567 130 1687 238 c 1,20,-1
 1761 112 l 1,21,22
 1624 -20 1624 -20 1379 -20 c 0,23,24
 1244 -20 1244 -20 1141.5 36 c 128,-1,25
 1039 92 1039 92 976 192 c 1,26,27
 914 93 914 93 814.5 36.5 c 128,-1,28
 715 -20 715 -20 581 -20 c 0,29,30
 361 -20 361 -20 229 132 c 128,-1,31
 97 284 97 284 97 538 c 2,32,-1
 97 551 l 2,0,1
282 529 m 0,33,34
 282 346 282 346 362 238 c 128,-1,35
 442 130 442 130 581 130 c 0,36,37
 718 130 718 130 798 237.5 c 128,-1,38
 878 345 878 345 878 551 c 0,39,40
 878 733 878 733 797.5 841.5 c 128,-1,41
 717 950 717 950 579 950 c 0,42,43
 444 950 444 950 363 843 c 128,-1,44
 282 736 282 736 282 529 c 0,33,34
1351 950 m 0,45,46
 1252 950 1252 950 1177 868.5 c 128,-1,47
 1102 787 1102 787 1080 649 c 1,48,-1
 1606 649 l 1,49,-1
 1606 675 l 2,50,51
 1606 800 1606 800 1537.5 875 c 128,-1,52
 1469 950 1469 950 1351 950 c 0,45,46
EndSplineSet
EndChar

StartChar: circumflex
Encoding: 710 710 142
Width: 964
Flags: W
LayerCount: 2
Fore
SplineSet
774 1262 m 1,0,-1
 774 1252 l 1,1,-1
 621 1252 l 1,2,-1
 471 1422 l 1,3,-1
 322 1252 l 1,4,-1
 169 1252 l 1,5,-1
 169 1264 l 1,6,-1
 415 1536 l 1,7,-1
 527 1536 l 1,8,-1
 774 1262 l 1,0,-1
EndSplineSet
EndChar

StartChar: ring
Encoding: 730 730 143
Width: 685
Flags: W
LayerCount: 2
Fore
SplineSet
551 1408 m 0,0,1
 551 1321 551 1321 489 1262.5 c 128,-1,2
 427 1204 427 1204 336 1204 c 0,3,4
 244 1204 244 1204 182.5 1263 c 128,-1,5
 121 1322 121 1322 121 1408 c 128,-1,6
 121 1494 121 1494 182.5 1555 c 128,-1,7
 244 1616 244 1616 336 1616 c 128,-1,8
 428 1616 428 1616 489.5 1555 c 128,-1,9
 551 1494 551 1494 551 1408 c 0,0,1
220 1408 m 0,10,11
 220 1361 220 1361 253.5 1327 c 128,-1,12
 287 1293 287 1293 336 1293 c 0,13,14
 384 1293 384 1293 418 1326 c 128,-1,15
 452 1359 452 1359 452 1408 c 128,-1,16
 452 1457 452 1457 418.5 1491.5 c 128,-1,17
 385 1526 385 1526 336 1526 c 0,18,19
 286 1526 286 1526 253 1491 c 128,-1,20
 220 1456 220 1456 220 1408 c 0,10,11
EndSplineSet
EndChar

StartChar: tilde
Encoding: 732 732 144
Width: 966
Flags: W
LayerCount: 2
Fore
SplineSet
830 1500 m 1,0,1
 830 1392 830 1392 768.5 1325 c 128,-1,2
 707 1258 707 1258 615 1258 c 0,3,4
 574 1258 574 1258 544 1268 c 128,-1,5
 514 1278 514 1278 465.5 1309 c 128,-1,6
 417 1340 417 1340 395.5 1346.5 c 128,-1,7
 374 1353 374 1353 346 1353 c 0,8,9
 305 1353 305 1353 276 1321.5 c 128,-1,10
 247 1290 247 1290 247 1241 c 1,11,-1
 123 1248 l 1,12,13
 123 1355 123 1355 183.5 1425 c 128,-1,14
 244 1495 244 1495 337 1495 c 0,15,16
 372 1495 372 1495 400 1485 c 128,-1,17
 428 1475 428 1475 476 1446 c 128,-1,18
 524 1417 524 1417 549.5 1408 c 128,-1,19
 575 1399 575 1399 606 1399 c 0,20,21
 649 1399 649 1399 677.5 1433 c 128,-1,22
 706 1467 706 1467 706 1512 c 1,23,-1
 830 1500 l 1,0,1
EndSplineSet
EndChar

StartChar: quoteleft
Encoding: 8216 8216 151
Width: 409
Flags: W
LayerCount: 2
Fore
SplineSet
270 1555 m 1,0,-1
 376 1483 l 1,1,2
 283 1356 283 1356 280 1209 c 2,3,-1
 280 1073 l 1,4,-1
 96 1073 l 1,5,-1
 96 1189 l 2,6,7
 96 1291 96 1291 144.5 1391 c 128,-1,8
 193 1491 193 1491 270 1555 c 1,0,-1
EndSplineSet
EndChar

StartChar: quoteright
Encoding: 8217 8217 152
Width: 409
Flags: W
LayerCount: 2
Fore
SplineSet
153 1046 m 1,0,-1
 48 1118 l 1,1,2
 141 1248 141 1248 144 1392 c 2,3,-1
 144 1536 l 1,4,-1
 327 1536 l 1,5,-1
 327 1406 l 2,6,7
 326 1306 326 1306 277.5 1206.5 c 128,-1,8
 229 1107 229 1107 153 1046 c 1,0,-1
EndSplineSet
EndChar

StartChar: quotesinglbase
Encoding: 8218 8218 153
Width: 407
Flags: W
LayerCount: 2
Fore
SplineSet
141 -283 m 1,0,-1
 36 -210 l 1,1,2
 127 -83 127 -83 130 63 c 2,3,-1
 130 181 l 1,4,-1
 315 181 l 1,5,-1
 315 81 l 2,6,7
 315 -20 315 -20 265.5 -121 c 128,-1,8
 216 -222 216 -222 141 -283 c 1,0,-1
EndSplineSet
EndChar

StartChar: quotedblbase
Encoding: 8222 8222 156
Width: 705
Flags: W
LayerCount: 2
Fore
SplineSet
141 -301 m 1,0,-1
 36 -229 l 1,1,2
 127 -92 127 -92 130 61 c 2,3,-1
 130 246 l 1,4,-1
 315 246 l 1,5,-1
 315 82 l 2,6,7
 315 -26 315 -26 265.5 -131.5 c 128,-1,8
 216 -237 216 -237 141 -301 c 1,0,-1
437 -301 m 1,9,-1
 332 -229 l 1,10,11
 423 -92 423 -92 426 61 c 2,12,-1
 426 246 l 1,13,-1
 612 246 l 1,14,-1
 612 82 l 2,15,16
 612 -25 612 -25 563.5 -129.5 c 128,-1,17
 515 -234 515 -234 437 -301 c 1,9,-1
EndSplineSet
EndChar

StartChar: bullet
Encoding: 8226 8226 157
Width: 690
Flags: W
LayerCount: 2
Fore
SplineSet
138 772 m 2,0,1
 138 859 138 859 193.5 915 c 128,-1,2
 249 971 249 971 341 971 c 0,3,4
 432 971 432 971 489 916.5 c 128,-1,5
 546 862 546 862 546 769 c 2,6,-1
 546 732 l 2,7,8
 546 645 546 645 491 590 c 128,-1,9
 436 535 436 535 342 535 c 0,10,11
 249 535 249 535 193.5 590.5 c 128,-1,12
 138 646 138 646 138 734 c 2,13,-1
 138 772 l 2,0,1
EndSplineSet
EndChar

StartChar: guilsinglleft
Encoding: 8249 8249 159
Width: 614
Flags: W
LayerCount: 2
Fore
SplineSet
286 550 m 1,0,-1
 544 153 l 1,1,-1
 403 153 l 1,2,-1
 108 541 l 1,3,-1
 108 560 l 1,4,-1
 403 949 l 1,5,-1
 544 949 l 1,6,-1
 286 550 l 1,0,-1
EndSplineSet
EndChar

StartChar: guilsinglright
Encoding: 8250 8250 160
Width: 614
Flags: W
LayerCount: 2
Fore
SplineSet
231 949 m 1,0,-1
 526 560 l 1,1,-1
 526 541 l 1,2,-1
 231 152 l 1,3,-1
 89 152 l 1,4,-1
 347 550 l 1,5,-1
 89 949 l 1,6,-1
 231 949 l 1,0,-1
EndSplineSet
EndChar

StartChar: fraction
Encoding: 8260 8260 161
Width: 931
Flags: W
LayerCount: 2
Fore
SplineSet
163 110 m 1,0,-1
 59 176 l 1,1,-1
 770 1314 l 1,2,-1
 874 1248 l 1,3,-1
 163 110 l 1,0,-1
EndSplineSet
EndChar

StartChar: Euro
Encoding: 8364 8364 163
Width: 1150
Flags: W
LayerCount: 2
Fore
SplineSet
849 541 m 1,0,-1
 465 541 l 1,1,2
 469 346 469 346 559 241 c 128,-1,3
 649 136 649 136 814 136 c 0,4,5
 930 136 930 136 1032 170 c 1,6,-1
 1052 10 l 1,7,8
 932 -20 932 -20 812 -20 c 0,9,10
 564 -20 564 -20 421.5 126.5 c 128,-1,11
 279 273 279 273 273 541 c 1,12,-1
 95 541 l 1,13,-1
 95 665 l 1,14,-1
 273 665 l 1,15,-1
 273 802 l 1,16,-1
 95 802 l 1,17,-1
 95 927 l 1,18,-1
 273 927 l 1,19,20
 283 1189 283 1189 425.5 1332.5 c 128,-1,21
 568 1476 568 1476 811 1476 c 0,22,23
 917 1476 917 1476 1052 1445 c 1,24,-1
 1032 1283 l 1,25,26
 923 1318 923 1318 813 1318 c 0,27,28
 649 1318 649 1318 560.5 1216.5 c 128,-1,29
 472 1115 472 1115 466 927 c 1,30,-1
 849 927 l 1,31,-1
 849 802 l 1,32,-1
 465 802 l 1,33,-1
 465 665 l 1,34,-1
 849 665 l 1,35,-1
 849 541 l 1,0,-1
EndSplineSet
EndChar

StartChar: trademark
Encoding: 8482 8482 164
Width: 1281
Flags: W
LayerCount: 2
Fore
SplineSet
990 1313 m 1,0,-1
 850 919 l 1,1,-1
 798 919 l 1,2,-1
 658 1312 l 1,3,-1
 658 919 l 1,4,-1
 568 919 l 1,5,-1
 568 1456 l 1,6,-1
 680 1456 l 1,7,-1
 824 1057 l 1,8,-1
 968 1456 l 1,9,-1
 1080 1456 l 1,10,-1
 1080 919 l 1,11,-1
 990 919 l 1,12,-1
 990 1313 l 1,0,-1
489 1375 m 1,13,-1
 342 1375 l 1,14,-1
 342 919 l 1,15,-1
 251 919 l 1,16,-1
 251 1375 l 1,17,-1
 103 1375 l 1,18,-1
 103 1456 l 1,19,-1
 489 1456 l 1,20,-1
 489 1375 l 1,13,-1
EndSplineSet
EndChar

StartChar: minus
Encoding: 8722 8722 165
Width: 1170
Flags: W
LayerCount: 2
Fore
SplineSet
1003 651 m 1,0,-1
 168 651 l 1,1,-1
 168 802 l 1,2,-1
 1003 802 l 1,3,-1
 1003 651 l 1,0,-1
EndSplineSet
EndChar

StartChar: f_i.liga
Encoding: 1114115 -1 166
Width: 1134
GlyphClass: 3
Flags: W
LayerCount: 2
Fore
SplineSet
202 0 m 1,0,-1
 202 939 l 1,1,-1
 31 939 l 1,2,-1
 31 1082 l 1,3,-1
 202 1082 l 1,4,-1
 202 1174 l 2,5,6
 202 1355 202 1355 305.5 1456 c 128,-1,7
 409 1557 409 1557 598 1557 c 0,8,9
 710 1557 710 1557 881 1496 c 1,10,-1
 850 1340 l 1,11,12
 725 1390 725 1390 612 1390 c 0,13,14
 493 1390 493 1390 440.5 1336.5 c 128,-1,15
 388 1283 388 1283 388 1176 c 2,16,-1
 388 1082 l 1,17,-1
 609 1082 l 1,18,-1
 609 939 l 1,19,-1
 388 939 l 1,20,-1
 388 0 l 1,21,-1
 202 0 l 1,0,-1
973 0 m 1,22,-1
 787 0 l 1,23,-1
 787 1082 l 1,24,-1
 973 1082 l 1,25,-1
 973 0 l 1,22,-1
EndSplineSet
Ligature2: "'liga' Standard Ligatures in Latin lookup 1 subtable" f i
EndChar

StartChar: f_l.liga
Encoding: 1114116 -1 167
Width: 1163
GlyphClass: 3
Flags: W
LayerCount: 2
Fore
SplineSet
816 1379 m 1,0,1
 692 1399 692 1399 616 1399 c 0,2,3
 416 1399 416 1399 416 1189 c 2,4,-1
 416 1082 l 1,5,-1
 647 1082 l 1,6,-1
 647 939 l 1,7,-1
 416 939 l 1,8,-1
 416 0 l 1,9,-1
 231 0 l 1,10,-1
 231 939 l 1,11,-1
 60 939 l 1,12,-1
 60 1082 l 1,13,-1
 231 1082 l 1,14,-1
 231 1200 l 2,15,16
 232 1373 232 1373 328 1465 c 128,-1,17
 424 1557 424 1557 601 1557 c 0,18,19
 702 1557 702 1557 1001 1496 c 1,20,-1
 1001 0 l 1,21,-1
 816 0 l 1,22,-1
 816 1379 l 1,0,1
EndSplineSet
Ligature2: "'liga' Standard Ligatures in Latin lookup 2 subtable" f l
EndChar

StartChar: f_f_i.liga
Encoding: 1114117 -1 168
Width: 1748
GlyphClass: 3
Flags: W
LayerCount: 2
Fore
SplineSet
231 0 m 1,0,-1
 231 939 l 1,1,-1
 60 939 l 1,2,-1
 60 1082 l 1,3,-1
 231 1082 l 1,4,-1
 231 1193 l 2,5,6
 231 1367 231 1367 324 1462 c 128,-1,7
 417 1557 417 1557 587 1557 c 0,8,9
 651 1557 651 1557 714 1540 c 1,10,-1
 704 1390 l 1,11,12
 657 1399 657 1399 604 1399 c 0,13,14
 514 1399 514 1399 465 1346.5 c 128,-1,15
 416 1294 416 1294 416 1196 c 2,16,-1
 416 1082 l 1,17,-1
 816 1082 l 1,18,-1
 816 1174 l 2,19,20
 816 1355 816 1355 919.5 1456 c 128,-1,21
 1023 1557 1023 1557 1212 1557 c 0,22,23
 1324 1557 1324 1557 1495 1496 c 1,24,-1
 1464 1340 l 1,25,26
 1339 1390 1339 1390 1225 1390 c 0,27,28
 1106 1390 1106 1390 1053.5 1337 c 128,-1,29
 1001 1284 1001 1284 1001 1176 c 2,30,-1
 1001 1082 l 1,31,-1
 1223 1082 l 1,32,-1
 1223 939 l 1,33,-1
 1001 939 l 1,34,-1
 1001 0 l 1,35,-1
 816 0 l 1,36,-1
 816 939 l 1,37,-1
 416 939 l 1,38,-1
 416 0 l 1,39,-1
 231 0 l 1,0,-1
1586 0 m 1,40,-1
 1401 0 l 1,41,-1
 1401 1082 l 1,42,-1
 1586 1082 l 1,43,-1
 1586 0 l 1,40,-1
EndSplineSet
Ligature2: "'liga' Standard Ligatures in Latin lookup 1 subtable" f f i
EndChar

StartChar: f_f_l.liga
Encoding: 1114118 -1 169
Width: 1748
GlyphClass: 3
Flags: W
LayerCount: 2
Fore
SplineSet
231 0 m 1,0,-1
 231 939 l 1,1,-1
 60 939 l 1,2,-1
 60 1082 l 1,3,-1
 231 1082 l 1,4,-1
 231 1193 l 2,5,6
 231 1367 231 1367 324 1462 c 128,-1,7
 417 1557 417 1557 587 1557 c 0,8,9
 651 1557 651 1557 714 1540 c 1,10,-1
 704 1390 l 1,11,12
 657 1399 657 1399 604 1399 c 0,13,14
 514 1399 514 1399 465 1346.5 c 128,-1,15
 416 1294 416 1294 416 1196 c 2,16,-1
 416 1082 l 1,17,-1
 816 1082 l 1,18,-1
 816 1200 l 2,19,20
 817 1373 817 1373 913 1465 c 128,-1,21
 1009 1557 1009 1557 1186 1557 c 0,22,23
 1287 1557 1287 1557 1586 1496 c 1,24,-1
 1586 0 l 1,25,-1
 1401 0 l 1,26,-1
 1401 1379 l 1,27,28
 1277 1399 1277 1399 1201 1399 c 0,29,30
 1001 1399 1001 1399 1001 1189 c 2,31,-1
 1001 1082 l 1,32,-1
 1232 1082 l 1,33,-1
 1232 939 l 1,34,-1
 1001 939 l 1,35,-1
 1001 0 l 1,36,-1
 816 0 l 1,37,-1
 816 939 l 1,38,-1
 416 939 l 1,39,-1
 416 0 l 1,40,-1
 231 0 l 1,0,-1
EndSplineSet
Ligature2: "'liga' Standard Ligatures in Latin lookup 2 subtable" f f l
EndChar

StartChar: uniFFFD
Encoding: 65533 65533 171
Width: 2101
Flags: W
LayerCount: 2
Fore
SplineSet
1048 1618 m 1,0,-1
 2007 643 l 1,1,-1
 1048 -332 l 1,2,-1
 92 643 l 1,3,-1
 1048 1618 l 1,0,-1
1131 402 m 1,4,5
 1131 460 1131 460 1146 489 c 128,-1,6
 1161 518 1161 518 1197 542 c 1,7,8
 1271 581 1271 581 1317 648.5 c 128,-1,9
 1363 716 1363 716 1363 790 c 0,10,11
 1363 918 1363 918 1279.5 993.5 c 128,-1,12
 1196 1069 1196 1069 1047 1069 c 0,13,14
 903 1069 903 1069 823 999.5 c 128,-1,15
 743 930 743 930 741 803 c 1,16,-1
 944 803 l 1,17,18
 946 854 946 854 975 880 c 128,-1,19
 1004 906 1004 906 1047 906 c 0,20,21
 1104 906 1104 906 1132 874 c 128,-1,22
 1160 842 1160 842 1160 790 c 0,23,24
 1160 695 1160 695 1067 635 c 1,25,26
 976 570 976 570 952.5 524 c 128,-1,27
 929 478 929 478 929 402 c 1,28,-1
 1131 402 l 1,4,5
1131 311 m 1,29,-1
 929 311 l 1,30,-1
 929 141 l 1,31,-1
 1131 141 l 1,32,-1
 1131 311 l 1,29,-1
1056 -551 m 1,33,-1
 1060 -551 l 1,34,-1
 1060 -555 l 1,35,-1
 1056 -555 l 1,36,-1
 1056 -551 l 1,33,-1
1054 2163 m 1,37,-1
 1058 2163 l 1,38,-1
 1058 2159 l 1,39,-1
 1054 2159 l 1,40,-1
 1054 2163 l 1,37,-1
EndSplineSet
EndChar

StartChar: two.dnom
Encoding: 1114119 -1 172
Width: 751
Flags: W
LayerCount: 2
Fore
SplineSet
683 0 m 1,0,-1
 84 0 l 1,1,-1
 84 108 l 1,2,-1
 384 390 l 2,3,4
 493 492 493 492 493 561 c 0,5,6
 493 610 493 610 461 640.5 c 128,-1,7
 429 671 429 671 369 671 c 0,8,9
 294 671 294 671 258.5 633 c 128,-1,10
 223 595 223 595 223 538 c 1,11,-1
 66 538 l 1,12,13
 66 652 66 652 149.5 726 c 128,-1,14
 233 800 233 800 365 800 c 128,-1,15
 497 800 497 800 574 736.5 c 128,-1,16
 651 673 651 673 651 563 c 0,17,18
 651 459 651 459 544 352 c 1,19,-1
 460 273 l 1,20,-1
 284 128 l 1,21,-1
 683 128 l 1,22,-1
 683 0 l 1,0,-1
EndSplineSet
EndChar

StartChar: one.dnom
Encoding: 1114120 -1 173
Width: 751
Flags: W
LayerCount: 2
Fore
SplineSet
495 0 m 1,0,-1
 338 0 l 1,1,-1
 338 601 l 1,2,-1
 122 544 l 1,3,-1
 122 672 l 1,4,-1
 477 789 l 1,5,-1
 495 789 l 1,6,-1
 495 0 l 1,0,-1
EndSplineSet
EndChar

StartChar: zero.dnom
Encoding: 1114121 -1 174
Width: 751
Flags: W
LayerCount: 2
Fore
SplineSet
669 325 m 2,0,1
 669 163 669 163 593 76 c 128,-1,2
 517 -11 517 -11 376 -11 c 0,3,4
 237 -11 237 -11 159 75 c 128,-1,5
 81 161 81 161 80 321 c 2,6,-1
 80 463 l 2,7,8
 80 626 80 626 157.5 713 c 128,-1,9
 235 800 235 800 374 800 c 0,10,11
 515 800 515 800 591 714 c 128,-1,12
 667 628 667 628 669 471 c 2,13,-1
 669 325 l 2,0,1
512 478 m 2,14,15
 512 670 512 670 374 670 c 0,16,17
 241 670 241 670 237 490 c 1,18,-1
 237 311 l 2,19,20
 237 117 237 117 376 117 c 0,21,22
 508 117 508 117 512 298 c 1,23,-1
 512 478 l 2,14,15
EndSplineSet
EndChar

StartChar: three.dnom
Encoding: 1114122 -1 175
Width: 751
Flags: W
LayerCount: 2
Fore
SplineSet
265 459 m 1,0,-1
 349 459 l 2,1,2
 423 459 423 459 459 489.5 c 128,-1,3
 495 520 495 520 495 568 c 0,4,5
 495 613 495 613 463.5 642 c 128,-1,6
 432 671 432 671 362 671 c 0,7,8
 305 671 305 671 267.5 645.5 c 128,-1,9
 230 620 230 620 230 579 c 1,10,-1
 73 579 l 1,11,12
 73 677 73 677 154.5 738.5 c 128,-1,13
 236 800 236 800 360 800 c 0,14,15
 497 800 497 800 575 739.5 c 128,-1,16
 653 679 653 679 653 575 c 0,17,18
 653 520 653 520 618 474.5 c 128,-1,19
 583 429 583 429 517 404 c 1,20,21
 666 363 666 363 666 220 c 0,22,23
 666 114 666 114 581 51.5 c 128,-1,24
 496 -11 496 -11 360 -11 c 0,25,26
 228 -11 228 -11 145 52 c 128,-1,27
 62 115 62 115 62 222 c 1,28,-1
 220 222 l 1,29,30
 220 177 220 177 259.5 147 c 128,-1,31
 299 117 299 117 366 117 c 0,32,33
 436 117 436 117 472.5 147 c 128,-1,34
 509 177 509 177 509 228 c 0,35,36
 509 341 509 341 353 343 c 2,37,-1
 265 343 l 1,38,-1
 265 459 l 1,0,-1
EndSplineSet
EndChar

StartChar: four.dnom
Encoding: 1114123 -1 176
Width: 751
Flags: W
LayerCount: 2
Fore
SplineSet
592 299 m 1,0,-1
 699 299 l 1,1,-1
 699 169 l 1,2,-1
 592 169 l 1,3,-1
 592 0 l 1,4,-1
 435 0 l 1,5,-1
 435 169 l 1,6,-1
 60 169 l 1,7,-1
 54 271 l 1,8,-1
 431 789 l 1,9,-1
 592 789 l 1,10,-1
 592 299 l 1,0,-1
212 299 m 1,11,-1
 435 299 l 1,12,-1
 435 588 l 1,13,-1
 418 560 l 1,14,-1
 212 299 l 1,11,-1
EndSplineSet
EndChar

StartChar: five.dnom
Encoding: 1114124 -1 177
Width: 751
Flags: W
LayerCount: 2
Fore
SplineSet
112 387 m 1,0,-1
 162 789 l 1,1,-1
 640 789 l 1,2,-1
 640 657 l 1,3,-1
 291 657 l 1,4,-1
 269 487 l 1,5,6
 334 516 334 516 408 516 c 0,7,8
 536 516 536 516 607.5 447.5 c 128,-1,9
 679 379 679 379 679 258 c 0,10,11
 679 134 679 134 599 61.5 c 128,-1,12
 519 -11 519 -11 385 -11 c 0,13,14
 264 -11 264 -11 180.5 52 c 128,-1,15
 97 115 97 115 91 216 c 1,16,-1
 246 216 l 1,17,18
 256 117 256 117 385 117 c 0,19,20
 450 117 450 117 486 154.5 c 128,-1,21
 522 192 522 192 522 260 c 0,22,23
 522 322 522 322 483 360.5 c 128,-1,24
 444 399 444 399 370 399 c 0,25,26
 297 399 297 399 238 356 c 1,27,-1
 112 387 l 1,0,-1
EndSplineSet
EndChar

StartChar: six.dnom
Encoding: 1114125 -1 178
Width: 751
Flags: W
LayerCount: 2
Fore
SplineSet
552 798 m 1,0,-1
 552 667 l 1,1,-1
 535 667 l 2,2,3
 267 665 267 665 244 446 c 1,4,5
 316 523 316 523 430 523 c 0,6,7
 548 523 548 523 615.5 450.5 c 128,-1,8
 683 378 683 378 683 259 c 0,9,10
 683 143 683 143 603.5 66 c 128,-1,11
 524 -11 524 -11 392 -11 c 0,12,13
 253 -11 253 -11 169.5 72 c 128,-1,14
 86 155 86 155 86 306 c 2,15,-1
 86 357 l 2,16,17
 86 565 86 565 197 679 c 128,-1,18
 308 793 308 793 513 798 c 1,19,-1
 552 798 l 1,0,-1
387 396 m 0,20,21
 336 396 336 396 297.5 374 c 128,-1,22
 259 352 259 352 242 320 c 1,23,-1
 242 286 l 2,24,25
 242 202 242 202 283.5 159.5 c 128,-1,26
 325 117 325 117 388 117 c 0,27,28
 449 117 449 117 488 156.5 c 128,-1,29
 527 196 527 196 527 258 c 128,-1,30
 527 320 527 320 491.5 358 c 128,-1,31
 456 396 456 396 387 396 c 0,20,21
EndSplineSet
EndChar

StartChar: seven.dnom
Encoding: 1114126 -1 179
Width: 751
Flags: W
LayerCount: 2
Fore
SplineSet
677 699 m 1,0,-1
 328 0 l 1,1,-1
 162 0 l 1,2,-1
 511 659 l 1,3,-1
 58 659 l 1,4,-1
 58 789 l 1,5,-1
 677 789 l 1,6,-1
 677 699 l 1,0,-1
EndSplineSet
EndChar

StartChar: eight.dnom
Encoding: 1114127 -1 180
Width: 751
Flags: W
LayerCount: 2
Fore
SplineSet
651 579 m 0,0,1
 651 461 651 461 532 406 c 1,2,3
 671 347 671 347 671 216 c 0,4,5
 671 110 671 110 591 49.5 c 128,-1,6
 511 -11 511 -11 375 -11 c 128,-1,7
 239 -11 239 -11 159 49.5 c 128,-1,8
 79 110 79 110 79 216 c 0,9,10
 79 282 79 282 116 330.5 c 128,-1,11
 153 379 153 379 217 406 c 1,12,13
 98 461 98 461 98 579 c 0,14,15
 98 682 98 682 173.5 741 c 128,-1,16
 249 800 249 800 374 800 c 0,17,18
 500 800 500 800 575.5 741 c 128,-1,19
 651 682 651 682 651 579 c 0,0,1
514 228 m 0,20,21
 514 280 514 280 475 309 c 128,-1,22
 436 338 436 338 374 338 c 0,23,24
 311 338 311 338 273.5 309 c 128,-1,25
 236 280 236 280 236 228 c 0,26,27
 236 175 236 175 274 146 c 128,-1,28
 312 117 312 117 375 117 c 128,-1,29
 438 117 438 117 476 146 c 128,-1,30
 514 175 514 175 514 228 c 0,20,21
374 671 m 0,31,32
 319 671 319 671 287.5 644.5 c 128,-1,33
 256 618 256 618 256 570 c 0,34,35
 256 524 256 524 287.5 496 c 128,-1,36
 319 468 319 468 375 468 c 128,-1,37
 431 468 431 468 462.5 496 c 128,-1,38
 494 524 494 524 494 570 c 128,-1,39
 494 616 494 616 462 643.5 c 128,-1,40
 430 671 430 671 374 671 c 0,31,32
EndSplineSet
EndChar

StartChar: nine.dnom
Encoding: 1114128 -1 181
Width: 751
Flags: W
LayerCount: 2
Fore
SplineSet
502 320 m 1,0,1
 433 255 433 255 332 255 c 0,2,3
 214 255 214 255 143.5 324 c 128,-1,4
 73 393 73 393 73 519 c 0,5,6
 73 640 73 640 154.5 720 c 128,-1,7
 236 800 236 800 365 800 c 0,8,9
 502 800 502 800 580 717.5 c 128,-1,10
 658 635 658 635 661 487 c 2,11,-1
 661 426 l 2,12,13
 661 14 661 14 264 -6 c 1,14,-1
 209 -7 l 1,15,-1
 209 120 l 1,16,17
 359 120 359 120 425 169 c 128,-1,18
 491 218 491 218 502 320 c 1,0,1
368 376 m 0,19,20
 462 376 462 376 504 447 c 1,21,-1
 504 507 l 2,22,23
 504 590 504 590 464.5 630 c 128,-1,24
 425 670 425 670 365 670 c 0,25,26
 306 670 306 670 268 628 c 128,-1,27
 230 586 230 586 230 519 c 0,28,29
 230 454 230 454 267 415 c 128,-1,30
 304 376 304 376 368 376 c 0,19,20
EndSplineSet
EndChar

StartChar: Eth
Encoding: 208 208 191
Width: 1373
GlyphClass: 2
Flags: W
LayerCount: 2
Fore
SplineSet
199 0 m 1,0,-1
 199 666 l 1,1,-1
 7 666 l 1,2,-1
 7 817 l 1,3,-1
 199 817 l 1,4,-1
 199 1456 l 1,5,-1
 610 1456 l 2,6,7
 800 1456 800 1456 946 1372 c 128,-1,8
 1092 1288 1092 1288 1171.5 1133 c 128,-1,9
 1251 978 1251 978 1252 777 c 2,10,-1
 1252 684 l 2,11,12
 1252 478 1252 478 1172.5 323 c 128,-1,13
 1093 168 1093 168 945.5 85 c 128,-1,14
 798 2 798 2 602 0 c 2,15,-1
 199 0 l 1,0,-1
643 666 m 1,16,-1
 391 666 l 1,17,-1
 391 157 l 1,18,-1
 592 157 l 2,19,20
 814 157 814 157 937.5 294 c 128,-1,21
 1061 431 1061 431 1062 680 c 2,22,-1
 1062 773 l 2,23,24
 1062 1021 1062 1021 945.5 1158.5 c 128,-1,25
 829 1296 829 1296 615 1298 c 2,26,-1
 391 1298 l 1,27,-1
 391 817 l 1,28,-1
 643 817 l 1,29,-1
 643 666 l 1,16,-1
EndSplineSet
EndChar

StartChar: dev_danda
Encoding: 2404 2404 250
Width: 1211
VWidth: 2210
GlyphClass: 2
Flags: W
LayerCount: 2
Fore
SplineSet
973 0 m 1,0,-1
 852 0 l 1,1,-1
 852 1444 l 1,2,-1
 973 1444 l 1,3,-1
 973 0 l 1,0,-1
EndSplineSet
EndChar

StartChar: dev_dbldanda
Encoding: 2405 2405 251
Width: 1534
VWidth: 2210
GlyphClass: 2
Flags: W
LayerCount: 2
Fore
SplineSet
973 0 m 1,0,-1
 852 0 l 1,1,-1
 852 1444 l 1,2,-1
 973 1444 l 1,3,-1
 973 0 l 1,0,-1
1300 0 m 1,4,-1
 1178 0 l 1,5,-1
 1178 1444 l 1,6,-1
 1300 1444 l 1,7,-1
 1300 0 l 1,4,-1
EndSplineSet
EndChar

StartChar: uni0B01
Encoding: 2817 2817 252
Width: 0
VWidth: 2210
GlyphClass: 4
Flags: W
LayerCount: 2
Fore
SplineSet
-153 1551 m 0,0,1
 -234 1551 -234 1551 -306 1585 c 128,-1,2
 -378 1619 -378 1619 -433 1675 c 128,-1,3
 -488 1731 -488 1731 -520.5 1804.5 c 128,-1,4
 -553 1878 -553 1878 -554 1958 c 1,5,-1
 -432 1958 l 1,6,7
 -431 1904 -431 1904 -409.5 1853.5 c 128,-1,8
 -388 1803 -388 1803 -351 1764 c 128,-1,9
 -314 1725 -314 1725 -263.5 1701.5 c 128,-1,10
 -213 1678 -213 1678 -153 1678 c 256,11,12
 -93 1678 -93 1678 -42 1701.5 c 128,-1,13
 9 1725 9 1725 46 1764 c 128,-1,14
 83 1803 83 1803 104.5 1853.5 c 128,-1,15
 126 1904 126 1904 127 1958 c 1,16,-1
 249 1958 l 1,17,18
 247 1878 247 1878 214.5 1804.5 c 128,-1,19
 182 1731 182 1731 127.5 1675 c 128,-1,20
 73 1619 73 1619 1 1585 c 128,-1,21
 -71 1551 -71 1551 -153 1551 c 0,0,1
-247 1964 m 0,22,23
 -247 2006 -247 2006 -219.5 2034.5 c 128,-1,24
 -192 2063 -192 2063 -153 2063 c 0,25,26
 -111 2063 -111 2063 -84.5 2034.5 c 128,-1,27
 -58 2006 -58 2006 -58 1964 c 256,28,29
 -58 1922 -58 1922 -84.5 1894 c 128,-1,30
 -111 1866 -111 1866 -153 1866 c 0,31,32
 -173 1866 -173 1866 -190 1873.5 c 128,-1,33
 -207 1881 -207 1881 -219.5 1894.5 c 128,-1,34
 -232 1908 -232 1908 -239.5 1925.5 c 128,-1,35
 -247 1943 -247 1943 -247 1964 c 0,22,23
EndSplineSet
EndChar

StartChar: uni0B02
Encoding: 2818 2818 253
Width: 524
VWidth: 2210
GlyphClass: 4
Flags: W
LayerCount: 2
Fore
SplineSet
469 1161 m 0,0,1
 469 1106 469 1106 449.5 1052.5 c 128,-1,2
 430 999 430 999 393.5 956.5 c 128,-1,3
 357 914 357 914 304.5 888 c 128,-1,4
 252 862 252 862 187 862 c 256,5,6
 122 862 122 862 69.5 887.5 c 128,-1,7
 17 913 17 913 -19.5 955 c 128,-1,8
 -56 997 -56 997 -75.5 1050.5 c 128,-1,9
 -95 1104 -95 1104 -95 1161 c 0,10,11
 -95 1221 -95 1221 -75 1275.5 c 128,-1,12
 -55 1330 -55 1330 -18 1371 c 128,-1,13
 19 1412 19 1412 71 1436 c 128,-1,14
 123 1460 123 1460 187 1460 c 0,15,16
 256 1460 256 1460 308.5 1434.5 c 128,-1,17
 361 1409 361 1409 397 1367 c 128,-1,18
 433 1325 433 1325 451 1271.5 c 128,-1,19
 469 1218 469 1218 469 1161 c 0,0,1
348 1161 m 0,20,21
 348 1194 348 1194 337 1225 c 128,-1,22
 326 1256 326 1256 305 1280 c 128,-1,23
 284 1304 284 1304 254 1318.5 c 128,-1,24
 224 1333 224 1333 187 1333 c 0,25,26
 152 1333 152 1333 122.5 1318.5 c 128,-1,27
 93 1304 93 1304 72 1280 c 128,-1,28
 51 1256 51 1256 39 1225 c 128,-1,29
 27 1194 27 1194 27 1161 c 0,30,31
 27 1125 27 1125 38 1093.5 c 128,-1,32
 49 1062 49 1062 70 1039 c 128,-1,33
 91 1016 91 1016 120.5 1002.5 c 128,-1,34
 150 989 150 989 187 989 c 256,35,36
 224 989 224 989 254 1004 c 128,-1,37
 284 1019 284 1019 305 1043 c 128,-1,38
 326 1067 326 1067 337 1098 c 128,-1,39
 348 1129 348 1129 348 1161 c 0,20,21
EndSplineSet
EndChar

StartChar: uni0B03
Encoding: 2819 2819 254
Width: 805
VWidth: 2210
GlyphClass: 4
Flags: W
LayerCount: 2
Fore
SplineSet
407 1452 m 0,0,1
 484 1452 484 1452 548.5 1422 c 128,-1,2
 613 1392 613 1392 659 1344 c 128,-1,3
 705 1296 705 1296 730.5 1236.5 c 128,-1,4
 756 1177 756 1177 756 1118 c 0,5,6
 756 1053 756 1053 734.5 1000 c 128,-1,7
 713 947 713 947 677 902 c 128,-1,8
 641 857 641 857 595 818 c 128,-1,9
 549 779 549 779 500 741 c 1,10,11
 545 703 545 703 587 661.5 c 128,-1,12
 629 620 629 620 660.5 570.5 c 128,-1,13
 692 521 692 521 711 462.5 c 128,-1,14
 730 404 730 404 730 332 c 0,15,16
 730 267 730 267 708 207 c 128,-1,17
 686 147 686 147 644.5 101 c 128,-1,18
 603 55 603 55 543 27.5 c 128,-1,19
 483 0 483 0 407 0 c 256,20,21
 331 0 331 0 271 27.5 c 128,-1,22
 211 55 211 55 169.5 101 c 128,-1,23
 128 147 128 147 106 207 c 128,-1,24
 84 267 84 267 84 332 c 0,25,26
 84 404 84 404 103 462.5 c 128,-1,27
 122 521 122 521 153.5 570.5 c 128,-1,28
 185 620 185 620 227 661.5 c 128,-1,29
 269 703 269 703 314 741 c 1,30,31
 265 779 265 779 219 818 c 128,-1,32
 173 857 173 857 137.5 902 c 128,-1,33
 102 947 102 947 80.5 1000 c 128,-1,34
 59 1053 59 1053 59 1118 c 0,35,36
 59 1177 59 1177 84.5 1236.5 c 128,-1,37
 110 1296 110 1296 155.5 1344 c 128,-1,38
 201 1392 201 1392 265 1422 c 128,-1,39
 329 1452 329 1452 407 1452 c 0,0,1
407 1325 m 256,40,41
 355 1325 355 1325 313 1307 c 128,-1,42
 271 1289 271 1289 241.5 1259.5 c 128,-1,43
 212 1230 212 1230 196 1193 c 128,-1,44
 180 1156 180 1156 180 1118 c 0,45,46
 180 1070 180 1070 198.5 1029 c 128,-1,47
 217 988 217 988 248.5 951 c 128,-1,48
 280 914 280 914 321 880.5 c 128,-1,49
 362 847 362 847 407 813 c 1,50,51
 451 847 451 847 492 881 c 128,-1,52
 533 915 533 915 564.5 951.5 c 128,-1,53
 596 988 596 988 615 1029 c 128,-1,54
 634 1070 634 1070 634 1118 c 0,55,56
 634 1156 634 1156 618 1193 c 128,-1,57
 602 1230 602 1230 572.5 1259.5 c 128,-1,58
 543 1289 543 1289 501 1307 c 128,-1,59
 459 1325 459 1325 407 1325 c 256,40,41
608 332 m 0,60,61
 608 388 608 388 591.5 435.5 c 128,-1,62
 575 483 575 483 547.5 523.5 c 128,-1,63
 520 564 520 564 483.5 599.5 c 128,-1,64
 447 635 447 635 407 668 c 1,65,66
 367 635 367 635 330.5 599.5 c 128,-1,67
 294 564 294 564 266.5 523.5 c 128,-1,68
 239 483 239 483 222.5 435.5 c 128,-1,69
 206 388 206 388 206 332 c 0,70,71
 206 296 206 296 218.5 259 c 128,-1,72
 231 222 231 222 256.5 193 c 128,-1,73
 282 164 282 164 319.5 145.5 c 128,-1,74
 357 127 357 127 407 127 c 0,75,76
 456 127 456 127 494 145.5 c 128,-1,77
 532 164 532 164 557 193 c 128,-1,78
 582 222 582 222 595 259 c 128,-1,79
 608 296 608 296 608 332 c 0,60,61
EndSplineSet
EndChar

StartChar: uni0B05
Encoding: 2821 2821 255
Width: 1548
VWidth: 2210
GlyphClass: 2
Flags: W
LayerCount: 2
Fore
SplineSet
1268 302 m 1,0,1
 1223 236 1223 236 1161 181 c 128,-1,2
 1099 126 1099 126 1023.5 85.5 c 128,-1,3
 948 45 948 45 860.5 22.5 c 128,-1,4
 773 0 773 0 677 0 c 0,5,6
 547 0 547 0 438.5 33 c 128,-1,7
 330 66 330 66 251.5 123.5 c 128,-1,8
 173 181 173 181 129 259 c 128,-1,9
 85 337 85 337 85 426 c 0,10,11
 85 508 85 508 110.5 568 c 128,-1,12
 136 628 136 628 179.5 671.5 c 128,-1,13
 223 715 223 715 281.5 744.5 c 128,-1,14
 340 774 340 774 405.5 795.5 c 128,-1,15
 471 817 471 817 540.5 833.5 c 128,-1,16
 610 850 610 850 675.5 867 c 128,-1,17
 741 884 741 884 799.5 905 c 128,-1,18
 858 926 858 926 901.5 956.5 c 128,-1,19
 945 987 945 987 970.5 1029.5 c 128,-1,20
 996 1072 996 1072 996 1133 c 0,21,22
 996 1170 996 1170 985 1203.5 c 128,-1,23
 974 1237 974 1237 952 1262 c 128,-1,24
 930 1287 930 1287 896.5 1301.5 c 128,-1,25
 863 1316 863 1316 818 1316 c 0,26,27
 786 1316 786 1316 755 1306.5 c 128,-1,28
 724 1297 724 1297 699.5 1278.5 c 128,-1,29
 675 1260 675 1260 658 1234 c 128,-1,30
 641 1208 641 1208 637 1175 c 1,31,-1
 637 987 l 1,32,-1
 514 987 l 1,33,-1
 514 1164 l 2,34,35
 514 1194 514 1194 503 1221.5 c 128,-1,36
 492 1249 492 1249 470.5 1270 c 128,-1,37
 449 1291 449 1291 417.5 1303.5 c 128,-1,38
 386 1316 386 1316 345 1316 c 0,39,40
 301 1316 301 1316 268 1302.5 c 128,-1,41
 235 1289 235 1289 212.5 1266.5 c 128,-1,42
 190 1244 190 1244 179 1216 c 128,-1,43
 168 1188 168 1188 168 1159 c 0,44,45
 168 1134 168 1134 174 1110 c 128,-1,46
 180 1086 180 1086 194.5 1064.5 c 128,-1,47
 209 1043 209 1043 232 1025 c 128,-1,48
 255 1007 255 1007 289 995 c 1,49,-1
 237 890 l 1,50,51
 186 908 186 908 149.5 937 c 128,-1,52
 113 966 113 966 90 1001.5 c 128,-1,53
 67 1037 67 1037 56.5 1077.5 c 128,-1,54
 46 1118 46 1118 46 1160 c 0,55,56
 46 1208 46 1208 63.5 1258.5 c 128,-1,57
 81 1309 81 1309 117 1350 c 128,-1,58
 153 1391 153 1391 209.5 1417 c 128,-1,59
 266 1443 266 1443 344 1443 c 0,60,61
 419 1443 419 1443 479.5 1409 c 128,-1,62
 540 1375 540 1375 580 1315 c 1,63,64
 622 1378 622 1378 681.5 1410.5 c 128,-1,65
 741 1443 741 1443 818 1443 c 0,66,67
 890 1443 890 1443 946.5 1416 c 128,-1,68
 1003 1389 1003 1389 1041 1345.5 c 128,-1,69
 1079 1302 1079 1302 1099 1246.5 c 128,-1,70
 1119 1191 1119 1191 1119 1133 c 0,71,72
 1119 1055 1119 1055 1093.5 998 c 128,-1,73
 1068 941 1068 941 1024 899.5 c 128,-1,74
 980 858 980 858 922 829 c 128,-1,75
 864 800 864 800 798 778 c 128,-1,76
 732 756 732 756 663 738.5 c 128,-1,77
 594 721 594 721 528 702.5 c 128,-1,78
 462 684 462 684 404 661.5 c 128,-1,79
 346 639 346 639 302 607.5 c 128,-1,80
 258 576 258 576 232.5 532 c 128,-1,81
 207 488 207 488 207 426 c 0,82,83
 207 359 207 359 240 304 c 128,-1,84
 273 249 273 249 334 209.5 c 128,-1,85
 395 170 395 170 482 148.5 c 128,-1,86
 569 127 569 127 677 127 c 0,87,88
 755 127 755 127 829 148 c 128,-1,89
 903 169 903 169 968 205.5 c 128,-1,90
 1033 242 1033 242 1087 290.5 c 128,-1,91
 1141 339 1141 339 1180.5 395 c 128,-1,92
 1220 451 1220 451 1243 510.5 c 128,-1,93
 1266 570 1266 570 1268 628 c 2,94,-1
 1268 1443 l 1,95,-1
 1390 1443 l 1,96,-1
 1390 0 l 1,97,-1
 1268 0 l 1,98,-1
 1268 302 l 1,0,1
EndSplineSet
EndChar

StartChar: uni0B06
Encoding: 2822 2822 256
Width: 1836
VWidth: 2210
GlyphClass: 2
Flags: W
LayerCount: 2
Fore
SplineSet
1555 1443 m 1,0,-1
 1677 1443 l 1,1,-1
 1677 0 l 1,2,-1
 1555 0 l 1,3,-1
 1555 1443 l 1,0,-1
1268 302 m 1,4,5
 1223 236 1223 236 1161 181 c 128,-1,6
 1099 126 1099 126 1023.5 85.5 c 128,-1,7
 948 45 948 45 860.5 22.5 c 128,-1,8
 773 0 773 0 677 0 c 0,9,10
 547 0 547 0 438.5 33 c 128,-1,11
 330 66 330 66 251.5 123.5 c 128,-1,12
 173 181 173 181 129 259 c 128,-1,13
 85 337 85 337 85 426 c 0,14,15
 85 508 85 508 110.5 568 c 128,-1,16
 136 628 136 628 179.5 671.5 c 128,-1,17
 223 715 223 715 281.5 744.5 c 128,-1,18
 340 774 340 774 405.5 795.5 c 128,-1,19
 471 817 471 817 540.5 833.5 c 128,-1,20
 610 850 610 850 675.5 867 c 128,-1,21
 741 884 741 884 799.5 905 c 128,-1,22
 858 926 858 926 901.5 956.5 c 128,-1,23
 945 987 945 987 970.5 1029.5 c 128,-1,24
 996 1072 996 1072 996 1133 c 0,25,26
 996 1170 996 1170 985 1203.5 c 128,-1,27
 974 1237 974 1237 952 1262 c 128,-1,28
 930 1287 930 1287 896.5 1301.5 c 128,-1,29
 863 1316 863 1316 818 1316 c 0,30,31
 786 1316 786 1316 755 1306.5 c 128,-1,32
 724 1297 724 1297 699.5 1278.5 c 128,-1,33
 675 1260 675 1260 658 1234 c 128,-1,34
 641 1208 641 1208 637 1175 c 1,35,-1
 637 987 l 1,36,-1
 514 987 l 1,37,-1
 514 1164 l 2,38,39
 514 1194 514 1194 503 1221.5 c 128,-1,40
 492 1249 492 1249 470.5 1270 c 128,-1,41
 449 1291 449 1291 417.5 1303.5 c 128,-1,42
 386 1316 386 1316 345 1316 c 0,43,44
 301 1316 301 1316 268 1302.5 c 128,-1,45
 235 1289 235 1289 212.5 1266.5 c 128,-1,46
 190 1244 190 1244 179 1216 c 128,-1,47
 168 1188 168 1188 168 1159 c 0,48,49
 168 1134 168 1134 174 1110 c 128,-1,50
 180 1086 180 1086 194.5 1064.5 c 128,-1,51
 209 1043 209 1043 232 1025 c 128,-1,52
 255 1007 255 1007 289 995 c 1,53,-1
 237 890 l 1,54,55
 186 908 186 908 149.5 937 c 128,-1,56
 113 966 113 966 90 1001.5 c 128,-1,57
 67 1037 67 1037 56.5 1077.5 c 128,-1,58
 46 1118 46 1118 46 1160 c 0,59,60
 46 1208 46 1208 63.5 1258.5 c 128,-1,61
 81 1309 81 1309 117 1350 c 128,-1,62
 153 1391 153 1391 209.5 1417 c 128,-1,63
 266 1443 266 1443 344 1443 c 0,64,65
 419 1443 419 1443 479.5 1409 c 128,-1,66
 540 1375 540 1375 580 1315 c 1,67,68
 622 1378 622 1378 681.5 1410.5 c 128,-1,69
 741 1443 741 1443 818 1443 c 0,70,71
 890 1443 890 1443 946.5 1416 c 128,-1,72
 1003 1389 1003 1389 1041 1345.5 c 128,-1,73
 1079 1302 1079 1302 1099 1246.5 c 128,-1,74
 1119 1191 1119 1191 1119 1133 c 0,75,76
 1119 1055 1119 1055 1093.5 998 c 128,-1,77
 1068 941 1068 941 1024 899.5 c 128,-1,78
 980 858 980 858 922 829 c 128,-1,79
 864 800 864 800 798 778 c 128,-1,80
 732 756 732 756 663 738.5 c 128,-1,81
 594 721 594 721 528 702.5 c 128,-1,82
 462 684 462 684 404 661.5 c 128,-1,83
 346 639 346 639 302 607.5 c 128,-1,84
 258 576 258 576 232.5 532 c 128,-1,85
 207 488 207 488 207 426 c 0,86,87
 207 359 207 359 240 304 c 128,-1,88
 273 249 273 249 334 209.5 c 128,-1,89
 395 170 395 170 482 148.5 c 128,-1,90
 569 127 569 127 677 127 c 0,91,92
 755 127 755 127 829 148 c 128,-1,93
 903 169 903 169 968 205.5 c 128,-1,94
 1033 242 1033 242 1087 290.5 c 128,-1,95
 1141 339 1141 339 1180.5 395 c 128,-1,96
 1220 451 1220 451 1243 510.5 c 128,-1,97
 1266 570 1266 570 1268 628 c 2,98,-1
 1268 1443 l 1,99,-1
 1390 1443 l 1,100,-1
 1390 0 l 1,101,-1
 1268 0 l 1,102,-1
 1268 302 l 1,4,5
EndSplineSet
EndChar

StartChar: uni0B07
Encoding: 2823 2823 257
Width: 1610
VWidth: 2210
GlyphClass: 2
Flags: W
LayerCount: 2
Fore
SplineSet
148 365 m 0,0,1
 148 410 148 410 158 454 c 128,-1,2
 168 498 168 498 187 537 c 1,3,4
 119 594 119 594 81.5 678 c 128,-1,5
 44 762 44 762 44 868 c 0,6,7
 44 980 44 980 90 1084 c 128,-1,8
 136 1188 136 1188 225.5 1268 c 128,-1,9
 315 1348 315 1348 445.5 1396.5 c 128,-1,10
 576 1445 576 1445 745 1445 c 0,11,12
 862 1445 862 1445 961 1415 c 128,-1,13
 1060 1385 1060 1385 1140 1331 c 128,-1,14
 1220 1277 1220 1277 1280.5 1203 c 128,-1,15
 1341 1129 1341 1129 1382 1040.5 c 128,-1,16
 1423 952 1423 952 1443.5 853 c 128,-1,17
 1464 754 1464 754 1464 651 c 0,18,19
 1464 586 1464 586 1455 517.5 c 128,-1,20
 1446 449 1446 449 1429.5 379 c 128,-1,21
 1413 309 1413 309 1390 240.5 c 128,-1,22
 1367 172 1367 172 1338 108 c 1,23,-1
 1608 -119 l 1,24,-1
 1533 -214 l 1,25,-1
 1190 77 l 1,26,27
 1229 148 1229 148 1258 224 c 128,-1,28
 1287 300 1287 300 1305.5 375 c 128,-1,29
 1324 450 1324 450 1333 520.5 c 128,-1,30
 1342 591 1342 591 1342 651 c 0,31,32
 1342 795 1342 795 1300 917.5 c 128,-1,33
 1258 1040 1258 1040 1180 1129 c 128,-1,34
 1102 1218 1102 1218 991.5 1268 c 128,-1,35
 881 1318 881 1318 745 1318 c 0,36,37
 610 1318 610 1318 503 1283 c 128,-1,38
 396 1248 396 1248 321 1187.5 c 128,-1,39
 246 1127 246 1127 206.5 1044.5 c 128,-1,40
 167 962 167 962 167 868 c 0,41,42
 167 805 167 805 189 746 c 128,-1,43
 211 687 211 687 260 645 c 1,44,45
 298 685 298 685 345 708 c 128,-1,46
 392 731 392 731 443 731 c 0,47,48
 483 731 483 731 516.5 719.5 c 128,-1,49
 550 708 550 708 578.5 687.5 c 128,-1,50
 607 667 607 667 630.5 639 c 128,-1,51
 654 611 654 611 673 579 c 1,52,53
 716 646 716 646 773.5 688.5 c 128,-1,54
 831 731 831 731 906 731 c 0,55,56
 976 731 976 731 1030.5 697 c 128,-1,57
 1085 663 1085 663 1122 609.5 c 128,-1,58
 1159 556 1159 556 1178 491 c 128,-1,59
 1197 426 1197 426 1197 365 c 0,60,61
 1197 300 1197 300 1177 234.5 c 128,-1,62
 1157 169 1157 169 1119.5 117 c 128,-1,63
 1082 65 1082 65 1028 32.5 c 128,-1,64
 974 0 974 0 906 0 c 0,65,66
 828 0 828 0 771 41 c 128,-1,67
 714 82 714 82 672 148 c 1,68,69
 632 82 632 82 576.5 41 c 128,-1,70
 521 0 521 0 443 0 c 0,71,72
 375 0 375 0 320.5 31 c 128,-1,73
 266 62 266 62 227.5 113 c 128,-1,74
 189 164 189 164 168.5 230 c 128,-1,75
 148 296 148 296 148 365 c 0,0,1
441 127 m 0,76,77
 487 127 487 127 519.5 149 c 128,-1,78
 552 171 552 171 572.5 205.5 c 128,-1,79
 593 240 593 240 602.5 281.5 c 128,-1,80
 612 323 612 323 612 363 c 0,81,82
 612 406 612 406 602.5 449.5 c 128,-1,83
 593 493 593 493 572.5 527 c 128,-1,84
 552 561 552 561 520 582.5 c 128,-1,85
 488 604 488 604 444 604 c 0,86,87
 397 604 397 604 364 582 c 128,-1,88
 331 560 331 560 310 525.5 c 128,-1,89
 289 491 289 491 279.5 448 c 128,-1,90
 270 405 270 405 270 363 c 0,91,92
 270 316 270 316 281.5 273 c 128,-1,93
 293 230 293 230 314.5 197.5 c 128,-1,94
 336 165 336 165 368 146 c 128,-1,95
 400 127 400 127 441 127 c 0,76,77
905 127 m 0,96,97
 951 127 951 127 983.5 149 c 128,-1,98
 1016 171 1016 171 1036 205.5 c 128,-1,99
 1056 240 1056 240 1065.5 281.5 c 128,-1,100
 1075 323 1075 323 1075 363 c 0,101,102
 1075 406 1075 406 1065.5 449.5 c 128,-1,103
 1056 493 1056 493 1036 527 c 128,-1,104
 1016 561 1016 561 984 582.5 c 128,-1,105
 952 604 952 604 907 604 c 256,106,107
 862 604 862 604 830 583 c 128,-1,108
 798 562 798 562 777 528.5 c 128,-1,109
 756 495 756 495 745.5 453.5 c 128,-1,110
 735 412 735 412 734 371 c 2,111,-1
 734 363 l 2,112,113
 734 316 734 316 745.5 273 c 128,-1,114
 757 230 757 230 778.5 197.5 c 128,-1,115
 800 165 800 165 832 146 c 128,-1,116
 864 127 864 127 905 127 c 0,96,97
EndSplineSet
EndChar

StartChar: uni0B08
Encoding: 2824 2824 258
Width: 1614
VWidth: 2210
GlyphClass: 2
Flags: W
LayerCount: 2
Fore
SplineSet
150 365 m 0,0,1
 150 413 150 413 161 457.5 c 128,-1,2
 172 502 172 502 192 543 c 1,3,4
 127 585 127 585 86.5 649 c 128,-1,5
 46 713 46 713 46 788 c 0,6,7
 46 848 46 848 66.5 902 c 128,-1,8
 87 956 87 956 126 998.5 c 128,-1,9
 165 1041 165 1041 220.5 1069.5 c 128,-1,10
 276 1098 276 1098 346 1107 c 1,11,12
 344 1114 344 1114 344 1120 c 128,-1,13
 344 1126 344 1126 344 1133 c 2,14,-1
 344 1152 l 2,15,16
 344 1215 344 1215 375 1269.5 c 128,-1,17
 406 1324 406 1324 462.5 1365 c 128,-1,18
 519 1406 519 1406 598.5 1429.5 c 128,-1,19
 678 1453 678 1453 776 1453 c 0,20,21
 893 1453 893 1453 990 1416 c 128,-1,22
 1087 1379 1087 1379 1163.5 1316.5 c 128,-1,23
 1240 1254 1240 1254 1297 1171.5 c 128,-1,24
 1354 1089 1354 1089 1391.5 998.5 c 128,-1,25
 1429 908 1429 908 1447.5 815.5 c 128,-1,26
 1466 723 1466 723 1466 640 c 0,27,28
 1466 510 1466 510 1432 373.5 c 128,-1,29
 1398 237 1398 237 1340 108 c 1,30,-1
 1610 -119 l 1,31,-1
 1535 -214 l 1,32,-1
 1192 77 l 1,33,34
 1231 148 1231 148 1260 222.5 c 128,-1,35
 1289 297 1289 297 1307.5 369.5 c 128,-1,36
 1326 442 1326 442 1335 511 c 128,-1,37
 1344 580 1344 580 1344 640 c 0,38,39
 1344 718 1344 718 1327.5 799 c 128,-1,40
 1311 880 1311 880 1278 956 c 128,-1,41
 1245 1032 1245 1032 1197 1099.5 c 128,-1,42
 1149 1167 1149 1167 1085.5 1217.5 c 128,-1,43
 1022 1268 1022 1268 944.5 1297 c 128,-1,44
 867 1326 867 1326 776 1326 c 0,45,46
 700 1326 700 1326 643 1309.5 c 128,-1,47
 586 1293 586 1293 548.5 1266.5 c 128,-1,48
 511 1240 511 1240 492.5 1207 c 128,-1,49
 474 1174 474 1174 474 1142 c 0,50,51
 474 1125 474 1125 476 1110.5 c 128,-1,52
 478 1096 478 1096 488 1080 c 1,53,54
 534 1059 534 1059 578 1021 c 128,-1,55
 622 983 622 983 673 925 c 1,56,-1
 578 833 l 1,57,58
 551 867 551 867 525.5 891.5 c 128,-1,59
 500 916 500 916 474 932 c 128,-1,60
 448 948 448 948 419 955.5 c 128,-1,61
 390 963 390 963 354 963 c 0,62,63
 314 963 314 963 280.5 947.5 c 128,-1,64
 247 932 247 932 223 907.5 c 128,-1,65
 199 883 199 883 185.5 851.5 c 128,-1,66
 172 820 172 820 172 788 c 0,67,68
 172 746 172 746 195.5 708.5 c 128,-1,69
 219 671 219 671 264 645 c 1,70,71
 303 685 303 685 349.5 708 c 128,-1,72
 396 731 396 731 445 731 c 0,73,74
 485 731 485 731 518.5 719.5 c 128,-1,75
 552 708 552 708 580.5 687.5 c 128,-1,76
 609 667 609 667 632.5 639 c 128,-1,77
 656 611 656 611 675 579 c 1,78,79
 718 646 718 646 775.5 688.5 c 128,-1,80
 833 731 833 731 908 731 c 0,81,82
 978 731 978 731 1032.5 697 c 128,-1,83
 1087 663 1087 663 1124 609.5 c 128,-1,84
 1161 556 1161 556 1180 491 c 128,-1,85
 1199 426 1199 426 1199 365 c 0,86,87
 1199 300 1199 300 1179 234.5 c 128,-1,88
 1159 169 1159 169 1121.5 117 c 128,-1,89
 1084 65 1084 65 1030 32.5 c 128,-1,90
 976 0 976 0 908 0 c 0,91,92
 830 0 830 0 773 41 c 128,-1,93
 716 82 716 82 674 148 c 1,94,95
 634 82 634 82 578.5 41 c 128,-1,96
 523 0 523 0 445 0 c 0,97,98
 377 0 377 0 322.5 31 c 128,-1,99
 268 62 268 62 229.5 113 c 128,-1,100
 191 164 191 164 170.5 230 c 128,-1,101
 150 296 150 296 150 365 c 0,0,1
443 127 m 0,102,103
 489 127 489 127 521.5 149 c 128,-1,104
 554 171 554 171 574.5 205.5 c 128,-1,105
 595 240 595 240 604.5 281.5 c 128,-1,106
 614 323 614 323 614 363 c 0,107,108
 614 406 614 406 604.5 449.5 c 128,-1,109
 595 493 595 493 574.5 527 c 128,-1,110
 554 561 554 561 522 582.5 c 128,-1,111
 490 604 490 604 446 604 c 0,112,113
 399 604 399 604 366 582 c 128,-1,114
 333 560 333 560 312 525.5 c 128,-1,115
 291 491 291 491 281.5 448 c 128,-1,116
 272 405 272 405 272 363 c 0,117,118
 272 316 272 316 283.5 273 c 128,-1,119
 295 230 295 230 316.5 197.5 c 128,-1,120
 338 165 338 165 370 146 c 128,-1,121
 402 127 402 127 443 127 c 0,102,103
907 127 m 0,122,123
 953 127 953 127 985.5 149 c 128,-1,124
 1018 171 1018 171 1038 205.5 c 128,-1,125
 1058 240 1058 240 1067.5 281.5 c 128,-1,126
 1077 323 1077 323 1077 363 c 0,127,128
 1077 406 1077 406 1067.5 449.5 c 128,-1,129
 1058 493 1058 493 1038 527 c 128,-1,130
 1018 561 1018 561 986 582.5 c 128,-1,131
 954 604 954 604 909 604 c 256,132,133
 864 604 864 604 832 583 c 128,-1,134
 800 562 800 562 779 528.5 c 128,-1,135
 758 495 758 495 747.5 453.5 c 128,-1,136
 737 412 737 412 736 371 c 2,137,-1
 736 363 l 2,138,139
 736 316 736 316 747.5 273 c 128,-1,140
 759 230 759 230 780.5 197.5 c 128,-1,141
 802 165 802 165 834 146 c 128,-1,142
 866 127 866 127 907 127 c 0,122,123
EndSplineSet
EndChar

StartChar: uni0B09
Encoding: 2825 2825 259
Width: 1517
VWidth: 2210
GlyphClass: 2
Flags: W
LayerCount: 2
Fore
SplineSet
268 413 m 0,0,1
 268 429 268 429 269 444.5 c 128,-1,2
 270 460 270 460 272 476 c 1,3,4
 220 501 220 501 179 539.5 c 128,-1,5
 138 578 138 578 109.5 626 c 128,-1,6
 81 674 81 674 65.5 730.5 c 128,-1,7
 50 787 50 787 50 849 c 0,8,9
 50 933 50 933 74 1010 c 128,-1,10
 98 1087 98 1087 142 1153 c 128,-1,11
 186 1219 186 1219 247 1273 c 128,-1,12
 308 1327 308 1327 382 1365 c 128,-1,13
 456 1403 456 1403 541 1424 c 128,-1,14
 626 1445 626 1445 717 1445 c 0,15,16
 837 1445 837 1445 935.5 1416 c 128,-1,17
 1034 1387 1034 1387 1112 1336.5 c 128,-1,18
 1190 1286 1190 1286 1248 1218 c 128,-1,19
 1306 1150 1306 1150 1344 1072.5 c 128,-1,20
 1382 995 1382 995 1400.5 911.5 c 128,-1,21
 1419 828 1419 828 1419 746 c 0,22,23
 1419 600 1419 600 1374 457.5 c 128,-1,24
 1329 315 1329 315 1224 184 c 1,25,-1
 1487 -77 l 1,26,-1
 1400 -164 l 1,27,-1
 1062 171 l 1,28,29
 1120 240 1120 240 1164.5 308 c 128,-1,30
 1209 376 1209 376 1238 446.5 c 128,-1,31
 1267 517 1267 517 1282 591 c 128,-1,32
 1297 665 1297 665 1297 746 c 0,33,34
 1297 854 1297 854 1256 956.5 c 128,-1,35
 1215 1059 1215 1059 1139.5 1139.5 c 128,-1,36
 1064 1220 1064 1220 957 1269 c 128,-1,37
 850 1318 850 1318 717 1318 c 0,38,39
 603 1318 603 1318 503.5 1279.5 c 128,-1,40
 404 1241 404 1241 330.5 1176.5 c 128,-1,41
 257 1112 257 1112 214.5 1027 c 128,-1,42
 172 942 172 942 172 849 c 0,43,44
 172 814 172 814 180 778.5 c 128,-1,45
 188 743 188 743 204.5 711 c 128,-1,46
 221 679 221 679 247.5 651 c 128,-1,47
 274 623 274 623 310 603 c 1,48,49
 348 687 348 687 413.5 753 c 128,-1,50
 479 819 479 819 564 867 c 1,51,-1
 630 757 l 1,52,53
 506 687 506 687 447.5 597 c 128,-1,54
 389 507 389 507 389 413 c 0,55,56
 389 354 389 354 406.5 302 c 128,-1,57
 424 250 424 250 460.5 211 c 128,-1,58
 497 172 497 172 552.5 149.5 c 128,-1,59
 608 127 608 127 684 127 c 0,60,61
 746 127 746 127 794.5 148 c 128,-1,62
 843 169 843 169 876 202.5 c 128,-1,63
 909 236 909 236 926.5 278 c 128,-1,64
 944 320 944 320 944 363 c 0,65,66
 944 427 944 427 920 475 c 128,-1,67
 896 523 896 523 838 561 c 1,68,-1
 696 369 l 1,69,-1
 598 442 l 1,70,-1
 912 867 l 1,71,-1
 1010 794 l 1,72,-1
 913 662 l 1,73,74
 995 605 995 605 1030.5 530.5 c 128,-1,75
 1066 456 1066 456 1066 365 c 0,76,77
 1066 305 1066 305 1044 240 c 128,-1,78
 1022 175 1022 175 975.5 122 c 128,-1,79
 929 69 929 69 857 34.5 c 128,-1,80
 785 0 785 0 686 0 c 0,81,82
 597 0 597 0 520.5 31 c 128,-1,83
 444 62 444 62 388 117 c 128,-1,84
 332 172 332 172 300 247.5 c 128,-1,85
 268 323 268 323 268 413 c 0,0,1
EndSplineSet
EndChar

StartChar: uni0B0A
Encoding: 2826 2826 260
Width: 1540
VWidth: 2210
GlyphClass: 2
Flags: W
LayerCount: 2
Fore
SplineSet
268 413 m 0,0,1
 268 429 268 429 269 444.5 c 128,-1,2
 270 460 270 460 272 476 c 1,3,4
 220 501 220 501 179 539.5 c 128,-1,5
 138 578 138 578 109.5 626 c 128,-1,6
 81 674 81 674 65.5 730.5 c 128,-1,7
 50 787 50 787 50 849 c 0,8,9
 50 933 50 933 74 1010 c 128,-1,10
 98 1087 98 1087 142 1153 c 128,-1,11
 186 1219 186 1219 247 1273 c 128,-1,12
 308 1327 308 1327 382 1365 c 128,-1,13
 456 1403 456 1403 541 1424 c 128,-1,14
 626 1445 626 1445 717 1445 c 0,15,16
 837 1445 837 1445 935.5 1416 c 128,-1,17
 1034 1387 1034 1387 1112 1336.5 c 128,-1,18
 1190 1286 1190 1286 1248 1218 c 128,-1,19
 1306 1150 1306 1150 1344 1072.5 c 128,-1,20
 1382 995 1382 995 1400.5 911.5 c 128,-1,21
 1419 828 1419 828 1419 746 c 0,22,23
 1419 652 1419 652 1391 582 c 128,-1,24
 1363 512 1363 512 1299 458 c 1,25,26
 1341 442 1341 442 1370 418.5 c 128,-1,27
 1399 395 1399 395 1417 367.5 c 128,-1,28
 1435 340 1435 340 1443 309.5 c 128,-1,29
 1451 279 1451 279 1451 248 c 0,30,31
 1451 208 1451 208 1432 172.5 c 128,-1,32
 1413 137 1413 137 1385 106 c 128,-1,33
 1357 75 1357 75 1324.5 48 c 128,-1,34
 1292 21 1292 21 1265 -1 c 1,35,-1
 1490 -208 l 1,36,-1
 1409 -299 l 1,37,-1
 1078 5 l 1,38,39
 1115 27 1115 27 1159 54.5 c 128,-1,40
 1203 82 1203 82 1241.5 113.5 c 128,-1,41
 1280 145 1280 145 1306 179 c 128,-1,42
 1332 213 1332 213 1332 248 c 0,43,44
 1332 270 1332 270 1322.5 293 c 128,-1,45
 1313 316 1313 316 1292.5 335 c 128,-1,46
 1272 354 1272 354 1240 365.5 c 128,-1,47
 1208 377 1208 377 1163 377 c 1,48,-1
 1139 483 l 1,49,50
 1181 500 1181 500 1211 526.5 c 128,-1,51
 1241 553 1241 553 1260 587.5 c 128,-1,52
 1279 622 1279 622 1288 662 c 128,-1,53
 1297 702 1297 702 1297 746 c 0,54,55
 1297 854 1297 854 1256 956.5 c 128,-1,56
 1215 1059 1215 1059 1139.5 1139.5 c 128,-1,57
 1064 1220 1064 1220 957 1269 c 128,-1,58
 850 1318 850 1318 717 1318 c 0,59,60
 603 1318 603 1318 503.5 1279.5 c 128,-1,61
 404 1241 404 1241 330.5 1176.5 c 128,-1,62
 257 1112 257 1112 214.5 1027 c 128,-1,63
 172 942 172 942 172 849 c 0,64,65
 172 814 172 814 180 778.5 c 128,-1,66
 188 743 188 743 204.5 711 c 128,-1,67
 221 679 221 679 247.5 651 c 128,-1,68
 274 623 274 623 310 603 c 1,69,70
 348 687 348 687 413.5 753 c 128,-1,71
 479 819 479 819 564 867 c 1,72,-1
 630 757 l 1,73,74
 506 687 506 687 447.5 597 c 128,-1,75
 389 507 389 507 389 413 c 0,76,77
 389 354 389 354 406.5 302 c 128,-1,78
 424 250 424 250 460.5 211 c 128,-1,79
 497 172 497 172 552.5 149.5 c 128,-1,80
 608 127 608 127 684 127 c 0,81,82
 746 127 746 127 794.5 148 c 128,-1,83
 843 169 843 169 876 202.5 c 128,-1,84
 909 236 909 236 926.5 278 c 128,-1,85
 944 320 944 320 944 363 c 0,86,87
 944 427 944 427 920 475 c 128,-1,88
 896 523 896 523 838 561 c 1,89,-1
 696 369 l 1,90,-1
 598 442 l 1,91,-1
 912 867 l 1,92,-1
 1010 794 l 1,93,-1
 913 662 l 1,94,95
 995 605 995 605 1030.5 530.5 c 128,-1,96
 1066 456 1066 456 1066 365 c 0,97,98
 1066 305 1066 305 1044 240 c 128,-1,99
 1022 175 1022 175 975.5 122 c 128,-1,100
 929 69 929 69 857 34.5 c 128,-1,101
 785 0 785 0 686 0 c 0,102,103
 597 0 597 0 520.5 31 c 128,-1,104
 444 62 444 62 388 117 c 128,-1,105
 332 172 332 172 300 247.5 c 128,-1,106
 268 323 268 323 268 413 c 0,0,1
EndSplineSet
EndChar

StartChar: uni0B0B
Encoding: 2827 2827 261
Width: 1543
VWidth: 2210
GlyphClass: 2
Flags: W
LayerCount: 2
Fore
SplineSet
717 1318 m 0,0,1
 603 1318 603 1318 503.5 1279.5 c 128,-1,2
 404 1241 404 1241 330.5 1176.5 c 128,-1,3
 257 1112 257 1112 214.5 1027 c 128,-1,4
 172 942 172 942 172 849 c 0,5,6
 172 807 172 807 183 765.5 c 128,-1,7
 194 724 194 724 217.5 687 c 128,-1,8
 241 650 241 650 278 622 c 128,-1,9
 315 594 315 594 368 579 c 1,10,11
 393 623 393 623 427 658 c 128,-1,12
 461 693 461 693 501.5 717 c 128,-1,13
 542 741 542 741 587.5 754 c 128,-1,14
 633 767 633 767 680 767 c 0,15,16
 756 767 756 767 821.5 736.5 c 128,-1,17
 887 706 887 706 934.5 653.5 c 128,-1,18
 982 601 982 601 1009 531 c 128,-1,19
 1036 461 1036 461 1036 382 c 0,20,21
 1036 305 1036 305 1009 236 c 128,-1,22
 982 167 982 167 934.5 114.5 c 128,-1,23
 887 62 887 62 821.5 31 c 128,-1,24
 756 0 756 0 680 0 c 0,25,26
 600 0 600 0 533.5 31 c 128,-1,27
 467 62 467 62 419.5 114 c 128,-1,28
 372 166 372 166 345.5 235 c 128,-1,29
 319 304 319 304 319 380 c 0,30,31
 319 419 319 419 325 455 c 1,32,33
 262 476 262 476 211 514 c 128,-1,34
 160 552 160 552 124 603 c 128,-1,35
 88 654 88 654 69 716.5 c 128,-1,36
 50 779 50 779 50 849 c 0,37,38
 50 933 50 933 74 1010 c 128,-1,39
 98 1087 98 1087 142 1153 c 128,-1,40
 186 1219 186 1219 247 1273 c 128,-1,41
 308 1327 308 1327 382 1365 c 128,-1,42
 456 1403 456 1403 541 1424 c 128,-1,43
 626 1445 626 1445 717 1445 c 0,44,45
 837 1445 837 1445 935.5 1416 c 128,-1,46
 1034 1387 1034 1387 1112 1336.5 c 128,-1,47
 1190 1286 1190 1286 1248 1218 c 128,-1,48
 1306 1150 1306 1150 1344 1072.5 c 128,-1,49
 1382 995 1382 995 1400.5 911.5 c 128,-1,50
 1419 828 1419 828 1419 746 c 0,51,52
 1419 652 1419 652 1391 582 c 128,-1,53
 1363 512 1363 512 1299 458 c 1,54,55
 1341 442 1341 442 1370 418.5 c 128,-1,56
 1399 395 1399 395 1417 367.5 c 128,-1,57
 1435 340 1435 340 1443 309.5 c 128,-1,58
 1451 279 1451 279 1451 248 c 0,59,60
 1451 208 1451 208 1432 172.5 c 128,-1,61
 1413 137 1413 137 1385 106 c 128,-1,62
 1357 75 1357 75 1324.5 48 c 128,-1,63
 1292 21 1292 21 1265 -1 c 1,64,-1
 1490 -208 l 1,65,-1
 1409 -299 l 1,66,-1
 1078 5 l 1,67,68
 1115 27 1115 27 1159 54.5 c 128,-1,69
 1203 82 1203 82 1241.5 113.5 c 128,-1,70
 1280 145 1280 145 1306 179 c 128,-1,71
 1332 213 1332 213 1332 248 c 0,72,73
 1332 270 1332 270 1322.5 293 c 128,-1,74
 1313 316 1313 316 1292.5 335 c 128,-1,75
 1272 354 1272 354 1240 365.5 c 128,-1,76
 1208 377 1208 377 1163 377 c 1,77,-1
 1139 483 l 1,78,79
 1181 500 1181 500 1211 526.5 c 128,-1,80
 1241 553 1241 553 1260 587.5 c 128,-1,81
 1279 622 1279 622 1288 662 c 128,-1,82
 1297 702 1297 702 1297 746 c 0,83,84
 1297 854 1297 854 1256 956.5 c 128,-1,85
 1215 1059 1215 1059 1139.5 1139.5 c 128,-1,86
 1064 1220 1064 1220 957 1269 c 128,-1,87
 850 1318 850 1318 717 1318 c 0,0,1
678 127 m 0,88,89
 730 127 730 127 773 146.5 c 128,-1,90
 816 166 816 166 847.5 200 c 128,-1,91
 879 234 879 234 896.5 280.5 c 128,-1,92
 914 327 914 327 914 381 c 0,93,94
 914 436 914 436 898 483 c 128,-1,95
 882 530 882 530 852 565 c 128,-1,96
 822 600 822 600 779 620 c 128,-1,97
 736 640 736 640 681 640 c 0,98,99
 630 640 630 640 586 620 c 128,-1,100
 542 600 542 600 509.5 565 c 128,-1,101
 477 530 477 530 459 483 c 128,-1,102
 441 436 441 436 441 381 c 0,103,104
 441 325 441 325 457.5 278.5 c 128,-1,105
 474 232 474 232 505 198 c 128,-1,106
 536 164 536 164 580 145.5 c 128,-1,107
 624 127 624 127 678 127 c 0,88,89
EndSplineSet
EndChar

StartChar: uni0B0C
Encoding: 2828 2828 262
Width: 1254
VWidth: 2210
GlyphClass: 2
Flags: W
LayerCount: 2
Fore
SplineSet
568 377 m 0,0,1
 568 442 568 442 591.5 496.5 c 128,-1,2
 615 551 615 551 655.5 590.5 c 128,-1,3
 696 630 696 630 749.5 652 c 128,-1,4
 803 674 803 674 863 674 c 0,5,6
 930 674 930 674 985 647 c 128,-1,7
 1040 620 1040 620 1079 577 c 128,-1,8
 1118 534 1118 534 1139.5 479.5 c 128,-1,9
 1161 425 1161 425 1161 371 c 0,10,11
 1161 298 1161 298 1120.5 231 c 128,-1,12
 1080 164 1080 164 1009 112.5 c 128,-1,13
 938 61 938 61 841.5 30.5 c 128,-1,14
 745 0 745 0 633 0 c 0,15,16
 517 0 517 0 418.5 34.5 c 128,-1,17
 320 69 320 69 249 130 c 128,-1,18
 178 191 178 191 138 275 c 128,-1,19
 98 359 98 359 98 458 c 0,20,21
 98 550 98 550 127.5 616.5 c 128,-1,22
 157 683 157 683 205 731 c 128,-1,23
 253 779 253 779 314.5 813 c 128,-1,24
 376 847 376 847 440.5 873.5 c 128,-1,25
 505 900 505 900 566.5 923 c 128,-1,26
 628 946 628 946 676 973 c 128,-1,27
 724 1000 724 1000 753.5 1034 c 128,-1,28
 783 1068 783 1068 783 1117 c 0,29,30
 783 1154 783 1154 770.5 1191 c 128,-1,31
 758 1228 758 1228 733 1258 c 128,-1,32
 708 1288 708 1288 669 1306.5 c 128,-1,33
 630 1325 630 1325 578 1325 c 0,34,35
 528 1325 528 1325 489 1310.5 c 128,-1,36
 450 1296 450 1296 421.5 1270.5 c 128,-1,37
 393 1245 393 1245 375.5 1211.5 c 128,-1,38
 358 1178 358 1178 352 1139 c 1,39,-1
 209 1177 l 1,40,41
 221 1234 221 1234 252 1284.5 c 128,-1,42
 283 1335 283 1335 330.5 1372 c 128,-1,43
 378 1409 378 1409 440.5 1430.5 c 128,-1,44
 503 1452 503 1452 578 1452 c 0,45,46
 659 1452 659 1452 719.5 1420 c 128,-1,47
 780 1388 780 1388 819.5 1339 c 128,-1,48
 859 1290 859 1290 879 1231 c 128,-1,49
 899 1172 899 1172 899 1117 c 0,50,51
 899 1044 899 1044 870 993.5 c 128,-1,52
 841 943 841 943 793 907 c 128,-1,53
 745 871 745 871 684 844.5 c 128,-1,54
 623 818 623 818 559.5 793.5 c 128,-1,55
 496 769 496 769 435 742.5 c 128,-1,56
 374 716 374 716 326 678 c 128,-1,57
 278 640 278 640 249 587 c 128,-1,58
 220 534 220 534 220 458 c 0,59,60
 220 376 220 376 252 314 c 128,-1,61
 284 252 284 252 339.5 210.5 c 128,-1,62
 395 169 395 169 470.5 148 c 128,-1,63
 546 127 546 127 633 127 c 0,64,65
 649 127 649 127 665 127.5 c 128,-1,66
 681 128 681 128 697 129 c 1,67,68
 633 180 633 180 600.5 244 c 128,-1,69
 568 308 568 308 568 377 c 0,0,1
1039 371 m 0,70,71
 1039 452 1039 452 992 499.5 c 128,-1,72
 945 547 945 547 863 547 c 0,73,74
 828 547 828 547 796.5 534.5 c 128,-1,75
 765 522 765 522 741.5 499.5 c 128,-1,76
 718 477 718 477 704 445.5 c 128,-1,77
 690 414 690 414 690 377 c 0,78,79
 690 313 690 313 734.5 254.5 c 128,-1,80
 779 196 779 196 867 165 c 1,81,82
 945 195 945 195 992 246.5 c 128,-1,83
 1039 298 1039 298 1039 371 c 0,70,71
EndSplineSet
EndChar

StartChar: uni0B0F
Encoding: 2831 2831 263
Width: 1269
VWidth: 2210
GlyphClass: 2
Flags: W
LayerCount: 2
Fore
SplineSet
1132 357 m 2,0,1
 1132 284 1132 284 1111.5 219 c 128,-1,2
 1091 154 1091 154 1048.5 105.5 c 128,-1,3
 1006 57 1006 57 939.5 28.5 c 128,-1,4
 873 0 873 0 782 0 c 0,5,6
 664 0 664 0 569 39 c 128,-1,7
 474 78 474 78 398 145 c 128,-1,8
 322 212 322 212 264.5 302 c 128,-1,9
 207 392 207 392 165 494.5 c 128,-1,10
 123 597 123 597 95 706.5 c 128,-1,11
 67 816 67 816 51 922 c 1,12,-1
 51 1444 l 1,13,-1
 173 1444 l 1,14,-1
 173 922 l 1,15,16
 187 827 187 827 210.5 731.5 c 128,-1,17
 234 636 234 636 269 547.5 c 128,-1,18
 304 459 304 459 351.5 382.5 c 128,-1,19
 399 306 399 306 462 249 c 128,-1,20
 525 192 525 192 604.5 159.5 c 128,-1,21
 684 127 684 127 782 127 c 0,22,23
 896 127 896 127 953 187.5 c 128,-1,24
 1010 248 1010 248 1010 357 c 2,25,-1
 1010 1295 l 1,26,27
 894 1244 894 1244 800 1178 c 128,-1,28
 706 1112 706 1112 638.5 1028.5 c 128,-1,29
 571 945 571 945 534 842.5 c 128,-1,30
 497 740 497 740 496 616 c 1,31,-1
 373 616 l 1,32,33
 373 760 373 760 424.5 888 c 128,-1,34
 476 1016 476 1016 563 1122.5 c 128,-1,35
 650 1229 650 1229 765.5 1310.5 c 128,-1,36
 881 1392 881 1392 1010 1443 c 1,37,-1
 1132 1443 l 1,38,-1
 1132 357 l 2,0,1
EndSplineSet
EndChar

StartChar: uni0B10
Encoding: 2832 2832 264
Width: 1710
VWidth: 2210
GlyphClass: 2
Flags: W
LayerCount: 2
Fore
SplineSet
1174 357 m 2,0,1
 1174 284 1174 284 1153.5 219 c 128,-1,2
 1133 154 1133 154 1090.5 105.5 c 128,-1,3
 1048 57 1048 57 981.5 28.5 c 128,-1,4
 915 0 915 0 824 0 c 0,5,6
 706 0 706 0 611 39 c 128,-1,7
 516 78 516 78 440 145 c 128,-1,8
 364 212 364 212 306.5 302 c 128,-1,9
 249 392 249 392 207 494.5 c 128,-1,10
 165 597 165 597 137 706.5 c 128,-1,11
 109 816 109 816 93 922 c 1,12,-1
 93 1444 l 1,13,-1
 215 1444 l 1,14,-1
 215 922 l 1,15,16
 229 827 229 827 252.5 731.5 c 128,-1,17
 276 636 276 636 311 547.5 c 128,-1,18
 346 459 346 459 393.5 382.5 c 128,-1,19
 441 306 441 306 504 249 c 128,-1,20
 567 192 567 192 646.5 159.5 c 128,-1,21
 726 127 726 127 824 127 c 0,22,23
 938 127 938 127 995 187.5 c 128,-1,24
 1052 248 1052 248 1052 357 c 2,25,-1
 1052 1295 l 1,26,27
 936 1244 936 1244 842 1178 c 128,-1,28
 748 1112 748 1112 680.5 1028.5 c 128,-1,29
 613 945 613 945 576 842.5 c 128,-1,30
 539 740 539 740 538 616 c 1,31,-1
 415 616 l 1,32,33
 415 760 415 760 466.5 888 c 128,-1,34
 518 1016 518 1016 605 1122.5 c 128,-1,35
 692 1229 692 1229 807.5 1310.5 c 128,-1,36
 923 1392 923 1392 1052 1443 c 1,37,-1
 1174 1443 l 1,38,-1
 1174 612 l 1,39,-1
 1424 612 l 1,40,-1
 1424 1503 l 1,41,42
 1494 1565 1494 1565 1522.5 1621 c 128,-1,43
 1551 1677 1551 1677 1551 1737 c 0,44,45
 1551 1782 1551 1782 1537 1822 c 128,-1,46
 1523 1862 1523 1862 1493 1892 c 128,-1,47
 1463 1922 1463 1922 1416.5 1940 c 128,-1,48
 1370 1958 1370 1958 1306 1958 c 0,49,50
 1225 1958 1225 1958 1154.5 1942.5 c 128,-1,51
 1084 1927 1084 1927 1018.5 1904 c 128,-1,52
 953 1881 953 1881 889 1854 c 128,-1,53
 825 1827 825 1827 757.5 1804 c 128,-1,54
 690 1781 690 1781 615 1765.5 c 128,-1,55
 540 1750 540 1750 453 1750 c 0,56,57
 359 1750 359 1750 265.5 1772.5 c 128,-1,58
 172 1795 172 1795 73 1840 c 1,59,-1
 123 1951 l 1,60,61
 204 1914 204 1914 287.5 1895.5 c 128,-1,62
 371 1877 371 1877 453 1877 c 256,63,64
 535 1877 535 1877 608.5 1892.5 c 128,-1,65
 682 1908 682 1908 750.5 1931 c 128,-1,66
 819 1954 819 1954 885.5 1981 c 128,-1,67
 952 2008 952 2008 1019 2031 c 128,-1,68
 1086 2054 1086 2054 1156 2069.5 c 128,-1,69
 1226 2085 1226 2085 1303 2085 c 0,70,71
 1390 2085 1390 2085 1459 2060 c 128,-1,72
 1528 2035 1528 2035 1575.5 1989 c 128,-1,73
 1623 1943 1623 1943 1648.5 1879 c 128,-1,74
 1674 1815 1674 1815 1674 1737 c 0,75,76
 1674 1708 1674 1708 1665.5 1676 c 128,-1,77
 1657 1644 1657 1644 1640.5 1611 c 128,-1,78
 1624 1578 1624 1578 1600 1546 c 128,-1,79
 1576 1514 1576 1514 1546 1487 c 1,80,-1
 1546 0 l 1,81,-1
 1424 0 l 1,82,-1
 1424 485 l 1,83,-1
 1174 485 l 1,84,-1
 1174 357 l 2,0,1
EndSplineSet
EndChar

StartChar: uni0B13
Encoding: 2835 2835 265
Width: 1399
VWidth: 2210
GlyphClass: 2
Flags: W
LayerCount: 2
Fore
SplineSet
894 1516 m 1,0,1
 723 1499 723 1499 589.5 1433 c 128,-1,2
 456 1367 456 1367 364.5 1266 c 128,-1,3
 273 1165 273 1165 225 1036.5 c 128,-1,4
 177 908 177 908 177 765 c 0,5,6
 177 687 177 687 194.5 609 c 128,-1,7
 212 531 212 531 246 460.5 c 128,-1,8
 280 390 280 390 329 329 c 128,-1,9
 378 268 378 268 440.5 223 c 128,-1,10
 503 178 503 178 579 152.5 c 128,-1,11
 655 127 655 127 742 127 c 0,12,13
 838 127 838 127 920.5 154 c 128,-1,14
 1003 181 1003 181 1064 226 c 128,-1,15
 1125 271 1125 271 1159.5 329.5 c 128,-1,16
 1194 388 1194 388 1194 452 c 0,17,18
 1194 510 1194 510 1168 566 c 128,-1,19
 1142 622 1142 622 1079 664 c 1,20,21
 991 613 991 613 884 575.5 c 128,-1,22
 777 538 777 538 649 503 c 1,23,-1
 620 629 l 1,24,25
 763 660 763 660 872 693 c 128,-1,26
 981 726 981 726 1055 769.5 c 128,-1,27
 1129 813 1129 813 1166.5 870 c 128,-1,28
 1204 927 1204 927 1204 1006 c 0,29,30
 1204 1047 1204 1047 1192.5 1087.5 c 128,-1,31
 1181 1128 1181 1128 1154 1160.5 c 128,-1,32
 1127 1193 1127 1193 1083 1213 c 128,-1,33
 1039 1233 1039 1233 974 1233 c 0,34,35
 922 1233 922 1233 878 1219 c 128,-1,36
 834 1205 834 1205 802 1179 c 128,-1,37
 770 1153 770 1153 752 1116.5 c 128,-1,38
 734 1080 734 1080 734 1035 c 0,39,40
 734 1006 734 1006 740.5 985 c 128,-1,41
 747 964 747 964 760 931 c 1,42,-1
 654 873 l 1,43,44
 643 896 643 896 635 915.5 c 128,-1,45
 627 935 627 935 621.5 954 c 128,-1,46
 616 973 616 973 613.5 992.5 c 128,-1,47
 611 1012 611 1012 611 1035 c 0,48,49
 611 1098 611 1098 639.5 1157.5 c 128,-1,50
 668 1217 668 1217 717.5 1263 c 128,-1,51
 767 1309 767 1309 834 1336.5 c 128,-1,52
 901 1364 901 1364 978 1364 c 0,53,54
 1058 1364 1058 1364 1121.5 1334 c 128,-1,55
 1185 1304 1185 1304 1228.5 1254.5 c 128,-1,56
 1272 1205 1272 1205 1295 1141 c 128,-1,57
 1318 1077 1318 1077 1318 1009 c 0,58,59
 1318 956 1318 956 1308.5 918 c 128,-1,60
 1299 880 1299 880 1280.5 848.5 c 128,-1,61
 1262 817 1262 817 1235.5 790 c 128,-1,62
 1209 763 1209 763 1176 733 c 1,63,64
 1214 705 1214 705 1240.5 670.5 c 128,-1,65
 1267 636 1267 636 1284 599 c 128,-1,66
 1301 562 1301 562 1308.5 524 c 128,-1,67
 1316 486 1316 486 1316 452 c 0,68,69
 1316 365 1316 365 1273.5 283.5 c 128,-1,70
 1231 202 1231 202 1155 139 c 128,-1,71
 1079 76 1079 76 973.5 38 c 128,-1,72
 868 0 868 0 742 0 c 0,73,74
 625 0 625 0 529 32 c 128,-1,75
 433 64 433 64 356.5 119 c 128,-1,76
 280 174 280 174 223 248.5 c 128,-1,77
 166 323 166 323 128.5 408 c 128,-1,78
 91 493 91 493 72.5 584.5 c 128,-1,79
 54 676 54 676 54 765 c 0,80,81
 54 940 54 940 112.5 1088.5 c 128,-1,82
 171 1237 171 1237 279 1350.5 c 128,-1,83
 387 1464 387 1464 539 1537.5 c 128,-1,84
 691 1611 691 1611 878 1637 c 1,85,-1
 894 1516 l 1,0,1
EndSplineSet
EndChar

StartChar: uni0B14
Encoding: 2836 2836 266
Width: 1833
VWidth: 2210
GlyphClass: 2
Flags: W
LayerCount: 2
Fore
SplineSet
894 1516 m 1,0,1
 723 1499 723 1499 589.5 1433 c 128,-1,2
 456 1367 456 1367 364.5 1266 c 128,-1,3
 273 1165 273 1165 225 1036.5 c 128,-1,4
 177 908 177 908 177 765 c 0,5,6
 177 687 177 687 194.5 609 c 128,-1,7
 212 531 212 531 246 460.5 c 128,-1,8
 280 390 280 390 329 329 c 128,-1,9
 378 268 378 268 440.5 223 c 128,-1,10
 503 178 503 178 579 152.5 c 128,-1,11
 655 127 655 127 742 127 c 0,12,13
 838 127 838 127 920.5 154 c 128,-1,14
 1003 181 1003 181 1064 226 c 128,-1,15
 1125 271 1125 271 1159.5 329.5 c 128,-1,16
 1194 388 1194 388 1194 452 c 0,17,18
 1194 510 1194 510 1168 566 c 128,-1,19
 1142 622 1142 622 1079 664 c 1,20,21
 991 613 991 613 884 575.5 c 128,-1,22
 777 538 777 538 649 503 c 1,23,-1
 620 629 l 1,24,25
 763 660 763 660 872 693 c 128,-1,26
 981 726 981 726 1055 769.5 c 128,-1,27
 1129 813 1129 813 1166.5 870 c 128,-1,28
 1204 927 1204 927 1204 1006 c 0,29,30
 1204 1047 1204 1047 1192.5 1087.5 c 128,-1,31
 1181 1128 1181 1128 1154 1160.5 c 128,-1,32
 1127 1193 1127 1193 1083 1213 c 128,-1,33
 1039 1233 1039 1233 974 1233 c 0,34,35
 922 1233 922 1233 878 1219 c 128,-1,36
 834 1205 834 1205 802 1179 c 128,-1,37
 770 1153 770 1153 752 1116.5 c 128,-1,38
 734 1080 734 1080 734 1035 c 0,39,40
 734 1006 734 1006 740.5 985 c 128,-1,41
 747 964 747 964 760 931 c 1,42,-1
 654 873 l 1,43,44
 643 896 643 896 635 915.5 c 128,-1,45
 627 935 627 935 621.5 954 c 128,-1,46
 616 973 616 973 613.5 992.5 c 128,-1,47
 611 1012 611 1012 611 1035 c 0,48,49
 611 1098 611 1098 639.5 1157.5 c 128,-1,50
 668 1217 668 1217 717.5 1263 c 128,-1,51
 767 1309 767 1309 834 1336.5 c 128,-1,52
 901 1364 901 1364 978 1364 c 0,53,54
 1058 1364 1058 1364 1121.5 1334 c 128,-1,55
 1185 1304 1185 1304 1228.5 1254.5 c 128,-1,56
 1272 1205 1272 1205 1295 1141 c 128,-1,57
 1318 1077 1318 1077 1318 1009 c 0,58,59
 1318 956 1318 956 1308.5 918 c 128,-1,60
 1299 880 1299 880 1280.5 848.5 c 128,-1,61
 1262 817 1262 817 1235.5 790 c 128,-1,62
 1209 763 1209 763 1176 733 c 1,63,64
 1211 707 1211 707 1235.5 676 c 128,-1,65
 1260 645 1260 645 1277 612 c 1,66,-1
 1514 612 l 1,67,-1
 1514 1503 l 1,68,69
 1584 1565 1584 1565 1612.5 1621 c 128,-1,70
 1641 1677 1641 1677 1641 1737 c 0,71,72
 1641 1782 1641 1782 1627 1822 c 128,-1,73
 1613 1862 1613 1862 1583 1892 c 128,-1,74
 1553 1922 1553 1922 1506.5 1940 c 128,-1,75
 1460 1958 1460 1958 1396 1958 c 0,76,77
 1315 1958 1315 1958 1244.5 1942.5 c 128,-1,78
 1174 1927 1174 1927 1108.5 1904 c 128,-1,79
 1043 1881 1043 1881 979 1854 c 128,-1,80
 915 1827 915 1827 847.5 1804 c 128,-1,81
 780 1781 780 1781 705.5 1765.5 c 128,-1,82
 631 1750 631 1750 543 1750 c 0,83,84
 449 1750 449 1750 356 1772.5 c 128,-1,85
 263 1795 263 1795 163 1840 c 1,86,-1
 213 1951 l 1,87,88
 294 1914 294 1914 377.5 1895.5 c 128,-1,89
 461 1877 461 1877 543 1877 c 256,90,91
 625 1877 625 1877 698.5 1892.5 c 128,-1,92
 772 1908 772 1908 840.5 1931 c 128,-1,93
 909 1954 909 1954 975.5 1981 c 128,-1,94
 1042 2008 1042 2008 1109 2031 c 128,-1,95
 1176 2054 1176 2054 1246 2069.5 c 128,-1,96
 1316 2085 1316 2085 1393 2085 c 0,97,98
 1480 2085 1480 2085 1549 2060 c 128,-1,99
 1618 2035 1618 2035 1665.5 1989 c 128,-1,100
 1713 1943 1713 1943 1738.5 1879 c 128,-1,101
 1764 1815 1764 1815 1764 1737 c 0,102,103
 1764 1708 1764 1708 1755.5 1676 c 128,-1,104
 1747 1644 1747 1644 1730.5 1611 c 128,-1,105
 1714 1578 1714 1578 1690 1546 c 128,-1,106
 1666 1514 1666 1514 1636 1487 c 1,107,-1
 1636 0 l 1,108,-1
 1514 0 l 1,109,-1
 1514 485 l 1,110,-1
 1314 485 l 1,111,112
 1315 476 1315 476 1315.5 468 c 128,-1,113
 1316 460 1316 460 1316 452 c 0,114,115
 1316 365 1316 365 1273.5 283.5 c 128,-1,116
 1231 202 1231 202 1155 139 c 128,-1,117
 1079 76 1079 76 973.5 38 c 128,-1,118
 868 0 868 0 742 0 c 0,119,120
 625 0 625 0 529 32 c 128,-1,121
 433 64 433 64 356.5 119 c 128,-1,122
 280 174 280 174 223 248.5 c 128,-1,123
 166 323 166 323 128.5 408 c 128,-1,124
 91 493 91 493 72.5 584.5 c 128,-1,125
 54 676 54 676 54 765 c 0,126,127
 54 940 54 940 112.5 1088.5 c 128,-1,128
 171 1237 171 1237 279 1350.5 c 128,-1,129
 387 1464 387 1464 539 1537.5 c 128,-1,130
 691 1611 691 1611 878 1637 c 1,131,-1
 894 1516 l 1,0,1
EndSplineSet
EndChar

StartChar: uni0B15
Encoding: 2837 2837 267
Width: 1473
VWidth: 2210
GlyphClass: 2
Flags: W
AnchorPoint: "Anchor-7" 1260 400 basechar 0
AnchorPoint: "Anchor-6" 1259 0 basechar 0
AnchorPoint: "Anchor-5" 1397 -9 basechar 0
AnchorPoint: "Anchor-4" 930 430 basechar 0
AnchorPoint: "Anchor-3" 1286 0 basechar 0
AnchorPoint: "Anchor-2" 1313 0 basechar 0
AnchorPoint: "Anchor-1" 1423 0 basechar 0
AnchorPoint: "Anchor-0" 1425 0 basechar 0
LayerCount: 2
Fore
SplineSet
1232 705 m 1,0,1
 1258 748 1258 748 1267.5 787 c 128,-1,2
 1277 826 1277 826 1277 866 c 0,3,4
 1277 953 1277 953 1236 1034.5 c 128,-1,5
 1195 1116 1195 1116 1121.5 1179 c 128,-1,6
 1048 1242 1048 1242 944.5 1280 c 128,-1,7
 841 1318 841 1318 717 1318 c 0,8,9
 603 1318 603 1318 503.5 1279.5 c 128,-1,10
 404 1241 404 1241 330.5 1176.5 c 128,-1,11
 257 1112 257 1112 214.5 1027 c 128,-1,12
 172 942 172 942 172 849 c 0,13,14
 172 814 172 814 180 779 c 128,-1,15
 188 744 188 744 204 712 c 128,-1,16
 220 680 220 680 243.5 653 c 128,-1,17
 267 626 267 626 299 609 c 1,18,19
 339 664 339 664 398.5 696 c 128,-1,20
 458 728 458 728 528 728 c 0,21,22
 594 728 594 728 649 699.5 c 128,-1,23
 704 671 704 671 746 623 c 1,24,25
 778 671 778 671 830.5 699 c 128,-1,26
 883 727 883 727 946 727 c 0,27,28
 1001 727 1001 727 1045 706.5 c 128,-1,29
 1089 686 1089 686 1120 652.5 c 128,-1,30
 1151 619 1151 619 1168 576.5 c 128,-1,31
 1185 534 1185 534 1185 490 c 2,32,-1
 1185 0 l 1,33,-1
 1064 0 l 1,34,-1
 1064 483 l 2,35,36
 1064 504 1064 504 1056.5 524.5 c 128,-1,37
 1049 545 1049 545 1034.5 562 c 128,-1,38
 1020 579 1020 579 998 589.5 c 128,-1,39
 976 600 976 600 946 600 c 0,40,41
 920 600 920 600 897.5 588.5 c 128,-1,42
 875 577 875 577 859 560 c 128,-1,43
 843 543 843 543 834 522.5 c 128,-1,44
 825 502 825 502 825 483 c 2,45,-1
 825 0 l 1,46,-1
 704 0 l 1,47,-1
 704 191 l 1,48,49
 668 162 668 162 623.5 145 c 128,-1,50
 579 128 579 128 528 128 c 0,51,52
 471 128 471 128 419 151 c 128,-1,53
 367 174 367 174 327.5 214.5 c 128,-1,54
 288 255 288 255 264.5 309 c 128,-1,55
 241 363 241 363 241 425 c 0,56,57
 241 457 241 457 247 489 c 1,58,59
 194 519 194 519 156.5 562 c 128,-1,60
 119 605 119 605 95.5 653.5 c 128,-1,61
 72 702 72 702 61 752.5 c 128,-1,62
 50 803 50 803 50 849 c 0,63,64
 50 975 50 975 103 1084 c 128,-1,65
 156 1193 156 1193 247 1273 c 128,-1,66
 338 1353 338 1353 459 1399 c 128,-1,67
 580 1445 580 1445 717 1445 c 0,68,69
 830 1445 830 1445 924.5 1420.5 c 128,-1,70
 1019 1396 1019 1396 1094.5 1354 c 128,-1,71
 1170 1312 1170 1312 1227.5 1255.5 c 128,-1,72
 1285 1199 1285 1199 1323 1134.5 c 128,-1,73
 1361 1070 1361 1070 1380 1001 c 128,-1,74
 1399 932 1399 932 1399 866 c 0,75,76
 1399 806 1399 806 1385 750.5 c 128,-1,77
 1371 695 1371 695 1342 643 c 1,78,-1
 1232 705 l 1,0,1
340 425 m 0,79,80
 340 387 340 387 354 352.5 c 128,-1,81
 368 318 368 318 393 292.5 c 128,-1,82
 418 267 418 267 451 252 c 128,-1,83
 484 237 484 237 522 237 c 0,84,85
 559 237 559 237 591.5 251.5 c 128,-1,86
 624 266 624 266 648.5 290.5 c 128,-1,87
 673 315 673 315 688 347.5 c 128,-1,88
 703 380 703 380 704 417 c 2,89,-1
 704 425 l 2,90,91
 704 465 704 465 690 500 c 128,-1,92
 676 535 676 535 651.5 560.5 c 128,-1,93
 627 586 627 586 593.5 601 c 128,-1,94
 560 616 560 616 522 616 c 256,95,96
 484 616 484 616 451 601 c 128,-1,97
 418 586 418 586 393 560.5 c 128,-1,98
 368 535 368 535 354 500 c 128,-1,99
 340 465 340 465 340 425 c 0,79,80
EndSplineSet
EndChar

StartChar: uni0B16
Encoding: 2838 2838 268
Width: 1473
VWidth: 2210
GlyphClass: 2
Flags: W
AnchorPoint: "Anchor-7" 1450 400 basechar 0
AnchorPoint: "Anchor-6" 1394 0 basechar 0
AnchorPoint: "Anchor-5" 1516 0 basechar 0
AnchorPoint: "Anchor-4" 1115 430 basechar 0
AnchorPoint: "Anchor-3" 1417 0 basechar 0
AnchorPoint: "Anchor-2" 1448 0 basechar 0
AnchorPoint: "Anchor-1" 1375 0 basechar 0
AnchorPoint: "Anchor-0" 1430 0 basechar 0
LayerCount: 2
Fore
SplineSet
301 380 m 0,0,1
 301 418 301 418 307 457 c 1,2,3
 238 481 238 481 189.5 525 c 128,-1,4
 141 569 141 569 110 622.5 c 128,-1,5
 79 676 79 676 64.5 733.5 c 128,-1,6
 50 791 50 791 50 844 c 0,7,8
 50 970 50 970 101.5 1079.5 c 128,-1,9
 153 1189 153 1189 244 1270 c 128,-1,10
 335 1351 335 1351 458 1397.5 c 128,-1,11
 581 1444 581 1444 725 1444 c 0,12,13
 803 1444 803 1444 865 1430.5 c 128,-1,14
 927 1417 927 1417 980 1391 c 1,15,16
 958 1352 958 1352 939.5 1317.5 c 128,-1,17
 921 1283 921 1283 908 1250 c 128,-1,18
 895 1217 895 1217 887.5 1184.5 c 128,-1,19
 880 1152 880 1152 880 1118 c 0,20,21
 880 1033 880 1033 924.5 987 c 128,-1,22
 969 941 969 941 1044 941 c 0,23,24
 1095 941 1095 941 1136 973.5 c 128,-1,25
 1177 1006 1177 1006 1206 1072 c 1,26,-1
 1206 1442 l 1,27,-1
 1328 1442 l 1,28,-1
 1328 0 l 1,29,-1
 1206 0 l 1,30,-1
 1206 880 l 1,31,32
 1169 845 1169 845 1130.5 829 c 128,-1,33
 1092 813 1092 813 1044 813 c 0,34,35
 979 813 979 813 927 837.5 c 128,-1,36
 875 862 875 862 839 903.5 c 128,-1,37
 803 945 803 945 783.5 1000.5 c 128,-1,38
 764 1056 764 1056 764 1118 c 0,39,40
 764 1158 764 1158 776 1208 c 128,-1,41
 788 1258 788 1258 810 1312 c 1,42,43
 790 1315 790 1315 768 1316 c 128,-1,44
 746 1317 746 1317 725 1317 c 0,45,46
 600 1317 600 1317 498 1277 c 128,-1,47
 396 1237 396 1237 322.5 1170.5 c 128,-1,48
 249 1104 249 1104 209 1019 c 128,-1,49
 169 934 169 934 169 844 c 0,50,51
 169 806 169 806 179.5 764.5 c 128,-1,52
 190 723 190 723 212.5 686.5 c 128,-1,53
 235 650 235 650 269 621.5 c 128,-1,54
 303 593 303 593 350 582 c 1,55,56
 374 626 374 626 410 660.5 c 128,-1,57
 446 695 446 695 488 718.5 c 128,-1,58
 530 742 530 742 576 754.5 c 128,-1,59
 622 767 622 767 667 767 c 0,60,61
 739 767 739 767 803.5 736.5 c 128,-1,62
 868 706 868 706 917 653.5 c 128,-1,63
 966 601 966 601 995 531 c 128,-1,64
 1024 461 1024 461 1024 382 c 0,65,66
 1024 305 1024 305 995 236 c 128,-1,67
 966 167 966 167 917 114.5 c 128,-1,68
 868 62 868 62 803.5 31 c 128,-1,69
 739 0 739 0 667 0 c 0,70,71
 590 0 590 0 523 31 c 128,-1,72
 456 62 456 62 406.5 114 c 128,-1,73
 357 166 357 166 329 235 c 128,-1,74
 301 304 301 304 301 380 c 0,0,1
665 128 m 0,75,76
 714 128 714 128 758 147.5 c 128,-1,77
 802 167 802 167 835.5 200.5 c 128,-1,78
 869 234 869 234 889 280.5 c 128,-1,79
 909 327 909 327 909 381 c 256,80,81
 909 435 909 435 890.5 482.5 c 128,-1,82
 872 530 872 530 839.5 565 c 128,-1,83
 807 600 807 600 762.5 620 c 128,-1,84
 718 640 718 640 667 640 c 0,85,86
 617 640 617 640 572 620 c 128,-1,87
 527 600 527 600 492.5 565 c 128,-1,88
 458 530 458 530 437.5 482.5 c 128,-1,89
 417 435 417 435 417 381 c 0,90,91
 417 325 417 325 436 278.5 c 128,-1,92
 455 232 455 232 488.5 198.5 c 128,-1,93
 522 165 522 165 567 146.5 c 128,-1,94
 612 128 612 128 665 128 c 0,75,76
EndSplineSet
EndChar

StartChar: uni0B17
Encoding: 2839 2839 269
Width: 1484
VWidth: 2210
GlyphClass: 2
Flags: W
AnchorPoint: "Anchor-7" 1449 400 basechar 0
AnchorPoint: "Anchor-6" 1394 0 basechar 0
AnchorPoint: "Anchor-5" 1516 0 basechar 0
AnchorPoint: "Anchor-4" 1116 430 basechar 0
AnchorPoint: "Anchor-3" 1421 -9 basechar 0
AnchorPoint: "Anchor-2" 1448 0 basechar 0
AnchorPoint: "Anchor-1" 1375 0 basechar 0
AnchorPoint: "Anchor-0" 1440 0 basechar 0
LayerCount: 2
Fore
SplineSet
300 380 m 0,0,1
 300 400 300 400 301.5 419 c 128,-1,2
 303 438 303 438 307 458 c 1,3,4
 237 482 237 482 188 526 c 128,-1,5
 139 570 139 570 108.5 624.5 c 128,-1,6
 78 679 78 679 64 738 c 128,-1,7
 50 797 50 797 50 850 c 0,8,9
 50 934 50 934 73 1011 c 128,-1,10
 96 1088 96 1088 137.5 1154.5 c 128,-1,11
 179 1221 179 1221 237.5 1274.5 c 128,-1,12
 296 1328 296 1328 366.5 1366.5 c 128,-1,13
 437 1405 437 1405 517.5 1425.5 c 128,-1,14
 598 1446 598 1446 684 1446 c 0,15,16
 775 1446 775 1446 853.5 1428.5 c 128,-1,17
 932 1411 932 1411 997.5 1379.5 c 128,-1,18
 1063 1348 1063 1348 1116 1305.5 c 128,-1,19
 1169 1263 1169 1263 1208 1212 c 1,20,-1
 1208 1444 l 1,21,-1
 1330 1444 l 1,22,-1
 1330 0 l 1,23,-1
 1208 0 l 1,24,-1
 1208 947 l 1,25,26
 1192 1022 1192 1022 1147.5 1089.5 c 128,-1,27
 1103 1157 1103 1157 1035 1207.5 c 128,-1,28
 967 1258 967 1258 878 1288 c 128,-1,29
 789 1318 789 1318 684 1318 c 0,30,31
 576 1318 576 1318 482.5 1279.5 c 128,-1,32
 389 1241 389 1241 320 1176.5 c 128,-1,33
 251 1112 251 1112 211.5 1027.5 c 128,-1,34
 172 943 172 943 172 850 c 0,35,36
 172 811 172 811 181.5 769 c 128,-1,37
 191 727 191 727 212 690 c 128,-1,38
 233 653 233 653 267 624 c 128,-1,39
 301 595 301 595 349 583 c 1,40,41
 374 627 374 627 409.5 661.5 c 128,-1,42
 445 696 445 696 486.5 719.5 c 128,-1,43
 528 743 528 743 574 755.5 c 128,-1,44
 620 768 620 768 665 768 c 0,45,46
 737 768 737 768 801.5 737 c 128,-1,47
 866 706 866 706 915 653.5 c 128,-1,48
 964 601 964 601 993 531 c 128,-1,49
 1022 461 1022 461 1022 383 c 0,50,51
 1022 306 1022 306 993 236.5 c 128,-1,52
 964 167 964 167 915 114.5 c 128,-1,53
 866 62 866 62 801.5 31 c 128,-1,54
 737 0 737 0 665 0 c 0,55,56
 588 0 588 0 521.5 31 c 128,-1,57
 455 62 455 62 405.5 114.5 c 128,-1,58
 356 167 356 167 328 235.5 c 128,-1,59
 300 304 300 304 300 380 c 0,0,1
662 128 m 0,60,61
 711 128 711 128 755.5 147.5 c 128,-1,62
 800 167 800 167 834 200.5 c 128,-1,63
 868 234 868 234 887.5 280.5 c 128,-1,64
 907 327 907 327 907 381 c 0,65,66
 907 436 907 436 888.5 483.5 c 128,-1,67
 870 531 870 531 837.5 566 c 128,-1,68
 805 601 805 601 761 620.5 c 128,-1,69
 717 640 717 640 666 640 c 0,70,71
 616 640 616 640 571 620.5 c 128,-1,72
 526 601 526 601 492 566 c 128,-1,73
 458 531 458 531 437.5 483.5 c 128,-1,74
 417 436 417 436 417 381 c 0,75,76
 417 325 417 325 436 278.5 c 128,-1,77
 455 232 455 232 488 198.5 c 128,-1,78
 521 165 521 165 566 146.5 c 128,-1,79
 611 128 611 128 662 128 c 0,60,61
EndSplineSet
EndChar

StartChar: uni0B18
Encoding: 2840 2840 270
Width: 1484
VWidth: 2210
GlyphClass: 2
Flags: W
AnchorPoint: "Anchor-7" 1359 400 basechar 0
AnchorPoint: "Anchor-6" 1394 -4 basechar 0
AnchorPoint: "Anchor-5" 1516 0 basechar 0
AnchorPoint: "Anchor-4" 1116 430 basechar 0
AnchorPoint: "Anchor-3" 1412 9 basechar 0
AnchorPoint: "Anchor-2" 1448 0 basechar 0
AnchorPoint: "Anchor-1" 1375 0 basechar 0
AnchorPoint: "Anchor-0" 1424 0 basechar 0
LayerCount: 2
Fore
SplineSet
1206 1442 m 1,0,-1
 1327 1442 l 1,1,-1
 1327 0 l 1,2,-1
 1206 0 l 1,3,-1
 1206 70 l 1,4,5
 1166 37 1166 37 1121 18.5 c 128,-1,6
 1076 0 1076 0 1023 0 c 0,7,8
 935 0 935 0 864.5 47 c 128,-1,9
 794 94 794 94 754 175 c 1,10,11
 654 57 654 57 524 57 c 0,12,13
 459 57 459 57 408 82.5 c 128,-1,14
 357 108 357 108 321.5 152.5 c 128,-1,15
 286 197 286 197 267.5 256 c 128,-1,16
 249 315 249 315 249 382 c 0,17,18
 249 429 249 429 257 475 c 1,19,20
 201 504 201 504 162 548 c 128,-1,21
 123 592 123 592 97.5 642.5 c 128,-1,22
 72 693 72 693 60.5 746 c 128,-1,23
 49 799 49 799 49 847 c 0,24,25
 49 973 49 973 99 1081.5 c 128,-1,26
 149 1190 149 1190 235 1270 c 128,-1,27
 321 1350 321 1350 435 1396 c 128,-1,28
 549 1442 549 1442 678 1442 c 0,29,30
 770 1442 770 1442 849 1423.5 c 128,-1,31
 928 1405 928 1405 994 1372.5 c 128,-1,32
 1060 1340 1060 1340 1113 1296 c 128,-1,33
 1166 1252 1166 1252 1206 1200 c 1,34,-1
 1206 1442 l 1,0,-1
563 661 m 1,35,36
 468 619 468 619 417.5 547 c 128,-1,37
 367 475 367 475 367 388 c 0,38,39
 367 343 367 343 378 305.5 c 128,-1,40
 389 268 389 268 409.5 241 c 128,-1,41
 430 214 430 214 459 199 c 128,-1,42
 488 184 488 184 524 184 c 0,43,44
 590 184 590 184 641 222 c 128,-1,45
 692 260 692 260 724 329 c 1,46,47
 727 392 727 392 749 449 c 128,-1,48
 771 506 771 506 817 554 c 1,49,-1
 908 472 l 1,50,51
 878 438 878 438 860 400.5 c 128,-1,52
 842 363 842 363 842 315 c 0,53,54
 842 270 842 270 855 235 c 128,-1,55
 868 200 868 200 892 176 c 128,-1,56
 916 152 916 152 949.5 139 c 128,-1,57
 983 126 983 126 1024 126 c 0,58,59
 1056 126 1056 126 1088 140.5 c 128,-1,60
 1120 155 1120 155 1145.5 180.5 c 128,-1,61
 1171 206 1171 206 1187.5 240.5 c 128,-1,62
 1204 275 1204 275 1206 315 c 2,63,-1
 1206 910 l 1,64,65
 1195 990 1195 990 1152.5 1063.5 c 128,-1,66
 1110 1137 1110 1137 1041.5 1192.5 c 128,-1,67
 973 1248 973 1248 881 1281 c 128,-1,68
 789 1314 789 1314 678 1314 c 0,69,70
 571 1314 571 1314 477 1275.5 c 128,-1,71
 383 1237 383 1237 313.5 1172.5 c 128,-1,72
 244 1108 244 1108 204 1023.5 c 128,-1,73
 164 939 164 939 164 847 c 0,74,75
 164 812 164 812 172 775.5 c 128,-1,76
 180 739 180 739 197 705.5 c 128,-1,77
 214 672 214 672 240 643.5 c 128,-1,78
 266 615 266 615 302 597 c 1,79,80
 342 668 342 668 398 713.5 c 128,-1,81
 454 759 454 759 513 782 c 1,82,-1
 563 661 l 1,35,36
EndSplineSet
EndChar

StartChar: uni0B19
Encoding: 2841 2841 271
Width: 1751
VWidth: 2210
GlyphClass: 2
Flags: W
AnchorPoint: "Anchor-7" 1260 400 basechar 0
AnchorPoint: "Anchor-6" 1394 20 basechar 0
AnchorPoint: "Anchor-5" 1516 0 basechar 0
AnchorPoint: "Anchor-4" 1050 430 basechar 0
AnchorPoint: "Anchor-3" 1239 0 basechar 0
AnchorPoint: "Anchor-2" 1313 0 basechar 0
AnchorPoint: "Anchor-1" 1375 0 basechar 0
AnchorPoint: "Anchor-0" 1424 0 basechar 0
LayerCount: 2
Fore
SplineSet
984 906 m 1,0,-1
 1084 827 l 1,1,-1
 973 690 l 1,2,3
 1060 633 1060 633 1099 550.5 c 128,-1,4
 1138 468 1138 468 1138 378 c 0,5,6
 1138 314 1138 314 1113.5 247 c 128,-1,7
 1089 180 1089 180 1038 125 c 128,-1,8
 987 70 987 70 908 35 c 128,-1,9
 829 0 829 0 720 0 c 0,10,11
 608 0 608 0 525 38.5 c 128,-1,12
 442 77 442 77 387 138 c 128,-1,13
 332 199 332 199 304.5 275 c 128,-1,14
 277 351 277 351 277 426 c 0,15,16
 277 437 277 437 277 449 c 128,-1,17
 277 461 277 461 279 472 c 1,18,19
 217 500 217 500 173.5 544 c 128,-1,20
 130 588 130 588 102.5 639.5 c 128,-1,21
 75 691 75 691 62.5 745.5 c 128,-1,22
 50 800 50 800 50 849 c 0,23,24
 50 933 50 933 74 1010 c 128,-1,25
 98 1087 98 1087 142 1153 c 128,-1,26
 186 1219 186 1219 247 1273 c 128,-1,27
 308 1327 308 1327 382 1365 c 128,-1,28
 456 1403 456 1403 541 1424 c 128,-1,29
 626 1445 626 1445 717 1445 c 0,30,31
 793 1445 793 1445 859 1429.5 c 128,-1,32
 925 1414 925 1414 982 1386 c 128,-1,33
 1039 1358 1039 1358 1088 1319 c 128,-1,34
 1137 1280 1137 1280 1179 1234 c 1,35,36
 1222 1282 1222 1282 1279 1309 c 128,-1,37
 1336 1336 1336 1336 1400 1336 c 0,38,39
 1465 1336 1465 1336 1520 1310 c 128,-1,40
 1575 1284 1575 1284 1615.5 1240 c 128,-1,41
 1656 1196 1656 1196 1679 1137 c 128,-1,42
 1702 1078 1702 1078 1702 1011 c 0,43,44
 1702 946 1702 946 1679 887 c 128,-1,45
 1656 828 1656 828 1615.5 783.5 c 128,-1,46
 1575 739 1575 739 1520 713 c 128,-1,47
 1465 687 1465 687 1400 687 c 256,48,49
 1335 687 1335 687 1279 712 c 128,-1,50
 1223 737 1223 737 1182.5 780.5 c 128,-1,51
 1142 824 1142 824 1119 883.5 c 128,-1,52
 1096 943 1096 943 1096 1011 c 0,53,54
 1096 1066 1096 1066 1111 1114 c 1,55,56
 1082 1155 1082 1155 1041.5 1192 c 128,-1,57
 1001 1229 1001 1229 951 1257 c 128,-1,58
 901 1285 901 1285 842 1301.5 c 128,-1,59
 783 1318 783 1318 717 1318 c 0,60,61
 603 1318 603 1318 503.5 1279.5 c 128,-1,62
 404 1241 404 1241 330.5 1176.5 c 128,-1,63
 257 1112 257 1112 214.5 1027 c 128,-1,64
 172 942 172 942 172 849 c 0,65,66
 172 813 172 813 181 776.5 c 128,-1,67
 190 740 190 740 207 707 c 128,-1,68
 224 674 224 674 250 646.5 c 128,-1,69
 276 619 276 619 309 603 c 1,70,71
 344 695 344 695 420.5 772 c 128,-1,72
 497 849 497 849 621 909 c 1,73,-1
 673 805 l 1,74,75
 528 733 528 733 463.5 636 c 128,-1,76
 399 539 399 539 399 426 c 0,77,78
 399 368 399 368 418 314 c 128,-1,79
 437 260 437 260 476.5 218 c 128,-1,80
 516 176 516 176 576 150.5 c 128,-1,81
 636 125 636 125 718 125 c 0,82,83
 788 125 788 125 843.5 147 c 128,-1,84
 899 169 899 169 937 204.5 c 128,-1,85
 975 240 975 240 995.5 285 c 128,-1,86
 1016 330 1016 330 1016 376 c 0,87,88
 1016 439 1016 439 985 495 c 128,-1,89
 954 551 954 551 892 591 c 1,90,-1
 734 395 l 1,91,-1
 633 474 l 1,92,-1
 984 906 l 1,0,-1
1399 814 m 0,93,94
 1439 814 1439 814 1472.5 830.5 c 128,-1,95
 1506 847 1506 847 1530 874.5 c 128,-1,96
 1554 902 1554 902 1567 937 c 128,-1,97
 1580 972 1580 972 1580 1009 c 0,98,99
 1580 1051 1580 1051 1567 1087.5 c 128,-1,100
 1554 1124 1554 1124 1530.5 1151 c 128,-1,101
 1507 1178 1507 1178 1474 1193.5 c 128,-1,102
 1441 1209 1441 1209 1401 1209 c 0,103,104
 1365 1209 1365 1209 1332 1193.5 c 128,-1,105
 1299 1178 1299 1178 1273.5 1151 c 128,-1,106
 1248 1124 1248 1124 1233 1087.5 c 128,-1,107
 1218 1051 1218 1051 1218 1009 c 0,108,109
 1218 965 1218 965 1231.5 929.5 c 128,-1,110
 1245 894 1245 894 1269.5 868 c 128,-1,111
 1294 842 1294 842 1327 828 c 128,-1,112
 1360 814 1360 814 1399 814 c 0,93,94
EndSplineSet
PairPos2: "APUniAprantWeb-'dist' Distance lookup 3 subtable" AltO_haphala dx=0 dy=0 dh=0 dv=0 dx=-435 dy=114 dh=-263 dv=0
PairPos2: "APUniAprantWeb-'dist' Distance lookup 3 subtable" AltO_saphala dx=0 dy=0 dh=0 dv=0 dx=-435 dy=114 dh=-263 dv=0
PairPos2: "APUniAprantWeb-'dist' Distance lookup 3 subtable" AltO_ssaphala dx=0 dy=0 dh=0 dv=0 dx=-435 dy=114 dh=-263 dv=0
PairPos2: "APUniAprantWeb-'dist' Distance lookup 3 subtable" AltO_shaphala dx=0 dy=0 dh=0 dv=0 dx=-435 dy=114 dh=-263 dv=0
PairPos2: "APUniAprantWeb-'dist' Distance lookup 3 subtable" AltO_vaphala dx=0 dy=0 dh=0 dv=0 dx=-435 dy=114 dh=-263 dv=0
PairPos2: "APUniAprantWeb-'dist' Distance lookup 3 subtable" AltO_llaphala dx=0 dy=0 dh=0 dv=0 dx=-435 dy=114 dh=-263 dv=0
PairPos2: "APUniAprantWeb-'dist' Distance lookup 3 subtable" AltO_laphala dx=0 dy=0 dh=0 dv=0 dx=-435 dy=114 dh=-263 dv=0
PairPos2: "APUniAprantWeb-'dist' Distance lookup 3 subtable" AltO_yaphala dx=0 dy=0 dh=0 dv=0 dx=-435 dy=114 dh=-263 dv=0
PairPos2: "APUniAprantWeb-'dist' Distance lookup 3 subtable" AltO_maphala dx=0 dy=0 dh=0 dv=0 dx=-435 dy=114 dh=-263 dv=0
PairPos2: "APUniAprantWeb-'dist' Distance lookup 3 subtable" AltO_bhaphala dx=0 dy=0 dh=0 dv=0 dx=-435 dy=114 dh=-263 dv=0
PairPos2: "APUniAprantWeb-'dist' Distance lookup 3 subtable" AltO_baphala dx=0 dy=0 dh=0 dv=0 dx=-435 dy=114 dh=-263 dv=0
PairPos2: "APUniAprantWeb-'dist' Distance lookup 3 subtable" AltO_phaphala dx=0 dy=0 dh=0 dv=0 dx=-435 dy=114 dh=-263 dv=0
PairPos2: "APUniAprantWeb-'dist' Distance lookup 3 subtable" AltO_paphala dx=0 dy=0 dh=0 dv=0 dx=-435 dy=114 dh=-263 dv=0
PairPos2: "APUniAprantWeb-'dist' Distance lookup 3 subtable" AltO_naphala dx=0 dy=0 dh=0 dv=0 dx=-435 dy=114 dh=-263 dv=0
PairPos2: "APUniAprantWeb-'dist' Distance lookup 3 subtable" AltO_dhaphala dx=0 dy=0 dh=0 dv=0 dx=-435 dy=114 dh=-263 dv=0
PairPos2: "APUniAprantWeb-'dist' Distance lookup 3 subtable" AltO_daphala dx=0 dy=0 dh=0 dv=0 dx=-435 dy=114 dh=-263 dv=0
PairPos2: "APUniAprantWeb-'dist' Distance lookup 3 subtable" AltO_thaphala dx=0 dy=0 dh=0 dv=0 dx=-435 dy=114 dh=-263 dv=0
PairPos2: "APUniAprantWeb-'dist' Distance lookup 3 subtable" AltO_taphala dx=0 dy=0 dh=0 dv=0 dx=-435 dy=114 dh=-263 dv=0
PairPos2: "APUniAprantWeb-'dist' Distance lookup 3 subtable" AltO_nnaphala dx=0 dy=0 dh=0 dv=0 dx=-435 dy=114 dh=-263 dv=0
PairPos2: "APUniAprantWeb-'dist' Distance lookup 3 subtable" AltO_ddhaphala dx=0 dy=0 dh=0 dv=0 dx=-435 dy=114 dh=-263 dv=0
PairPos2: "APUniAprantWeb-'dist' Distance lookup 3 subtable" AltO_ddaphala dx=0 dy=0 dh=0 dv=0 dx=-435 dy=114 dh=-263 dv=0
PairPos2: "APUniAprantWeb-'dist' Distance lookup 3 subtable" AltO_tthaphala dx=0 dy=0 dh=0 dv=0 dx=-435 dy=114 dh=-263 dv=0
PairPos2: "APUniAprantWeb-'dist' Distance lookup 3 subtable" AltO_ttaphala dx=0 dy=0 dh=0 dv=0 dx=-435 dy=114 dh=-263 dv=0
PairPos2: "APUniAprantWeb-'dist' Distance lookup 3 subtable" AltO_jhaphala dx=0 dy=0 dh=0 dv=0 dx=-435 dy=114 dh=-263 dv=0
PairPos2: "APUniAprantWeb-'dist' Distance lookup 3 subtable" AltO_japhala dx=0 dy=0 dh=0 dv=0 dx=-435 dy=114 dh=-263 dv=0
PairPos2: "APUniAprantWeb-'dist' Distance lookup 3 subtable" AltO_chaphala dx=0 dy=0 dh=0 dv=0 dx=-435 dy=114 dh=-263 dv=0
PairPos2: "APUniAprantWeb-'dist' Distance lookup 3 subtable" AltO_caphala dx=0 dy=0 dh=0 dv=0 dx=-435 dy=114 dh=-263 dv=0
PairPos2: "APUniAprantWeb-'dist' Distance lookup 3 subtable" AltO_ngaphala dx=0 dy=0 dh=0 dv=0 dx=-435 dy=114 dh=-263 dv=0
PairPos2: "APUniAprantWeb-'dist' Distance lookup 3 subtable" AltO_ghaphala dx=0 dy=0 dh=0 dv=0 dx=-435 dy=114 dh=-263 dv=0
PairPos2: "APUniAprantWeb-'dist' Distance lookup 3 subtable" AltO_gaphala dx=0 dy=0 dh=0 dv=0 dx=-435 dy=114 dh=-263 dv=0
PairPos2: "APUniAprantWeb-'dist' Distance lookup 3 subtable" AltO_khaphala dx=0 dy=0 dh=0 dv=0 dx=-435 dy=114 dh=-263 dv=0
PairPos2: "APUniAprantWeb-'dist' Distance lookup 3 subtable" AltO_kaphala dx=0 dy=0 dh=0 dv=0 dx=-435 dy=114 dh=-263 dv=0
EndChar

StartChar: uni0B1A
Encoding: 2842 2842 272
Width: 1504
VWidth: 2210
GlyphClass: 2
Flags: W
AnchorPoint: "Anchor-7" 1250 400 basechar 0
AnchorPoint: "Anchor-6" 1294 0 basechar 0
AnchorPoint: "Anchor-5" 1516 0 basechar 0
AnchorPoint: "Anchor-4" 950 430 basechar 0
AnchorPoint: "Anchor-3" 1274 0 basechar 0
AnchorPoint: "Anchor-2" 1250 -9 basechar 0
AnchorPoint: "Anchor-1" 1375 0 basechar 0
AnchorPoint: "Anchor-0" 1424 0 basechar 0
LayerCount: 2
Fore
SplineSet
374 380 m 0,0,1
 374 395 374 395 375 410 c 128,-1,2
 376 425 376 425 378 440 c 1,3,4
 303 455 303 455 242.5 492 c 128,-1,5
 182 529 182 529 139.5 583 c 128,-1,6
 97 637 97 637 73.5 704.5 c 128,-1,7
 50 772 50 772 50 849 c 0,8,9
 50 933 50 933 74 1010 c 128,-1,10
 98 1087 98 1087 142 1153 c 128,-1,11
 186 1219 186 1219 247 1273 c 128,-1,12
 308 1327 308 1327 382 1365 c 128,-1,13
 456 1403 456 1403 541 1424 c 128,-1,14
 626 1445 626 1445 717 1445 c 0,15,16
 830 1445 830 1445 924.5 1420.5 c 128,-1,17
 1019 1396 1019 1396 1094.5 1354 c 128,-1,18
 1170 1312 1170 1312 1227.5 1255.5 c 128,-1,19
 1285 1199 1285 1199 1323 1134.5 c 128,-1,20
 1361 1070 1361 1070 1380 1001 c 128,-1,21
 1399 932 1399 932 1399 866 c 0,22,23
 1399 794 1399 794 1379 728 c 128,-1,24
 1359 662 1359 662 1315 601 c 1,25,-1
 1209 671 l 1,26,27
 1248 725 1248 725 1262.5 772 c 128,-1,28
 1277 819 1277 819 1277 866 c 0,29,30
 1277 953 1277 953 1236 1034.5 c 128,-1,31
 1195 1116 1195 1116 1121.5 1179 c 128,-1,32
 1048 1242 1048 1242 944.5 1280 c 128,-1,33
 841 1318 841 1318 717 1318 c 0,34,35
 603 1318 603 1318 503.5 1279.5 c 128,-1,36
 404 1241 404 1241 330.5 1176.5 c 128,-1,37
 257 1112 257 1112 214.5 1027 c 128,-1,38
 172 942 172 942 172 849 c 0,39,40
 172 803 172 803 185.5 756.5 c 128,-1,41
 199 710 199 710 228.5 671 c 128,-1,42
 258 632 258 632 305 604.5 c 128,-1,43
 352 577 352 577 418 569 c 1,44,45
 442 615 442 615 476.5 652 c 128,-1,46
 511 689 511 689 552 714.5 c 128,-1,47
 593 740 593 740 640 753.5 c 128,-1,48
 687 767 687 767 735 767 c 0,49,50
 811 767 811 767 876.5 736.5 c 128,-1,51
 942 706 942 706 989.5 653.5 c 128,-1,52
 1037 601 1037 601 1064 531 c 128,-1,53
 1091 461 1091 461 1091 382 c 0,54,55
 1091 305 1091 305 1064 236 c 128,-1,56
 1037 167 1037 167 989.5 114.5 c 128,-1,57
 942 62 942 62 876.5 31 c 128,-1,58
 811 0 811 0 735 0 c 0,59,60
 655 0 655 0 588.5 31 c 128,-1,61
 522 62 522 62 474.5 114 c 128,-1,62
 427 166 427 166 400.5 235 c 128,-1,63
 374 304 374 304 374 380 c 0,0,1
733 127 m 0,64,65
 785 127 785 127 828 146.5 c 128,-1,66
 871 166 871 166 902.5 200 c 128,-1,67
 934 234 934 234 951.5 280.5 c 128,-1,68
 969 327 969 327 969 381 c 0,69,70
 969 436 969 436 953 483 c 128,-1,71
 937 530 937 530 907 565 c 128,-1,72
 877 600 877 600 834 620 c 128,-1,73
 791 640 791 640 736 640 c 0,74,75
 685 640 685 640 641 620 c 128,-1,76
 597 600 597 600 564.5 565 c 128,-1,77
 532 530 532 530 514 483 c 128,-1,78
 496 436 496 436 496 381 c 0,79,80
 496 325 496 325 512.5 278.5 c 128,-1,81
 529 232 529 232 560 198 c 128,-1,82
 591 164 591 164 635 145.5 c 128,-1,83
 679 127 679 127 733 127 c 0,64,65
EndSplineSet
EndChar

StartChar: uni0B1B
Encoding: 2843 2843 273
Width: 1506
VWidth: 2210
GlyphClass: 2
Flags: W
AnchorPoint: "Anchor-7" 1098 400 basechar 0
AnchorPoint: "Anchor-6" 1294 -28 basechar 0
AnchorPoint: "Anchor-5" 1516 0 basechar 0
AnchorPoint: "Anchor-4" 990 430 basechar 0
AnchorPoint: "Anchor-3" 1323 -90 basechar 0
AnchorPoint: "Anchor-2" 1241 -99 basechar 0
AnchorPoint: "Anchor-1" 1375 0 basechar 0
AnchorPoint: "Anchor-0" 1424 0 basechar 0
LayerCount: 2
Fore
SplineSet
745 871 m 0,0,1
 822 871 822 871 887.5 840.5 c 128,-1,2
 953 810 953 810 1001 757.5 c 128,-1,3
 1049 705 1049 705 1076 634.5 c 128,-1,4
 1103 564 1103 564 1103 485 c 0,5,6
 1103 393 1103 393 1066 313 c 1,7,8
 1114 302 1114 302 1155.5 278.5 c 128,-1,9
 1197 255 1197 255 1227 222.5 c 128,-1,10
 1257 190 1257 190 1274.5 150 c 128,-1,11
 1292 110 1292 110 1292 65 c 0,12,13
 1292 9 1292 9 1268 -38 c 128,-1,14
 1244 -85 1244 -85 1203 -119 c 128,-1,15
 1162 -153 1162 -153 1107.5 -171.5 c 128,-1,16
 1053 -190 1053 -190 992 -190 c 0,17,18
 920 -190 920 -190 857 -164 c 128,-1,19
 794 -138 794 -138 751 -90 c 1,20,21
 708 -138 708 -138 646 -164 c 128,-1,22
 584 -190 584 -190 509 -190 c 0,23,24
 449 -190 449 -190 394 -171 c 128,-1,25
 339 -152 339 -152 297 -118 c 128,-1,26
 255 -84 255 -84 230 -37.5 c 128,-1,27
 205 9 205 9 205 65 c 0,28,29
 205 116 205 116 221.5 156.5 c 128,-1,30
 238 197 238 197 267 228 c 128,-1,31
 296 259 296 259 335 279.5 c 128,-1,32
 374 300 374 300 420 311 c 1,33,34
 413 325 413 325 401 358.5 c 128,-1,35
 389 392 389 392 384 439 c 1,36,37
 308 454 308 454 246.5 490.5 c 128,-1,38
 185 527 185 527 141.5 581 c 128,-1,39
 98 635 98 635 74 703 c 128,-1,40
 50 771 50 771 50 849 c 0,41,42
 50 933 50 933 74 1010 c 128,-1,43
 98 1087 98 1087 142 1153 c 128,-1,44
 186 1219 186 1219 247 1273 c 128,-1,45
 308 1327 308 1327 382 1365 c 128,-1,46
 456 1403 456 1403 541 1424 c 128,-1,47
 626 1445 626 1445 717 1445 c 0,48,49
 830 1445 830 1445 924.5 1420.5 c 128,-1,50
 1019 1396 1019 1396 1094.5 1354 c 128,-1,51
 1170 1312 1170 1312 1227.5 1255.5 c 128,-1,52
 1285 1199 1285 1199 1323 1134.5 c 128,-1,53
 1361 1070 1361 1070 1380 1001 c 128,-1,54
 1399 932 1399 932 1399 866 c 0,55,56
 1399 794 1399 794 1379 728 c 128,-1,57
 1359 662 1359 662 1315 601 c 1,58,-1
 1209 671 l 1,59,60
 1248 725 1248 725 1262.5 772 c 128,-1,61
 1277 819 1277 819 1277 866 c 0,62,63
 1277 953 1277 953 1236 1034.5 c 128,-1,64
 1195 1116 1195 1116 1121.5 1179 c 128,-1,65
 1048 1242 1048 1242 944.5 1280 c 128,-1,66
 841 1318 841 1318 717 1318 c 0,67,68
 603 1318 603 1318 503.5 1279.5 c 128,-1,69
 404 1241 404 1241 330.5 1176.5 c 128,-1,70
 257 1112 257 1112 214.5 1027 c 128,-1,71
 172 942 172 942 172 849 c 0,72,73
 172 805 172 805 184 761 c 128,-1,74
 196 717 196 717 222.5 679 c 128,-1,75
 249 641 249 641 290.5 613 c 128,-1,76
 332 585 332 585 391 573 c 1,77,78
 405 639 405 639 438 693.5 c 128,-1,79
 471 748 471 748 517.5 787.5 c 128,-1,80
 564 827 564 827 622 849 c 128,-1,81
 680 871 680 871 745 871 c 0,0,1
743 227 m 0,82,83
 795 227 795 227 839 246.5 c 128,-1,84
 883 266 883 266 914.5 300.5 c 128,-1,85
 946 335 946 335 963.5 382 c 128,-1,86
 981 429 981 429 981 483 c 0,87,88
 981 538 981 538 965 585.5 c 128,-1,89
 949 633 949 633 918.5 668.5 c 128,-1,90
 888 704 888 704 844.5 724 c 128,-1,91
 801 744 801 744 746 744 c 0,92,93
 695 744 695 744 650.5 724 c 128,-1,94
 606 704 606 704 574 668.5 c 128,-1,95
 542 633 542 633 523.5 585.5 c 128,-1,96
 505 538 505 538 505 483 c 0,97,98
 505 427 505 427 522 380 c 128,-1,99
 539 333 539 333 570 299 c 128,-1,100
 601 265 601 265 645 246 c 128,-1,101
 689 227 689 227 743 227 c 0,82,83
990 -63 m 0,102,103
 1077 -63 1077 -63 1123.5 -30 c 128,-1,104
 1170 3 1170 3 1170 63 c 0,105,106
 1170 97 1170 97 1155.5 122 c 128,-1,107
 1141 147 1141 147 1117 163 c 128,-1,108
 1093 179 1093 179 1061 186.5 c 128,-1,109
 1029 194 1029 194 993 194 c 2,110,-1
 981 194 l 1,111,112
 947 162 947 162 905.5 139.5 c 128,-1,113
 864 117 864 117 815 107 c 1,114,115
 809 87 809 87 809 63 c 0,116,117
 809 -1 809 -1 859 -32 c 128,-1,118
 909 -63 909 -63 990 -63 c 0,102,103
507 -63 m 0,119,120
 594 -63 594 -63 640.5 -30 c 128,-1,121
 687 3 687 3 687 63 c 0,122,123
 687 87 687 87 681 105 c 1,124,125
 629 114 629 114 585 137 c 128,-1,126
 541 160 541 160 504 194 c 1,127,128
 419 193 419 193 372.5 162.5 c 128,-1,129
 326 132 326 132 326 63 c 0,130,131
 326 -1 326 -1 376 -32 c 128,-1,132
 426 -63 426 -63 507 -63 c 0,119,120
EndSplineSet
EndChar

StartChar: uni0B1C
Encoding: 2844 2844 274
Width: 1506
VWidth: 2210
GlyphClass: 2
Flags: W
AnchorPoint: "Anchor-7" 1251 400 basechar 0
AnchorPoint: "Anchor-6" 1213 0 basechar 0
AnchorPoint: "Anchor-5" 1516 0 basechar 0
AnchorPoint: "Anchor-4" 918 430 basechar 0
AnchorPoint: "Anchor-3" 1242 0 basechar 0
AnchorPoint: "Anchor-2" 1268 0 basechar 0
AnchorPoint: "Anchor-1" 1375 0 basechar 0
AnchorPoint: "Anchor-0" 1424 0 basechar 0
LayerCount: 2
Fore
SplineSet
244 395 m 0,0,1
 244 439 244 439 255 485 c 1,2,3
 158 539 158 539 104 633.5 c 128,-1,4
 50 728 50 728 50 849 c 0,5,6
 50 933 50 933 74 1010 c 128,-1,7
 98 1087 98 1087 142 1153 c 128,-1,8
 186 1219 186 1219 247 1273 c 128,-1,9
 308 1327 308 1327 382 1365 c 128,-1,10
 456 1403 456 1403 541 1424 c 128,-1,11
 626 1445 626 1445 717 1445 c 0,12,13
 830 1445 830 1445 924.5 1420.5 c 128,-1,14
 1019 1396 1019 1396 1094.5 1354 c 128,-1,15
 1170 1312 1170 1312 1227.5 1255.5 c 128,-1,16
 1285 1199 1285 1199 1323 1134.5 c 128,-1,17
 1361 1070 1361 1070 1380 1001 c 128,-1,18
 1399 932 1399 932 1399 866 c 0,19,20
 1399 794 1399 794 1379 728 c 128,-1,21
 1359 662 1359 662 1315 601 c 1,22,-1
 1209 671 l 1,23,24
 1248 725 1248 725 1262.5 772 c 128,-1,25
 1277 819 1277 819 1277 866 c 0,26,27
 1277 953 1277 953 1236 1034.5 c 128,-1,28
 1195 1116 1195 1116 1121.5 1179 c 128,-1,29
 1048 1242 1048 1242 944.5 1280 c 128,-1,30
 841 1318 841 1318 717 1318 c 0,31,32
 603 1318 603 1318 503.5 1279.5 c 128,-1,33
 404 1241 404 1241 330.5 1176.5 c 128,-1,34
 257 1112 257 1112 214.5 1027 c 128,-1,35
 172 942 172 942 172 849 c 0,36,37
 172 814 172 814 179.5 779.5 c 128,-1,38
 187 745 187 745 203.5 712.5 c 128,-1,39
 220 680 220 680 245 652.5 c 128,-1,40
 270 625 270 625 306 605 c 1,41,42
 358 690 358 690 447 756 c 128,-1,43
 536 822 536 822 652 855 c 1,44,-1
 696 744 l 1,45,46
 623 724 623 724 562.5 689 c 128,-1,47
 502 654 502 654 458.5 608.5 c 128,-1,48
 415 563 415 563 390.5 508 c 128,-1,49
 366 453 366 453 366 393 c 0,50,51
 366 336 366 336 380 287 c 128,-1,52
 394 238 394 238 423 203 c 128,-1,53
 452 168 452 168 495.5 148 c 128,-1,54
 539 128 539 128 598 128 c 0,55,56
 677 128 677 128 721 158 c 128,-1,57
 765 188 765 188 780 233 c 1,58,59
 735 256 735 256 707 309.5 c 128,-1,60
 679 363 679 363 679 436 c 0,61,62
 679 477 679 477 694.5 521 c 128,-1,63
 710 565 710 565 740.5 601 c 128,-1,64
 771 637 771 637 815.5 660 c 128,-1,65
 860 683 860 683 918 683 c 0,66,67
 964 683 964 683 1005.5 665.5 c 128,-1,68
 1047 648 1047 648 1077.5 617.5 c 128,-1,69
 1108 587 1108 587 1126 544.5 c 128,-1,70
 1144 502 1144 502 1144 451 c 2,71,-1
 1144 0 l 1,72,-1
 1022 0 l 1,73,-1
 1022 443 l 2,74,75
 1022 465 1022 465 1015.5 485.5 c 128,-1,76
 1009 506 1009 506 996 522 c 128,-1,77
 983 538 983 538 963.5 547.5 c 128,-1,78
 944 557 944 557 918 557 c 256,79,80
 892 557 892 557 870 546.5 c 128,-1,81
 848 536 848 536 831.5 518.5 c 128,-1,82
 815 501 815 501 805.5 479 c 128,-1,83
 796 457 796 457 796 433 c 0,84,85
 796 377 796 377 830.5 339 c 128,-1,86
 865 301 865 301 914 275 c 1,87,88
 905 219 905 219 883 169.5 c 128,-1,89
 861 120 861 120 823 82.5 c 128,-1,90
 785 45 785 45 730 23 c 128,-1,91
 675 1 675 1 600 1 c 0,92,93
 515 1 515 1 448.5 34 c 128,-1,94
 382 67 382 67 336.5 122 c 128,-1,95
 291 177 291 177 267.5 248 c 128,-1,96
 244 319 244 319 244 395 c 0,0,1
EndSplineSet
EndChar

StartChar: uni0B1D
Encoding: 2845 2845 275
Width: 1488
VWidth: 2210
GlyphClass: 2
Flags: W
AnchorPoint: "Anchor-7" 1100 400 basechar 0
AnchorPoint: "Anchor-6" 1294 -4 basechar 0
AnchorPoint: "Anchor-5" 1516 0 basechar 0
AnchorPoint: "Anchor-4" 860 430 basechar 0
AnchorPoint: "Anchor-3" 1377 0 basechar 0
AnchorPoint: "Anchor-2" 1448 0 basechar 0
AnchorPoint: "Anchor-1" 1375 0 basechar 0
AnchorPoint: "Anchor-0" 1424 0 basechar 0
LayerCount: 2
Fore
SplineSet
717 1318 m 0,0,1
 603 1318 603 1318 503.5 1279.5 c 128,-1,2
 404 1241 404 1241 330.5 1176.5 c 128,-1,3
 257 1112 257 1112 214.5 1027 c 128,-1,4
 172 942 172 942 172 849 c 0,5,6
 172 805 172 805 184.5 760.5 c 128,-1,7
 197 716 197 716 224 677.5 c 128,-1,8
 251 639 251 639 294 611 c 128,-1,9
 337 583 337 583 397 572 c 1,10,11
 421 619 421 619 456.5 655.5 c 128,-1,12
 492 692 492 692 533.5 716.5 c 128,-1,13
 575 741 575 741 621 754 c 128,-1,14
 667 767 667 767 714 767 c 0,15,16
 790 767 790 767 855.5 736.5 c 128,-1,17
 921 706 921 706 968.5 653.5 c 128,-1,18
 1016 601 1016 601 1043 531 c 128,-1,19
 1070 461 1070 461 1070 382 c 0,20,21
 1070 331 1070 331 1058 283.5 c 128,-1,22
 1046 236 1046 236 1024 194 c 1,23,-1
 1300 3 l 1,24,-1
 1233 -103 l 1,25,-1
 949 94 l 1,26,27
 903 49 903 49 843 24.5 c 128,-1,28
 783 0 783 0 714 0 c 0,29,30
 648 0 648 0 583 25 c 128,-1,31
 518 50 518 50 467 98.5 c 128,-1,32
 416 147 416 147 384.5 218 c 128,-1,33
 353 289 353 289 353 381 c 0,34,35
 353 398 353 398 354 413.5 c 128,-1,36
 355 429 355 429 357 445 c 1,37,38
 287 463 287 463 230 500.5 c 128,-1,39
 173 538 173 538 133 590.5 c 128,-1,40
 93 643 93 643 71.5 709 c 128,-1,41
 50 775 50 775 50 849 c 0,42,43
 50 933 50 933 74 1010 c 128,-1,44
 98 1087 98 1087 142 1153 c 128,-1,45
 186 1219 186 1219 247 1273 c 128,-1,46
 308 1327 308 1327 382 1365 c 128,-1,47
 456 1403 456 1403 541 1424 c 128,-1,48
 626 1445 626 1445 717 1445 c 0,49,50
 753 1445 753 1445 787 1441.5 c 128,-1,51
 821 1438 821 1438 854.5 1430.5 c 128,-1,52
 888 1423 888 1423 923.5 1410.5 c 128,-1,53
 959 1398 959 1398 998 1381 c 1,54,55
 975 1342 975 1342 957 1308.5 c 128,-1,56
 939 1275 939 1275 927 1244 c 128,-1,57
 915 1213 915 1213 909 1182.5 c 128,-1,58
 903 1152 903 1152 903 1118 c 0,59,60
 903 1076 903 1076 917.5 1043.5 c 128,-1,61
 932 1011 932 1011 957.5 988 c 128,-1,62
 983 965 983 965 1016.5 953 c 128,-1,63
 1050 941 1050 941 1089 941 c 0,64,65
 1177 941 1177 941 1227.5 993 c 128,-1,66
 1278 1045 1278 1045 1278 1142 c 0,67,68
 1278 1202 1278 1202 1263.5 1255 c 128,-1,69
 1249 1308 1249 1308 1217 1362 c 1,70,-1
 1326 1416 l 1,71,72
 1364 1350 1364 1350 1383 1279.5 c 128,-1,73
 1402 1209 1402 1209 1402 1142 c 0,74,75
 1402 1070 1402 1070 1378.5 1009.5 c 128,-1,76
 1355 949 1355 949 1313.5 905.5 c 128,-1,77
 1272 862 1272 862 1214.5 838 c 128,-1,78
 1157 814 1157 814 1089 814 c 256,79,80
 1021 814 1021 814 964.5 838 c 128,-1,81
 908 862 908 862 867 903.5 c 128,-1,82
 826 945 826 945 803.5 1000.5 c 128,-1,83
 781 1056 781 1056 781 1118 c 0,84,85
 781 1160 781 1160 792.5 1207.5 c 128,-1,86
 804 1255 804 1255 825 1306 c 1,87,88
 806 1310 806 1310 792 1312.5 c 128,-1,89
 778 1315 778 1315 766 1316 c 128,-1,90
 754 1317 754 1317 742.5 1317.5 c 128,-1,91
 731 1318 731 1318 717 1318 c 0,0,1
712 127 m 0,92,93
 764 127 764 127 807 146.5 c 128,-1,94
 850 166 850 166 881.5 200 c 128,-1,95
 913 234 913 234 930.5 280.5 c 128,-1,96
 948 327 948 327 948 381 c 0,97,98
 948 436 948 436 932 483 c 128,-1,99
 916 530 916 530 886 565 c 128,-1,100
 856 600 856 600 813 620 c 128,-1,101
 770 640 770 640 715 640 c 0,102,103
 664 640 664 640 620 620 c 128,-1,104
 576 600 576 600 543.5 565 c 128,-1,105
 511 530 511 530 493 483 c 128,-1,106
 475 436 475 436 475 381 c 0,107,108
 475 325 475 325 491.5 278.5 c 128,-1,109
 508 232 508 232 539 198 c 128,-1,110
 570 164 570 164 614 145.5 c 128,-1,111
 658 127 658 127 712 127 c 0,92,93
EndSplineSet
EndChar

StartChar: uni0B1E
Encoding: 2846 2846 276
Width: 1336
VWidth: 2210
GlyphClass: 2
Flags: W
AnchorPoint: "Anchor-7" 1035 400 basechar 0
AnchorPoint: "Anchor-6" 1194 4 basechar 0
AnchorPoint: "Anchor-5" 1363 0 basechar 0
AnchorPoint: "Anchor-4" 810 430 basechar 0
AnchorPoint: "Anchor-3" 1260 0 basechar 0
AnchorPoint: "Anchor-2" 1250 9 basechar 0
AnchorPoint: "Anchor-1" 1375 0 basechar 0
AnchorPoint: "Anchor-0" 1350 0 basechar 0
LayerCount: 2
Fore
SplineSet
77 1121 m 0,0,1
 77 1228 77 1228 125.5 1317 c 128,-1,2
 174 1406 174 1406 284 1486 c 1,3,-1
 354 1392 l 1,4,5
 309 1362 309 1362 278.5 1332 c 128,-1,6
 248 1302 248 1302 229 1269 c 128,-1,7
 210 1236 210 1236 202 1199.5 c 128,-1,8
 194 1163 194 1163 194 1121 c 0,9,10
 194 1043 194 1043 229.5 978 c 128,-1,11
 265 913 265 913 327.5 866.5 c 128,-1,12
 390 820 390 820 475 794 c 128,-1,13
 560 768 560 768 658 768 c 0,14,15
 758 768 758 768 846.5 789 c 128,-1,16
 935 810 935 810 1001.5 851 c 128,-1,17
 1068 892 1068 892 1106.5 952 c 128,-1,18
 1145 1012 1145 1012 1145 1090 c 0,19,20
 1145 1139 1145 1139 1133.5 1180 c 128,-1,21
 1122 1221 1122 1221 1100.5 1250.5 c 128,-1,22
 1079 1280 1079 1280 1049 1296.5 c 128,-1,23
 1019 1313 1019 1313 982 1313 c 0,24,25
 949 1313 949 1313 923.5 1300 c 128,-1,26
 898 1287 898 1287 880.5 1266 c 128,-1,27
 863 1245 863 1245 853.5 1218.5 c 128,-1,28
 844 1192 844 1192 844 1165 c 2,29,-1
 844 1029 l 1,30,-1
 730 1029 l 1,31,-1
 730 1167 l 2,32,33
 730 1199 730 1199 719 1225.5 c 128,-1,34
 708 1252 708 1252 689 1271.5 c 128,-1,35
 670 1291 670 1291 644.5 1302 c 128,-1,36
 619 1313 619 1313 590 1313 c 0,37,38
 526 1313 526 1313 491 1272 c 128,-1,39
 456 1231 456 1231 456 1164 c 0,40,41
 456 1140 456 1140 464.5 1116.5 c 128,-1,42
 473 1093 473 1093 483 1076 c 1,43,-1
 382 1032 l 1,44,45
 365 1057 365 1057 353.5 1087.5 c 128,-1,46
 342 1118 342 1118 342 1164 c 0,47,48
 342 1222 342 1222 362 1273 c 128,-1,49
 382 1324 382 1324 416 1361.5 c 128,-1,50
 450 1399 450 1399 495 1420.5 c 128,-1,51
 540 1442 540 1442 590 1442 c 0,52,53
 630 1442 630 1442 659.5 1435 c 128,-1,54
 689 1428 689 1428 712 1415 c 128,-1,55
 735 1402 735 1402 754 1383 c 128,-1,56
 773 1364 773 1364 793 1339 c 1,57,58
 835 1394 835 1394 885 1418 c 128,-1,59
 935 1442 935 1442 982 1442 c 0,60,61
 1040 1442 1040 1442 1091.5 1415 c 128,-1,62
 1143 1388 1143 1388 1180.5 1341 c 128,-1,63
 1218 1294 1218 1294 1240 1229.5 c 128,-1,64
 1262 1165 1262 1165 1262 1090 c 0,65,66
 1262 984 1262 984 1217.5 906 c 128,-1,67
 1173 828 1173 828 1098 771 c 1,68,69
 1134 751 1134 751 1164.5 719 c 128,-1,70
 1195 687 1195 687 1216.5 645.5 c 128,-1,71
 1238 604 1238 604 1250 555 c 128,-1,72
 1262 506 1262 506 1262 451 c 0,73,74
 1262 337 1262 337 1209 252 c 128,-1,75
 1156 167 1156 167 1070 111 c 128,-1,76
 984 55 984 55 876 27.5 c 128,-1,77
 768 0 768 0 658 0 c 0,78,79
 537 0 537 0 431 37 c 128,-1,80
 325 74 325 74 246.5 138.5 c 128,-1,81
 168 203 168 203 122.5 291.5 c 128,-1,82
 77 380 77 380 77 482 c 0,83,84
 77 573 77 573 109.5 652 c 128,-1,85
 142 731 142 731 220 802 c 1,86,87
 153 866 153 866 115 946.5 c 128,-1,88
 77 1027 77 1027 77 1121 c 0,0,1
658 639 m 2,89,90
 584 639 584 639 515 654 c 1,91,92
 486 634 486 634 471 601 c 128,-1,93
 456 568 456 568 456 524 c 0,94,95
 456 501 456 501 464.5 477.5 c 128,-1,96
 473 454 473 454 483 436 c 1,97,-1
 382 393 l 1,98,99
 365 417 365 417 353.5 448 c 128,-1,100
 342 479 342 479 342 524 c 0,101,102
 342 573 342 573 355 614.5 c 128,-1,103
 368 656 368 656 392 691 c 1,104,105
 372 699 372 699 354 708 c 128,-1,106
 336 717 336 717 318 727 c 1,107,108
 249 675 249 675 221.5 616.5 c 128,-1,109
 194 558 194 558 194 482 c 0,110,111
 194 404 194 404 229.5 338.5 c 128,-1,112
 265 273 265 273 327.5 226.5 c 128,-1,113
 390 180 390 180 475 154 c 128,-1,114
 560 128 560 128 658 128 c 0,115,116
 758 128 758 128 846.5 149 c 128,-1,117
 935 170 935 170 1001.5 211.5 c 128,-1,118
 1068 253 1068 253 1106.5 313 c 128,-1,119
 1145 373 1145 373 1145 451 c 0,120,121
 1145 500 1145 500 1133.5 541 c 128,-1,122
 1122 582 1122 582 1100.5 611.5 c 128,-1,123
 1079 641 1079 641 1049 657.5 c 128,-1,124
 1019 674 1019 674 982 674 c 0,125,126
 949 674 949 674 923.5 661 c 128,-1,127
 898 648 898 648 880.5 627 c 128,-1,128
 863 606 863 606 853.5 579.5 c 128,-1,129
 844 553 844 553 844 525 c 2,130,-1
 844 390 l 1,131,-1
 730 390 l 1,132,-1
 730 527 l 2,133,134
 730 563 730 563 717 591 c 128,-1,135
 704 619 704 619 681 639 c 1,136,-1
 658 639 l 2,89,90
EndSplineSet
EndChar

StartChar: uni0B1F
Encoding: 2847 2847 277
Width: 1484
VWidth: 2210
GlyphClass: 2
Flags: W
AnchorPoint: "Anchor-7" 1250 400 basechar 0
AnchorPoint: "Anchor-6" 1294 0 basechar 0
AnchorPoint: "Anchor-5" 1363 0 basechar 0
AnchorPoint: "Anchor-4" 1116 430 basechar 0
AnchorPoint: "Anchor-3" 1276 -9 basechar 0
AnchorPoint: "Anchor-2" 1160 0 basechar 0
AnchorPoint: "Anchor-1" 1375 0 basechar 0
AnchorPoint: "Anchor-0" 1487 27 basechar 0
LayerCount: 2
Fore
SplineSet
333 380 m 0,0,1
 333 400 333 400 335 424.5 c 128,-1,2
 337 449 337 449 341 468 c 1,3,4
 270 487 270 487 216 528 c 128,-1,5
 162 569 162 569 125 624 c 128,-1,6
 88 679 88 679 69 743 c 128,-1,7
 50 807 50 807 50 872 c 0,8,9
 50 994 50 994 95 1099 c 128,-1,10
 140 1204 140 1204 222 1281 c 128,-1,11
 304 1358 304 1358 419.5 1401.5 c 128,-1,12
 535 1445 535 1445 677 1445 c 0,13,14
 782 1445 782 1445 865 1427.5 c 128,-1,15
 948 1410 948 1410 1014.5 1378.5 c 128,-1,16
 1081 1347 1081 1347 1133.5 1304 c 128,-1,17
 1186 1261 1186 1261 1228 1211 c 1,18,-1
 1228 1483 l 1,19,-1
 1350 1483 l 1,20,-1
 1350 770 l 1,21,-1
 1228 770 l 1,22,-1
 1228 966 l 1,23,24
 1211 1041 1211 1041 1162 1105.5 c 128,-1,25
 1113 1170 1113 1170 1040.5 1217 c 128,-1,26
 968 1264 968 1264 875 1291 c 128,-1,27
 782 1318 782 1318 677 1318 c 0,28,29
 561 1318 561 1318 467.5 1283 c 128,-1,30
 374 1248 374 1248 308.5 1188 c 128,-1,31
 243 1128 243 1128 207.5 1046.5 c 128,-1,32
 172 965 172 965 172 872 c 0,33,34
 172 818 172 818 188.5 768 c 128,-1,35
 205 718 205 718 233.5 679 c 128,-1,36
 262 640 262 640 301 614.5 c 128,-1,37
 340 589 340 589 385 583 c 1,38,39
 410 627 410 627 444 661 c 128,-1,40
 478 695 478 695 518 718.5 c 128,-1,41
 558 742 558 742 602.5 754.5 c 128,-1,42
 647 767 647 767 694 767 c 0,43,44
 770 767 770 767 835.5 736.5 c 128,-1,45
 901 706 901 706 948.5 653.5 c 128,-1,46
 996 601 996 601 1023 531 c 128,-1,47
 1050 461 1050 461 1050 382 c 0,48,49
 1050 305 1050 305 1023 236 c 128,-1,50
 996 167 996 167 948.5 114.5 c 128,-1,51
 901 62 901 62 835.5 31 c 128,-1,52
 770 0 770 0 694 0 c 0,53,54
 614 0 614 0 547.5 31 c 128,-1,55
 481 62 481 62 433.5 114 c 128,-1,56
 386 166 386 166 359.5 235 c 128,-1,57
 333 304 333 304 333 380 c 0,0,1
692 127 m 0,58,59
 744 127 744 127 787 146.5 c 128,-1,60
 830 166 830 166 861.5 200 c 128,-1,61
 893 234 893 234 910.5 280.5 c 128,-1,62
 928 327 928 327 928 381 c 0,63,64
 928 436 928 436 912 483 c 128,-1,65
 896 530 896 530 866 565 c 128,-1,66
 836 600 836 600 793 620 c 128,-1,67
 750 640 750 640 695 640 c 0,68,69
 644 640 644 640 600 620 c 128,-1,70
 556 600 556 600 523.5 565 c 128,-1,71
 491 530 491 530 473 483 c 128,-1,72
 455 436 455 436 455 381 c 0,73,74
 455 325 455 325 471.5 278.5 c 128,-1,75
 488 232 488 232 519 198 c 128,-1,76
 550 164 550 164 594 145.5 c 128,-1,77
 638 127 638 127 692 127 c 0,58,59
EndSplineSet
EndChar

StartChar: uni0B20
Encoding: 2848 2848 278
Width: 1514
VWidth: 2210
GlyphClass: 2
Flags: W
AnchorPoint: "Anchor-7" 1449 400 basechar 0
AnchorPoint: "Anchor-6" 1294 0 basechar 0
AnchorPoint: "Anchor-5" 1363 0 basechar 0
AnchorPoint: "Anchor-4" 1008 430 basechar 0
AnchorPoint: "Anchor-3" 1386 0 basechar 0
AnchorPoint: "Anchor-2" 1259 0 basechar 0
AnchorPoint: "Anchor-1" 1375 0 basechar 0
AnchorPoint: "Anchor-0" 1424 0 basechar 0
LayerCount: 2
Fore
SplineSet
7 726 m 256,0,1
 7 826 7 826 32 918.5 c 128,-1,2
 57 1011 57 1011 102.5 1092 c 128,-1,3
 148 1173 148 1173 211.5 1239.5 c 128,-1,4
 275 1306 275 1306 352.5 1353.5 c 128,-1,5
 430 1401 430 1401 519.5 1427 c 128,-1,6
 609 1453 609 1453 705 1453 c 256,7,8
 801 1453 801 1453 890 1427 c 128,-1,9
 979 1401 979 1401 1056.5 1353.5 c 128,-1,10
 1134 1306 1134 1306 1198 1239.5 c 128,-1,11
 1262 1173 1262 1173 1307.5 1092 c 128,-1,12
 1353 1011 1353 1011 1378 918.5 c 128,-1,13
 1403 826 1403 826 1403 726 c 256,14,15
 1403 626 1403 626 1378 533.5 c 128,-1,16
 1353 441 1353 441 1307.5 360 c 128,-1,17
 1262 279 1262 279 1198 212.5 c 128,-1,18
 1134 146 1134 146 1056.5 98.5 c 128,-1,19
 979 51 979 51 890 25 c 128,-1,20
 801 -1 801 -1 705 -1 c 256,21,22
 609 -1 609 -1 519.5 25 c 128,-1,23
 430 51 430 51 352.5 98.5 c 128,-1,24
 275 146 275 146 211.5 212.5 c 128,-1,25
 148 279 148 279 102.5 360 c 128,-1,26
 57 441 57 441 32 533.5 c 128,-1,27
 7 626 7 626 7 726 c 256,0,1
133 726 m 0,28,29
 133 602 133 602 178 493.5 c 128,-1,30
 223 385 223 385 300.5 304.5 c 128,-1,31
 378 224 378 224 482 177.5 c 128,-1,32
 586 131 586 131 705 131 c 0,33,34
 823 131 823 131 927 177.5 c 128,-1,35
 1031 224 1031 224 1109 304.5 c 128,-1,36
 1187 385 1187 385 1232 493.5 c 128,-1,37
 1277 602 1277 602 1277 726 c 0,38,39
 1277 849 1277 849 1232 957.5 c 128,-1,40
 1187 1066 1187 1066 1109 1147 c 128,-1,41
 1031 1228 1031 1228 927 1275 c 128,-1,42
 823 1322 823 1322 705 1322 c 0,43,44
 586 1322 586 1322 482 1275 c 128,-1,45
 378 1228 378 1228 300.5 1147 c 128,-1,46
 223 1066 223 1066 178 957.5 c 128,-1,47
 133 849 133 849 133 726 c 0,28,29
EndSplineSet
EndChar

StartChar: uni0B21
Encoding: 2849 2849 279
Width: 1510
VWidth: 2210
GlyphClass: 2
Flags: W
AnchorPoint: "Anchor-7" 1269 400 basechar 0
AnchorPoint: "Anchor-6" 1294 0 basechar 0
AnchorPoint: "Anchor-5" 1363 0 basechar 0
AnchorPoint: "Anchor-4" 885 430 basechar 0
AnchorPoint: "Anchor-3" 1332 0 basechar 0
AnchorPoint: "Anchor-2" 1196 0 basechar 0
AnchorPoint: "Anchor-1" 1375 0 basechar 0
AnchorPoint: "Anchor-0" 1424 0 basechar 0
LayerCount: 2
Fore
SplineSet
984 906 m 1,0,-1
 1084 827 l 1,1,-1
 973 690 l 1,2,3
 1060 633 1060 633 1099 550.5 c 128,-1,4
 1138 468 1138 468 1138 378 c 0,5,6
 1138 314 1138 314 1113.5 247 c 128,-1,7
 1089 180 1089 180 1038 125 c 128,-1,8
 987 70 987 70 908 35 c 128,-1,9
 829 0 829 0 720 0 c 0,10,11
 608 0 608 0 525 38.5 c 128,-1,12
 442 77 442 77 387 138 c 128,-1,13
 332 199 332 199 304.5 275 c 128,-1,14
 277 351 277 351 277 426 c 0,15,16
 277 437 277 437 277 449 c 128,-1,17
 277 461 277 461 279 472 c 1,18,19
 217 500 217 500 173.5 544 c 128,-1,20
 130 588 130 588 102.5 639.5 c 128,-1,21
 75 691 75 691 62.5 745.5 c 128,-1,22
 50 800 50 800 50 849 c 0,23,24
 50 933 50 933 74 1010 c 128,-1,25
 98 1087 98 1087 142 1153 c 128,-1,26
 186 1219 186 1219 247 1273 c 128,-1,27
 308 1327 308 1327 382 1365 c 128,-1,28
 456 1403 456 1403 541 1424 c 128,-1,29
 626 1445 626 1445 717 1445 c 0,30,31
 830 1445 830 1445 924.5 1420.5 c 128,-1,32
 1019 1396 1019 1396 1094.5 1354 c 128,-1,33
 1170 1312 1170 1312 1227.5 1255.5 c 128,-1,34
 1285 1199 1285 1199 1323 1134.5 c 128,-1,35
 1361 1070 1361 1070 1380 1001 c 128,-1,36
 1399 932 1399 932 1399 866 c 0,37,38
 1399 794 1399 794 1379 728 c 128,-1,39
 1359 662 1359 662 1315 601 c 1,40,-1
 1209 671 l 1,41,42
 1248 725 1248 725 1262.5 772 c 128,-1,43
 1277 819 1277 819 1277 866 c 0,44,45
 1277 953 1277 953 1236 1034.5 c 128,-1,46
 1195 1116 1195 1116 1121.5 1179 c 128,-1,47
 1048 1242 1048 1242 944.5 1280 c 128,-1,48
 841 1318 841 1318 717 1318 c 0,49,50
 603 1318 603 1318 503.5 1279.5 c 128,-1,51
 404 1241 404 1241 330.5 1176.5 c 128,-1,52
 257 1112 257 1112 214.5 1027 c 128,-1,53
 172 942 172 942 172 849 c 0,54,55
 172 813 172 813 181 776.5 c 128,-1,56
 190 740 190 740 207 707 c 128,-1,57
 224 674 224 674 250 646.5 c 128,-1,58
 276 619 276 619 309 603 c 1,59,60
 344 695 344 695 420.5 772 c 128,-1,61
 497 849 497 849 621 909 c 1,62,-1
 673 805 l 1,63,64
 528 733 528 733 463.5 636 c 128,-1,65
 399 539 399 539 399 426 c 0,66,67
 399 368 399 368 418 314 c 128,-1,68
 437 260 437 260 476.5 218 c 128,-1,69
 516 176 516 176 576 150.5 c 128,-1,70
 636 125 636 125 718 125 c 0,71,72
 788 125 788 125 843.5 147 c 128,-1,73
 899 169 899 169 937 204.5 c 128,-1,74
 975 240 975 240 995.5 285 c 128,-1,75
 1016 330 1016 330 1016 376 c 0,76,77
 1016 439 1016 439 985 495 c 128,-1,78
 954 551 954 551 892 591 c 1,79,-1
 734 395 l 1,80,-1
 633 474 l 1,81,-1
 984 906 l 1,0,-1
EndSplineSet
EndChar

